<?xml version="1.0" standalone="no"?>
<!DOCTYPE svg PUBLIC "-//W3C//DTD SVG 1.1//EN" "http://www.w3.org/Graphics/SVG/1.1/DTD/svg11.dtd" >
<svg xmlns="http://www.w3.org/2000/svg" xmlns:xlink="http://www.w3.org/1999/xlink" version="1.1">
<metadata>
Created by FontForge 20170731 at Sat Dec 27 00:58:19 2014
 By ,,,
Copyright 2014 Adobe Systems Incorporated. All rights reserved.
</metadata>
<defs>
<font id="Darkwoman" horiz-adv-x="353" >
  <font-face 
    font-family="Darkwoman"
    font-weight="400"
    font-stretch="normal"
    units-per-em="1000"
    panose-1="0 0 0 0 0 0 0 0 0 0"
    ascent="750"
    descent="-250"
    x-height="305"
    cap-height="546"
    bbox="-214.6 -533 3249.07 826"
    underline-thickness="50"
    underline-position="-200"
    unicode-range="U+0020-FB06"
  />
<missing-glyph horiz-adv-x="162" 
 />
    <glyph glyph-name="ts" unicode="ts" horiz-adv-x="515" 
d="M497 158q10 -50 -25 -105q-8 -10 -15 -14q-30 -21 -65 -30q-19 -5 -57 -11q-28 -4 -56 16q-6 4 -8 18q-1 5 2 10q5 5 11 5h3q2 -1 6 -2.5t6 -1.5l7.5 -2.5t8.5 -2.5t8 -1q5 -1 17 -1q39 0 86 25q28 15 30 50q3 17 -1 38q-5 34 -10 56q-8 42 -35 73q-7 10 -19 10
q-4 0 -6 -1q-37 -11 -55 -18q-41 -17 -129 -40q-7 -2 -21.5 -5.5t-21.5 -5.5q-4 -1 -12 -1h-14q-4 1 -13 1q-20 0 -26 -19q-4 -13 -12.5 -42.5t-13.5 -44.5l-15 -54q-8 -27 -14 -43q-1 -5 -6 -8q0 -1 -1 -1l-1 -2q-5 -7 -16 -7q-1 0 -3 1h-2q-15 7 -12 18q5 23 8 39
q12 62 28 91q6 9 14 36q1 3 2.5 9t2.5 9q7 19 4 26.5t-20 13.5q-12 5 -22 17q-5 6 -5 19q-1 9 6 16q8 8 17 8q5 0 7 -1l12 -6q3 -1 8.5 -3.5t8.5 -3.5h1q3 0 7 4q5 5 9 15q4 9 13 33.5t14 37.5q19 48 29 77l15 36q5 12 20 12h4q9 -3 14.5 -11.5t3.5 -16.5v-3q-7 -27 -10 -35
q-2 -6 -6.5 -15.5t-10.5 -22.5t-10 -21q-2 -5 -17 -38q-16 -36 -20 -61q0 -1 2 -5t6 -4h1q1 -1 2 -1t3 -1h13h8h16q52 3 112 26q27 10 51 21q4 2 12.5 5.5t13.5 5.5l4 2q9 4 20 7q5 2 14 2q28 0 41 -20q38 -57 46 -107q2 -20 8 -50z" />
    <glyph glyph-name="el" unicode="el" horiz-adv-x="587" 
d="M576 520q8 -3 14 -14t4 -19q-6 -25 -15 -47q-50 -109 -103 -176q-20 -27 -17 -60l1 -3q2 -31 5 -47q1 -5 5 -15q1 -1 3 -5q6 -14 21 -14q2 0 3 1q19 5 30 10q22 0 35 -7l1 -1q1 0 2 -0.5t1 -1.5h1v-3q0 -1 0.5 -3.5t0.5 -4.5v-2v-1v-1l-1 -1l-2 -2q-1 0 -1 -1l-2 -1
l-4 -2l-5 -3q-18 -8 -28 -12q-15 -8 -26 -9q-12 -2 -18 -2q-43 0 -57 45q-4 12 -5 18q-1 3 -2.5 8.5t-2.5 7.5q-4 15 -16 15q-7 0 -12 -4q-3 -1 -7 -5q-18 -10 -33 -24q-60 -51 -188 -110q-23 -10 -53 -10q-8 0 -30 2q-24 3 -36 28q-11 25 -16 54q-3 22 -12 40
q-11 23 -9 31.5t23 23.5q19 13 28 32q10 22 41 59l3 4q21 24 59 36q10 2 15 2q16 0 30 -11q23 -21 15 -50q-7 -29 -30 -46q-31 -21 -59 -38q-2 -1 -6 -3.5t-6 -3.5q-8 -6 -13 -8q-3 -2 -11 -6q-13 -8 -17 -24q-7 -32 11 -69q3 -6 12 -8h4q4 -1 14 -1q8 0 11 1q85 31 141 63
q76 43 125 94q15 15 15 32q3 53 13 90q2 8 3 13q6 24 15 48q35 82 112 121q13 6 26 0zM549 455q5 2 5 4q-1 2 -4 2q-1 0 -3 -4l-1 -2q-1 0 -3 -1h-2q-9 0 -14 -4q-41 -37 -63 -114v-8q3 -6 7 -10h2q4 0 7 3q2 3 6.5 9.5t6.5 9.5q24 32 34 50q2 2 2 5q21 38 19 59z" />
    <glyph glyph-name="en" unicode="en" horiz-adv-x="696" 
d="M352 85v42q0 5 -3 7q-11 0 -12 -1q-18 -16 -37.5 -30t-49 -33t-40.5 -26q-42 -29 -101 -49q-40 -14 -74 10t-35 67q-2 50 8 91q2 11 7.5 32t9 38t4.5 33q2 17 16 22q15 6 30 15t32.5 21t27.5 18q30 18 68 12q27 -5 40 -26q7 -11 6 -20q-7 -38 -31 -53q-43 -28 -54 -35
q-40 -22 -66 -21q-27 0 -38 -35q-12 -44 -4 -91q2 -11 13 -21t22 -10q24 0 35 4q33 13 50 25q76 48 112 74q68 50 95 103q2 5 16 23q4 5 13 6.5t13 -2.5q13 -10 10 -24q-2 -17 -7 -27q-10 -18 -26 -88q-9 -41 5 -69q2 -2 6 -4t5 -1q30 15 41 26q11 10 41.5 38.5t50.5 49
t36 43.5q5 8 23 16q4 3 12 -2q9 -6 14 -16q15 -36 9 -62q-7 -11 -3.5 -59.5t2.5 -59.5q-2 -35 23 -58q3 -2 10 -17q1 -1 0.5 -3.5t-1.5 -3.5q-6 -4 -12 -5q-2 -1 -6 1q-62 37 -65 111q-1 14 -1 42t-1 42q0 3 -4 5q-5 0 -7 -1q-58 -54 -86 -82q-34 -32 -67 -53q-3 -3 -18 -10
q-20 -10 -37 -0.5t-19 32.5v49h-1zM112 257q45 -5 79 34q1 1 1 12q0 5 -5 5q-45 -8 -70 -39q-1 -1 -4 -13q-1 -2 -3 -4q1 1 1 2t0.5 1.5t0.5 1.5z" />
    <glyph glyph-name="er" unicode="er" horiz-adv-x="699" 
d="M48 136q0 -12 1 -19q1 -14 12 -23.5t26 -9.5l24 3q6 2 35 12q93 36 177 90q2 1 20 14q10 6 20.5 3t16.5 -14l15 -27q2 -3 5.5 -3t4.5 2q3 4 8 10.5t7 9.5q62 82 166 96h3t3 1q7 1 35 7.5t44 4.5q11 -1 37.5 -0.5t36.5 0.5q2 0 17 -6q1 -1 1 -6l-1 -5q-20 -5 -24 -5
q-52 -3 -105 -12q-76 -15 -142 -57q-14 -8 -23 -20q-41 -53 -53 -97q0 -1 -1 -3t-1 -3q-6 -40 -48 -70q-7 -5 -16.5 -1.5t-10.5 13.5q-3 14 -1 31q8 55 8 61v18q0 8 -8 12t-15 0q-3 -1 -17 -8q-16 -8 -55 -28.5t-60 -30.5q-29 -14 -64 -25q-30 -10 -67 -5q-28 4 -44 31
q-23 41 -11 84q26 86 72 135q38 38 75 55q24 11 54 8q13 -1 22 -11.5t8 -22.5q-2 -18 -9 -29q-15 -24 -38 -41q-29 -23 -55 -39q-23 -16 -47 -3q-12 7 -20 -6q-20 -33 -18 -71zM181 313q-1 1 -5 3q-3 3 -5 1q-32 -11 -64 -47q-6 -6 2 -9q2 -1 6 -1q42 18 64 47q1 1 1 3t1 3z
" />
    <glyph glyph-name="es" unicode="es" horiz-adv-x="463" 
d="M447 122q-1 -5 -2 -15.5t-1 -11.5q0 -24 1 -36q1 -2 1 -7t1 -8q2 -18 2 -28l1 -1v-1v-1q1 -1 1 -3v-16q-4 -10 -10 -16q-12 -12 -34 -15q-2 0 -7.5 -0.5t-8.5 -0.5q-38 0 -72 23q-10 7 -19 25q-3 6 1 18q9 18 28 24q5 1 14 3.5t12 3.5l33 9q11 4 13 10q1 14 5 40
q10 62 9 95q-2 6 -7 6h-3h-3q-4 -2 -5 -3q-6 -6 -20 -18q-51 -48 -52 -49q-68 -66 -128 -105q-4 -3 -11 -8.5t-10 -7.5q-30 -21 -46 -28l-8 -4q-26 -11 -43 -16q-10 -2 -15 -2q-33 0 -48 31q-18 40 -17 72q3 78 37 128l6 9q4 6 19 26q18 21 50 21q15 0 31 -7q16 -9 19 -25
q8 -40 -15 -64q-17 -18 -67 -63q-5 -4 -13 -6q-3 -1 -9 -4q-5 -3 -7 -9q-6 -35 12 -57q4 -6 9 -6l3 1q17 0 27 5h1q38 17 53 28l9 6q75 54 113 87q12 10 34 30q77 67 99 89q4 4 12 4q17 0 21 -11l1 -1q0 -2 1 -2q6 -12 7 -20l3 -30v-13q-1 -3 -1 -9.5t-1 -9.5
q-1 -5 -2.5 -15t-2.5 -18t-1 -15v-8zM390 14q-9 2 -15 -4q1 -3 3 -3q10 -3 16 2v1v1l-1 1q-2 2 -3 2zM69 174v-3l2 -1q2 -1 6 -1h2q19 12 39 36v3v2v1l-1 3q-3 5 -9 2q-28 -12 -39 -42z" />
    <glyph glyph-name="te" unicode="te" horiz-adv-x="657" 
d="M701 145q-2 -2 -2 -3q-9 -4 -18 -13q-51 -45 -146 -89q-35 -16 -81 -31q-18 -5 -42 -5h-2q-24 0 -41.5 14.5t-21.5 38.5q-9 51 4 99q7 26 11 34q7 15 -1 44q-4 12 -4 20q-2 7 -13 7h-11h-12q-23 0 -35 -2q-31 -6 -100 -11q-7 0 -37 -5q-1 0 -3 -1h-2q-24 -4 -34 -25
q-34 -74 -41 -130q-2 -22 -18 -77l-1 -6q-3 -11 1 -36q3 -12 -6 -18q-8 -5 -18 -5q-7 0 -14 5q-10 10 -9 17q1 8 3.5 24t3.5 24q24 143 42 198q3 5 -1 13q-5 6 -13 6h-2q-5 0 -13 -2q-10 -2 -15 -2q-7 -1 -14 7t-8 16q0 19 12 23q2 0 8 1.5t8 2.5q26 8 40 9q33 2 55 41
q8 15 26.5 44t26.5 43q5 7 15 23q3 6 14 6q6 0 10 -3q17 -11 13 -22q-1 -1 -1 -3t-1 -3q-1 -7 -5 -14q-3 -5 -9.5 -15t-9.5 -15q-3 -4 -20 -31q-3 -6 -9 -20q0 -1 -1 -3t-1 -3q-2 -3 2 -10q5 -7 10 -7q5 -1 15 -1q28 -2 41 -2h1h44q16 1 48 1q45 0 80 -3h5q17 0 30 10
q29 24 67 41q20 10 44 10q13 0 25 -3q14 -3 32 -15q15 -11 17 -32q3 -21 -12 -36q-5 -5 -23 -17q-28 -19 -98 -42q-23 -7 -28 -8q-2 0 -5.5 -1t-5.5 -1q-28 -7 -34.5 -15t-17.5 -47l-1 -1q-10 -36 14 -75q4 -6 13 -7q2 -1 7 -1t8 1q4 1 11 3.5t11 3.5q35 9 60 20
q105 45 181 103q4 0 12 -2q11 -5 6 -18q-3 -12 -16 -16zM468 262q-4 -4 -4 -6q1 -3 4 -4q2 0 2 -1h1q53 5 91 34q1 1 4 6q2 5 1 8q-2 4 -6 4q-1 1 -5 1q-6 2 -11 2q-3 0 -5 -1q-50 -15 -72 -42v-1z" />
    <glyph glyph-name="che" unicode="che" horiz-adv-x="963" 
d="M310 153q1 3 3 25q0 8 -6 9q-3 2 -7 0q-17 -16 -51.5 -48.5t-51.5 -49.5q-39 -38 -113 -74q-5 -2 -13 -4q-30 -6 -45 4t-23 36q-10 30 -2 64q20 94 91 153q14 10 39 22q29 14 52 -14q4 -4 2.5 -12t-6.5 -11q-8 -5 -11 -5q-27 2 -46 -11.5t-39 -39.5q-46 -57 -34 -127
q2 -9 8.5 -13t15.5 -1q1 1 5.5 2.5t5.5 2.5q47 28 56 34q62 48 79 66q82 79 101 101q20 22 22 31q4 17 12.5 32.5t21 34.5t18.5 29q4 8 14 22q2 4 18 19q16 14 29 1q12 -10 6 -24q-2 -3 -9 -17.5t-12 -22.5q-12 -20 -38 -60q-10 -14 -14 -22q-41 -85 -29 -176q0 -2 2 -6
q2 -8 9.5 -13t14.5 -3q31 10 36 14q44 26 70 47q57 48 72 73q4 5 11.5 7t11.5 0q13 -7 16 -19q0 -1 3 -26q0 -5 0.5 -20.5t1.5 -24.5q2 -13 12 -37q6 -13 21 -11q24 3 40 19q10 9 14 21q5 26 35 91q20 42 71 81q21 16 43 5q10 -5 16 -18t4 -26q-9 -52 -54 -102
q-11 -12 -47 -44q-3 -3 -11.5 -10t-12.5 -12q-14 -18 -9 -36q14 -45 55 -47q50 -2 84 3q63 9 64 9q7 0 23.5 5.5t26.5 3.5q5 0 5 -4q0 -8 -1 -11q0 -4 -5 -4q-40 -13 -176 -38q-19 -4 -39 0q-56 10 -75 54q-4 11 -11 23q-3 5 -11 5q-4 -1 -12 -4t-13 -4q-16 -5 -38 0
q-15 3 -25 19q-12 23 -15 49q-1 10 -5 25q-1 4 -6.5 6t-9.5 0q-3 -3 -10 -8.5t-10 -8.5q-31 -31 -94 -68q-20 -13 -53 -23q-13 -5 -28 0.5t-23 17.5q-16 27 -16 48q-1 13 -1 46zM822 249q-3 7 -10 5q-14 -4 -25 -18q-22 -28 -34 -61l3 -12q1 0 2.5 0.5t2.5 1.5q32 20 61 78
v6z" />
    <glyph glyph-name="tet" unicode="tet" horiz-adv-x="720" 
d="M812 288q42 -1 119 -3q5 0 9 -6q1 -1 -0.5 -4t-4.5 -6t-6 -3q-12 -2 -18 -2q-7 0 -19.5 -1t-18.5 -2q-45 -2 -68 -7q-19 -4 -43 -4q-18 -1 -51.5 -8t-46.5 -9t-18 -16q-29 -82 -22 -140q5 -25 5 -31q2 -17 -10 -31.5t-29 -16.5q-4 0 -9 3t-5 6q-2 14 -2 19q0 12 0.5 34
t0.5 34q0 29 -22 64q-2 7 -11 4q-14 -6 -21 -13q-42 -37 -161 -117q-12 -8 -68 -30q-13 -6 -37 -2q-16 2 -28 13.5t-13 27.5q-8 74 11 116q13 29 9 92q0 3 -4.5 7t-8.5 4h-16.5t-20.5 -2q-34 -10 -61 -14q-23 -5 -31 -28q-14 -43 -16 -54q-1 -7 -8.5 -40t-8.5 -51
q-2 -21 -14 -61q-2 -9 -15 -19q-6 -6 -17 -4q-13 4 -13 19q0 13 2 19q3 14 11 42q24 90 0 166q-5 18 12 26q6 3 18 7.5t17 6.5q11 4 16 17q3 6 7 18q12 43 71 131q4 7 24 18q10 5 24 0q4 -2 6 -7.5t-1 -8.5q-44 -52 -80 -132q-4 -8 0.5 -15t13.5 -6q1 0 3 -0.5t3 -0.5
q9 0 13 1q30 10 92 10q4 0 10 0.5t9 0.5q49 0 84 19q17 9 41 16q8 2 25 0q20 -4 25 -25q5 -25 -10 -40q-66 -64 -138 -83q-16 -5 -23 -19q-16 -27 -23 -77q-3 -20 11 -41q6 -13 21 -11l18 6q26 10 92 52q61 38 120 89q23 21 24 42q0 4 13 20q7 7 16 10t18 8.5t14 9.5
t13.5 14t11 13.5t12 17t10.5 14.5q5 8 23 43q15 28 39 49q4 4 10 7q12 8 23 -3q4 -4 5 -11.5t-2 -11.5q-16 -24 -25 -35q-23 -28 -40 -63q-3 -9 -3 -18q0 -10 6 -10q86 4 130 7zM375 272q-9 0 -11 -1q-13 0 -3 -7q3 1 5 2q5 5 7 8q2 0 4 2q1 0 1 1t1 2q-1 -1 -4 -7zM593 183
q1 1 2 2.5t1 2.5q2 12 -3 17q-3 -1 -3 -2v-17z" />
    <glyph glyph-name="fl" unicode="fl" horiz-adv-x="533" 
d="M327 255q-2 -1 -7 -1q-60 -28 -174 -53q-11 -2 -20 -6q-12 -10 -14 -15q-2 -4 -10 -33q-32 -105 -42 -199q-1 -10 -5.5 -40t-5.5 -48.5t0 -34.5v-22v-21v-16q0 -12 -4 -20t-14 -14q-4 -2 -11.5 3t-9.5 11q0 1 -1 3.5t-1 3.5q1 27 0 49t1 49t7 49q9 41 14 97t35 164
q1 3 1 21q0 4 -5 4q-23 2 -34 0q-13 -3 -67 -23q-17 -6 -27 15q-4 8 -1.5 18.5t9.5 12.5q26 13 45 18q41 10 76 14q33 3 44 38q15 45 51 100q29 42 72 76q26 21 60 14.5t49 -35.5q10 -22 5 -48q0 -1 -8 -9q-3 0 -7 2q-5 6 -15.5 18.5t-15.5 18.5q-13 13 -27 5
q-52 -27 -74 -62q-40 -65 -47 -86q-2 -4 2 -9.5t8 -6.5q48 -4 109 19q9 3 26 11t26 11q47 14 76 58q25 40 76 72q3 2 6 3.5t7 3t6 2.5q8 4 18 1.5t14 -8.5q5 -7 5 -18t-4 -16q-12 -14 -19 -20q-54 -46 -64 -54q-31 -25 -43 -63q-8 -22 -13 -32q-15 -29 -13 -61q0 -7 -5 -42
q0 -2 -2 -9.5t-2 -11.5q0 -31 13.5 -47.5t44.5 -8.5q17 4 99 29q13 3 17 2q8 -2 5 -12q-1 -6 -12 -13q-17 -13 -61 -28q-13 -5 -37 -13q-6 -2 -18.5 -5t-19.5 -5q-12 0 -19 1q-14 2 -20 4q-12 6 -17 12q-22 29 -21 58q2 42 5 63q3 20 10 56t9 48q1 4 -4 8.5t-10 2.5z" />
    <glyph glyph-name="st" unicode="st" horiz-adv-x="552" 
d="M679 341q3 -9 -4 -10q-16 -4 -24 -5q-89 -8 -164 -41q-42 -19 -62 -60q-32 -70 -31 -121q0 -6 -1 -16t-1 -15q0 -18 -20 -30q-4 -2 -5 -3q-16 -10 -27 8q-7 13 -5 24q22 102 44 150q12 27 34 81q3 7 5 23q-11 -4 -21.5 -10.5t-26 -17.5t-19.5 -14l-48 -30
q-64 -39 -118 -73q-14 -9 -14 -27q-2 -37 2 -56q1 -6 4 -37q3 -29 -23 -42q-52 -25 -98 -17q-42 9 -52 40q-2 4 -2 6l-1 1q-1 1 -1 2q2 30 4 45q1 1 1 2q5 6 15 16q10 8 15 16q9 11 21 20t30 20t25 16q16 10 21 29q11 37 10 50v9.5v3.5t1 1.5t2 3.5l3 9q10 39 49 63
q18 11 36 0q8 -6 20 -16q3 -3 4 -9t-1 -8q-6 -6 -9 -7t-6 -1.5t-7 -1t-6 -0.5q-22 -2 -29 -21q-3 -8 -6.5 -15t-5 -9.5t-2.5 -8.5t-2 -18q0 -6 6 -10q3 -2 12 0q6 1 11 5q13 10 87 51q42 23 55 32q65 39 128 106q5 5 32 30q1 1 11 6q4 2 11 -2t9 -9q2 -17 -4 -24
q-5 -6 -16.5 -18.5t-17.5 -18.5q-21 -23 -28 -47v-5q3 -6 11 -4q82 22 168 18q3 0 18 -5q1 0 2 -2zM126 105q-1 3 0 17.5t-3 21.5q-2 2 -7 0q-6 -1 -13 -9t-10 -10q-6 -5 -20 -15q-16 -14 -23 -21q-6 -7 -9 -17q-5 -14 1.5 -24.5t20.5 -11.5q25 0 38 2q9 1 16.5 8.5
t8.5 15.5v43z" />
    <glyph glyph-name="as" unicode="as" horiz-adv-x="630" 
d="M624 173v-44q-13 -85 -85 -118q-19 -8 -34 -11q-15 -2 -26 11q-6 9 1 13q11 9 18 10q48 7 66 60q16 47 17 85q0 25 -12 49q-3 5 -11 7.5t-14 -0.5q-21 -8 -54 -37q-17 -15 -51 -45.5t-51 -45.5q-75 -66 -147 -92q-2 -1 -9 -3.5t-11 -3.5q-15 -4 -28.5 2.5t-18.5 20.5
q-3 6 -10 35q-2 5 -7.5 6.5t-10.5 -1.5q-11 -6 -31 -18.5t-31 -18.5q-26 -15 -55 -14q-11 1 -19.5 9t-9.5 18q0 29 2 36q15 69 75.5 138t114.5 88q1 1 3.5 1.5t3.5 0.5q16 5 30.5 -3.5t17.5 -26.5q1 -3 1.5 -6.5t1 -8t0.5 -6.5q1 -12 14 -4q17 8 19 9q9 3 17 -4.5t6 -15.5
q-7 -26 -12 -34q-9 -14 -31 -40q-20 -25 -42 -83q-1 -4 1 -22q1 -4 7 -8t10 -2l33 15q93 56 139 104q17 17 100 83q13 10 38 22q17 7 35 0.5t26 -23.5q14 -26 15 -48v-36h-1zM51 87v-6q0 -4 2 -6q11 -5 13 -5q13 5 24.5 11t24.5 16t19.5 15.5t22.5 19.5t20 17q44 36 21 82
q-1 2 -0.5 7t-0.5 7q-5 8 -13 5q-105 -53 -133 -163z" />
    <glyph glyph-name="ack" unicode="ack" horiz-adv-x="1002" 
d="M660 166q16 0 19 2q37 21 67 40q155 92 204 117q13 7 71 31q3 1 10 1.5t9 0.5q5 0 9 -4t3 -8q-3 -21 -16 -27q-26 -13 -30 -13q-35 1 -91 -31q-58 -34 -106 -64q-35 -21 -39 -27q-3 -5 -3 -42v-7q0 -22 15 -42q27 -34 67 -51q78 -32 130 -42q8 -2 3 -10q-1 -2 -4 -5
q-12 -3 -13 -3q-14 3 -41.5 8.5t-49.5 10.5t-42 12q-40 14 -78 45q-16 11 -27 36l-15 36q-5 8 -11 2q-1 -1 -8.5 -11t-12.5 -14q-6 -5 -19.5 -13.5t-18.5 -11.5q-8 -5 -24.5 -15.5t-24.5 -15.5q-26 -16 -61 -21q-20 -2 -75 -20q-29 -10 -71 -10q-20 0 -25 3q-16 10 -38 10.5
t-39 -2.5q-19 -1 -58 -1q-15 1 -27.5 13.5t-15.5 28.5q-5 25 3 72q0 3 -2 5t-6 0q-57 -38 -64 -43q-29 -22 -89 -39q-8 -2 -17.5 7t-7.5 17q2 6 6.5 20.5t7.5 22.5t10 18.5t16 17.5q0 1 1.5 3t2.5 3q2 12 8.5 24.5t11 18.5t17 20t15.5 17q27 32 81 66q20 13 43 8
q18 -4 20 -23q2 -11 -9 -37q-3 -8 4 -11h6q1 0 5 2t5.5 2.5t5 1.5t5.5 1t4.5 -0.5t5 -2.5t4.5 -5q8 -13 -6 -37q-25 -36 -38 -75q-11 -39 -5 -65q5 -23 26 -25q26 -3 58 4q13 3 19 17q0 2 2 6t2 6q6 44 47 92q58 67 115 94q28 14 50 13q6 -1 18 -7q14 -7 6 -22
q-10 -17 -26 -18q-56 -1 -101 -51q-30 -32 -41 -51q-14 -25 -21 -61q-2 -8 6 -17t17 -9q1 0 3.5 -0.5t3.5 -0.5q68 14 100 27q36 14 55 45q66 102 81 162q15 61 64 104q8 8 24 6q4 0 7.5 -6t1.5 -9q-5 -10 -6 -11q-19 -22 -30 -50q-38 -97 -47 -122v-12q-1 0 -2.5 -0.5
t-2.5 -1.5t-1 -4q2 -1 3.5 1t1.5 6zM73 128l-1 -1l-3 -8q0 -2 3 -5t6 -1q26 8 80 54q4 4 4 12t2 16.5t5.5 18t4.5 15.5q0 1 -5 11q-1 1 -3 1t-3 -1q-12 -6 -17 -10q-37 -30 -73 -102z" />
    <glyph glyph-name="Du" unicode="Du" horiz-adv-x="1011" 
d="M904 101q-17 30 -10 71q0 8 -4 12q-6 7 -15 7q-5 0 -7 -1q-1 -1 -7 -4q-2 -1 -23 -13q-33 -22 -119 -61q-34 -16 -48 -22q-32 -16 -66 -16h-5q-13 0 -23.5 9t-13.5 22q-6 28 3 55q3 9 8.5 24.5t7.5 21.5q3 6 7 18q3 7 -2 14q-5 9 -18 9q-74 -2 -138 -47q-9 -6 -16 -13
q-1 -1 -4.5 -4t-5.5 -5q-144 -116 -313 -164q-12 -4 -28 -4q-27 0 -48 14q-15 8 -17 27q-1 13 8 21v1q46 39 66 51q36 22 51 59l2 4q2 2 2 4q54 120 149 246q7 11 5 21q-3 10 -15 15q-1 1 -2.5 2t-2.5 1q-6 4 -12 5l-4 1q-88 18 -137 18h-3q-32 0 -48 -23q-5 -6 -11 -6
q-5 0 -11 3q-24 16 -33 34q-5 10 1 21q5 9 13 9q45 2 53 3q7 1 19 1q172 -4 304 -75q33 -19 63 -53q32 -38 29 -82q0 -6 -0.5 -18.5t-0.5 -18.5v-6q0 -3 5 -10q11 -9 19 -9h3q6 1 17.5 4t16.5 5q48 12 73 18q23 4 41 5q10 0 17 -10q5 -8 0 -17q-24 -43 -38 -66
q-22 -37 -25 -74q-1 -11 13 -17q8 -2 12 -2q7 0 9 1q8 4 17 7q39 15 78 33q138 68 211 130q5 5 20 10q1 0 3 1h2l5 -1q10 -11 10 -16q-4 -28 -32 -66q-27 -34 -18 -94q2 -14 14 -25q14 -10 22 -15q1 -1 5 -3.5t6 -4.5v-1v-1l-6 -9q-1 0 -3 -0.5t-4 -0.5q-4 0 -5 1q-6 2 -9 2
q-46 15 -59 37zM317 159l1 3l-1 3l-1 1q-2 4 -4 6q-5 4 -11 4h-2q-61 -13 -130 -42q-35 -14 -46 -41q-6 -12 1 -21q2 -4 19 -9h3q4 0 16 3q85 33 149 84q2 2 5 7zM415 254q27 43 26 82q-6 51 -42 78q-25 19 -43 19q-19 0 -40 -21q-25 -25 -39 -46q-23 -32 -71 -106
q-13 -20 -24 -45q-5 -11 1 -22q7 -9 18 -9q2 0 3 1q58 15 195 56q10 3 16 13z" />
    <glyph glyph-name="cht" unicode="cht" horiz-adv-x="1023" 
d="M1061 338q76 7 79 7q14 1 86 1q4 0 11 -7q2 -2 2 -7t-2 -5q-61 -15 -84 -16q-83 -3 -155 -29q-3 -1 -10.5 -2t-10.5 -2q-18 -3 -25 -23q-30 -88 -38 -116q-4 -15 -28 -118q-3 -16 -23 -25q-14 -6 -20 0q-10 10 -9 19q0 2 6 34.5t12 48.5q8 21 15.5 45t16 53.5t13.5 45.5
q1 5 -3 9.5t-9 3.5q-51 -8 -77 -47q-46 -67 -54 -77q-11 -15 -38.5 -49t-40.5 -53q-22 -32 -62 -46q-20 -7 -26 2q-8 9 -6 27q0 10 3 21q8 25 38 175q2 2 -3 6q-1 1 -3 1t-3 -1q-70 -55 -83 -67q-32 -30 -100 -82q-34 -26 -76 -40q-11 -4 -24 3.5t-15 18.5q-4 20 -3 29
q1 11 4 35t4 36q0 3 -3 6q-1 1 -5 1q-10 -7 -30 -20t-30 -20q-4 -3 -31 -25t-42 -33q-23 -18 -75 -42q-29 -14 -70 -5q-20 3 -25 23q-11 39 -5 85q14 96 87 169q21 22 54 34q47 17 79 -19q14 -17 1 -39q-9 -12 -18 -9q-4 2 -10.5 5.5t-8.5 4.5q-28 13 -54 -5
q-47 -36 -61 -78q-16 -46 -21 -69t5 -42q7 -11 16 -11q12 0 28 7q24 11 44 24q96 64 143 96q3 2 31 30q16 14 22 36q19 57 20 61q7 30 42 99q20 39 58 62q6 4 20 6q10 1 19 -9t7 -19q-10 -43 -26 -74q-36 -74 -63 -105q-42 -50 -49 -131q-1 -15 -1 -43q0 -6 4.5 -9.5
t8.5 -1.5q22 10 32 17q80 60 119 91q16 13 48 38t48 38q16 15 33 5q18 -10 15 -29q-6 -48 -15 -92q-3 -14 -9 -39.5t-8 -37.5q0 -4 3 -6t5 0q14 9 17 14q65 81 86 105q17 19 28 42q2 4 8.5 24t13.5 28q6 8 21 19.5t21 17.5q27 32 73 98q38 57 81 100q5 5 13.5 5t13.5 -4
q7 -7 7 -11q-5 -44 -17 -77q-5 -15 -14 -43.5t-12 -38.5q-2 -5 2 -9t10 -4h57zM955 397q-1 2 -2 7t-2 7q-3 4 -10 -3q-39 -54 -48 -77q-1 -1 2 -4.5t5 -4.5q27 -5 34 17q5 11 12.5 32.5t8.5 25.5zM464 397l-6 5q-10 -10 -14 -16q-5 -7 4 -11q3 0 5 4q2 3 5.5 9t5.5 9z" />
    <glyph glyph-name="rei" unicode="rei" horiz-adv-x="650" 
d="M603 224q6 -2 11 -8t4 -13v-5q-2 -21 -5 -31q-3 -16 -9 -29q0 -2 -2 -6t-2 -6q-1 -4 -3.5 -11t-3.5 -10q-4 -12 -7 -18q-9 -29 4 -50q4 -5 2 -15q-4 -11 -13 -14l-1 -1q-2 0 -4 -2q-8 -2 -12 -4q-8 -2 -11 -2q-11 0 -17 8q-7 8 -5 22q8 38 14 59q4 14 11 32q7 21 8 25
q1 2 -1 9q-1 1 -2 1l-4 -2l-1 -1q-4 -3 -15 -11.5t-17 -13.5q-37 -30 -123 -73q-4 -1 -23 -11q-20 -10 -62 -20q-5 -1 -13 -3q-4 -1 -13 -1h-8h-4q-16 1 -29 13q-25 27 -22 61q-1 34 21 88v2q10 22 17 33q10 15 8 23q-1 4 -15 11q-1 0 -2.5 1t-2.5 1q-13 7 -28 7
q-11 0 -22 -3q-79 -26 -108 -94l-3 -9q-9 -23 -10 -30q-1 -4 -15 -58q-10 -29 -13 -47q-2 -8 -7 -14.5t-9 -9t-13 -7.5q-8 -2 -10 -2q-8 0 -12 4t-4 12v5q0 13 1 19q3 16 7 25q1 4 3 10q2 5 5.5 19t5.5 21q3 12 9 33l11 38.5t10 33.5q8 27 31 29q16 2 25 10q35 32 71 47
q23 10 42 10q24 0 47 -14l6 -3q12 -8 25 -14q1 -1 4 -1q4 0 5 1q10 6 23 16l1 1q37 27 81 27q12 0 18 -1q17 -2 27 -16t5 -31q-3 -14 -10 -23q-16 -22 -37 -31q-52 -25 -89 -25h-11q-13 1 -21 -13q-16 -28 -20 -74q-2 -13 7 -27q8 -13 22 -13h1q6 0 16 2q141 49 224 124
q28 24 41 35q9 8 20 3zM388 269q-5 -3 -15.5 -9.5t-16.5 -9.5q-4 -4 -8 -5q0 -1 -1 -2h1q1 0 3 -2l2 -1q28 3 53 20q1 0 3 5q1 1 1 2l-1 1q-6 3 -12 3q-3 0 -9 -2zM735 413q1 -1 1 -9h-1q0 -7 -4 -7q-4 -1 -21 -4l-2 -1h-2h-1q-5 1 -15 1q-11 1 -29 3q-15 3 -22 16
q-7 17 0 30q4 11 15 11l2 -1q33 -10 79 -39z" />
    <glyph glyph-name="hoffe" unicode="hoffe" horiz-adv-x="1596" 
d="M1693 91q2 0 6.5 -2.5t6.5 -2.5q-3 -8 -7 -13q-2 -4 -6 -4q-101 -31 -119 -35q-49 -11 -70 -18q-43 -15 -122 -15q-39 -1 -70.5 32t-32.5 76q-3 54 28 117q5 9 14.5 26t11.5 20q2 2 -1 7q-2 4 -6 4q-11 -1 -52 -5q-38 0 -106 -17q-14 -4 -22 -18q-25 -45 -57 -141
q-19 -59 -38 -139q-13 -57 -11 -137v-46q-1 -4 -7 -9.5t-9 -4.5q-15 6 -17 12q-7 25 -8 45q0 71 10 122q12 71 68 241q5 17 17 51q2 5 -3 11t-9 5q-22 -5 -67 -14.5t-68 -14.5q-27 -6 -36 -35q-56 -170 -81 -285q-4 -17 -4.5 -48t-0.5 -36q-2 -15 -14 -15q-11 -1 -19 8
q-6 12 -6 14q-2 42 0 53q18 106 35 156q6 19 22 68.5t24 76.5q7 20 -7 35q-13 15 -26 9q-74 -31 -100 -44q-7 -3 -20 -21q-2 -2 -3 -7.5t-2 -7.5q-24 -71 -106 -120q-8 -5 -35 -10q-34 -5 -47 26q-1 1 -3.5 6t-4.5 7q-7 7 -12 5l-33 -15q-33 -18 -76 -26q-28 -7 -50 7
q-20 12 -25 26q-26 65 -29 117q-2 51 -10 68q-2 5 -8 7.5t-10 0.5q-18 -9 -19 -10q-36 -33 -70 -67q-10 -9 -40 -38t-47 -44q-11 -10 -31 -19q-18 -8 -35 -4q-7 2 -13 8.5t-5 12.5q12 81 16 98q14 65 45 137q29 65 89 193q7 15 15 26q7 10 18 12q8 3 20 -3q10 -6 8 -20
q-4 -20 -9 -29q-11 -21 -30 -53q-72 -120 -113 -264q-5 -14 -5 -37q-2 -9 5 -13q5 -5 13 0q29 20 65 61q49 54 110 99q3 2 9.5 6t9.5 6q11 7 25 2.5t20 -15.5q15 -30 16 -50q1 -10 2 -30.5t1 -30.5q3 -39 16 -82q5 -14 18 -33q12 -19 32 -14q76 22 107 47q22 17 30 42
q26 85 54 141q24 50 61 76q8 5 20 3q17 0 17 -20q-2 -20 7 -37q10 -17 28 -53q13 -24 36 -15q73 26 154 71q19 10 31 30q15 27 45 79q28 51 83 96q10 8 38 21q8 4 19.5 -1.5t16.5 -16.5q13 -29 -3 -59q-35 -67 -79 -98q-4 -3 -24 -17t-31 -21q-6 -5 -18 -13q-3 -2 -5.5 -6.5
t-3.5 -8t0 -4.5q8 -6 12 -6q43 3 44 3q6 1 26 5t31 5q30 3 47 33l36 57q34 54 100 98q22 14 44.5 8.5t38.5 -28.5q2 -4 2 -11t-4 -11q-6 -6 -12 -6q-7 -1 -14 2q-19 10 -42 -6q-43 -31 -86 -82q-3 -4 -10 -20q-2 -4 2 -10.5t8 -6.5h28t32.5 0.5t26.5 2.5q52 10 79 11
q17 1 78 20q38 12 76 -14q19 -14 10 -34q-11 -31 -36 -46q-49 -29 -107 -46q-2 -1 -12.5 -3.5t-15.5 -4.5q-15 -5 -20 -21q-14 -38 -5 -75q5 -23 24 -42.5t41 -21.5q23 -3 44 0q40 7 100 20q24 6 73.5 18t74.5 18zM1451 288q-1 0 -3 -0.5t-3 -0.5q0 -1 0.5 -2.5t1.5 -2.5
q8 -3 10 3q0 3 -6 3zM1020 389q-2 -5 -1 -7q1 -9 10 -5q8 6 11 9q5 3 15 11l6 6l3 3q8 10 29 42q1 1 0.5 3t-1.5 3q-4 2 -6 1q-20 -9 -36 -32q-12 -10 -27 -30q-1 -1 -3 -4zM660 135q0 1 7 27q-6 14 -8 15q-28 20 -43 28q-1 1 -5.5 -0.5t-6.5 -3.5q-32 -64 -37 -114
q0 -14 8 -19q10 -8 20 -2q43 26 65 69zM670 238h4l-2 5z" />
    <glyph glyph-name="Ich" unicode="Ich" horiz-adv-x="1224" 
d="M891 326q-15 -1 -31 -21q-90 -98 -173 -173q-50 -46 -111 -94q-5 -4 -53 -31l-15 -3q-11 -2 -21.5 7t-8.5 19q15 60 15 98q0 14 -2 38q-3 19 -20 32q-39 25 -80 18q-32 -5 -46 -25q-16 -20 -23 -30q-55 -86 -162 -173q-19 -15 -51 -33q-27 -16 -67 -14q-18 0 -30.5 13
t-11.5 32q2 21 7 29q24 38 40 56q84 87 163 125q30 14 92 40q26 11 40 33q43 78 63 147q12 46 6 91q-4 24 -25 38t-43 7q-12 -3 -72 -26q-47 -20 -85 -75q-31 -43 -4 -86q5 -8 15 -26q2 -4 0 -11.5t-6 -9.5q-11 -6 -21 0q-69 41 -43 118q12 33 30 54q67 82 179 110
q17 5 46 1q44 -8 64 -48q25 -50 9 -112q-5 -16 -38 -108q-2 -5 -21 -49q-3 -6 -0.5 -11.5t8.5 -6.5q37 -4 81 -21q45 -19 55 -68q5 -4 2 -46t-3 -45t8 -11q1 -1 4 0l3 1q2 1 4 2.5t3 1.5q5 4 15.5 11.5t15.5 11.5q13 11 90.5 77t117.5 103q14 13 28.5 29t31.5 37t26 31
q8 9 20 -1q1 -1 2 -4q4 -12 11 -1l24 39q16 26 38 57q2 4 18 14q9 5 11 -6q4 -13 1 -22q-5 -20 -15 -35q-10 -16 -25 -48.5t-19 -40.5q-10 -19 -18.5 -43t-13 -37.5t-13.5 -46.5t-11 -40q-9 -33 -6 -68q0 -5 4 -7q9 -2 13 0q20 9 59 48q82 78 123 116q20 18 36 28
q14 11 32 4t23 -25q15 -45 15 -82q-1 -18 0 -50t1 -42q2 -61 25 -95q3 -4 -0.5 -9.5t-9.5 -7.5q-15 -4 -29 8q-23 22 -28 53q-1 9 -7 40t-6.5 40t0.5 41q2 10 -6 60q0 6 -6.5 8t-11.5 -2q-36 -23 -53 -43q-48 -52 -72 -79q-18 -19 -69 -60q-17 -13 -70 -29q-5 -1 -13 5.5
t-9 12.5q-8 42 5 91q38 148 52 184q1 2 1 23q3 0 7 2q1 1 1 5q-6 0 -6 -9zM284 179q-5 5 -6 4q-69 -16 -143 -80q-26 -23 -60 -58q-8 -8 -18 -24q-3 -4 -10 -21q-2 -4 0 -11.5t6 -8.5q12 -3 14 -2q44 20 54 26q91 59 158 161q2 3 5 14z" />
    <glyph glyph-name="ei" unicode="ei" horiz-adv-x="563" 
d="M525 106q9 -28 13 -45q2 -6 -6 -11q-11 -6 -26 -4q-11 1 -16 11q-9 16 -15 52q-2 26 -13 46q-1 3 -12 16t-25 7q-26 -13 -30 -16q-42 -28 -61 -44q-58 -47 -192 -103q-17 -7 -81 -16q-15 -2 -29 6t-22 22q-15 29 -7 59q2 7 9 33t13 39q12 22 10 53q-1 28 15 52
q21 34 55 33q22 -1 39 11q15 13 39 28q9 6 29 16q22 11 39 3t25 -32q11 -27 -3 -53q-14 -25 -30 -37q-81 -62 -140 -65q-17 -1 -32 -23q-17 -29 -19 -65q-1 -6 1 -20q1 -10 11.5 -17.5t18.5 -5.5q53 15 65 19q94 37 163 87q29 21 67 47q23 16 41 25q19 11 43 3.5t34 -26.5
q10 -20 21 -51q2 -8 5 -20.5t3 -13.5zM230 286q-2 9 -5 11q-7 7 -12 4q-7 -3 -19.5 -10.5t-14.5 -8.5q-32 -18 -59 -55q-3 -1 -3 -6l-1 -5q6 -6 11 -6q27 3 56.5 21.5t42.5 41.5q2 3 4 13zM559 335q-6 -9 -7 -9q-2 -1 -11 5q-3 2 -5 5q-20 49 -58 84l-2.5 2.5t-3 4.5t-2.5 4
q-5 6 -3.5 15.5t8.5 14.5q8 7 19.5 7t16.5 -7q44 -57 48 -126z" />
    <glyph glyph-name="Werbung" unicode="Werbung" horiz-adv-x="2991" 
d="M2559 -255q-2 1 -3 3l-1 3l2 2q3 7 7 8q72 28 205 124q3 2 8 5.5t7 5.5q40 28 86 81q47 52 61 135q2 8 -1 24q-7 24 -13 40l-1 5q-5 13 -22 13q-6 0 -8 -2l-12 -9q-4 -2 -10 -6.5t-10 -6.5q-1 -1 -3.5 -2.5t-3.5 -2.5q-18 -12 -26 -12q-24 -1 -62 -26l-9 -6
q-26 -17 -74 -44q-10 -5 -19 -5q-13 0 -23 7l-21 18l-8 8q-6 4 -8 4q-5 0 -8 -7q-1 -2 -2.5 -6t-1.5 -5q-5 -15 -10 -25q-5 -6 -17 -11q-4 -2 -7 -2q-16 0 -21 16q-6 22 1 45q4 15 14 45q2 7 6.5 22t6.5 23q2 6 0 18q-1 2 -1 5q-2 7 -7 7h-1q-40 -9 -70 -35q-27 -23 -52 -48
q-4 -3 -11 -10q-31 -29 -49 -52q-13 -18 -50 -28l-2 -1q-12 -3 -18 6q-8 8 -4 20q9 40 34 86q4 7 10 23q1 1 1 3t1 3q2 6 -3 14q-8 10 -16 10h-2q-2 -1 -6 -1q-12 -2 -17 -4q-107 -48 -162 -109q-27 -28 -61 -47q-1 -1 -4 -1q-7 0 -14.5 5.5t-7.5 11.5v5q0 15 1 17
q13 31 7 94q-3 25 -18 44q-7 11 -23 11q-2 0 -8 -2q-2 -2 -8 -4q-23 -13 -26 -15q-58 -47 -78 -66q-47 -41 -74 -71q-36 -37 -84 -50q-8 -2 -12 -2q-10 0 -17 7q-8 9 -7 25q0 23 6 46q2 7 6.5 21.5t6.5 21.5q2 4 4.5 12t3.5 12q3 11 -3 22q-6 9 -17 11q-19 3 -57 25
q-46 26 -71 26h-3q-21 -2 -23 -21q-1 -5 -1 -14q-1 -3 -1.5 -8.5t-0.5 -8.5q-10 -77 -59 -141q-62 -80 -175 -86h-13q-32 0 -64 9q-33 10 -52 31q-28 28 -23 61q7 61 32 137q11 30 32 96q2 6 -3 11q-4 7 -11 7q-1 0 -3 -1q-2 0 -4 -1h-3q-37 -9 -81 -33q-75 -41 -87 -115
l-6 -27q-6 -22 -7 -35q-6 -37 -48 -52h-5q-6 0 -8 1q-2 2 -5.5 5t-5.5 4q-8 8 -13 11q-12 6 -19 6q-1 0 -2.5 -0.5t-2.5 -0.5q-33 -9 -67 -21q-52 -18 -122 -34q-9 -3 -29 -7q-9 -3 -20 -3q-7 0 -17 2q-55 11 -66 65q-3 14 -5 42q0 14 -1 20q-2 15 -16 15h-3q-2 0 -5.5 -1
t-5.5 -2q-10 -2 -19 -6q-27 -10 -61 -13q-15 -2 -18 -16q-2 -5 -3.5 -10.5t-3 -12t-2.5 -10.5q-3 -11 -9 -35q-12 -40 -49 -67q-5 -5 -14 -5q-13 0 -18 7l-3 3l-11 14q-27 52 -26 88q0 30 -13 55q-7 12 -14 12q-4 0 -7 -3q-26 -18 -38 -27q-43 -32 -83 -59q-47 -31 -79 -50
q-17 -10 -47 -19l-3 -1q-3 -1 -8 -1q-12 0 -23.5 9t-12.5 20q-6 39 6 69q9 27 21 50q103 204 227 315q5 4 19 10h2q5 0 11 -4q4 -1 6 -9q2 -5 0 -8t-6 -11q-13 -22 -19 -27q-35 -32 -100 -113q-5 -7 -22 -29q-61 -74 -99 -178q-7 -22 0 -40q3 -10 12 -10h2q2 0 2 1q8 0 14 3
q5 3 10 5q26 14 38 22q8 6 41 29q82 57 116 88q8 8 17 14q6 4 7 5q12 9 22 9q22 0 27 -27q7 -34 12 -69q1 -5 2.5 -15.5t2.5 -15.5v-2q4 -26 13 -36q4 -4 7 -5q2 -1 4 -1q8 0 10 9q6 14 11 38q7 31 -5 63q-3 9 -8 19q-3 9 -10 27t-10 27q-4 6 0 17q5 9 20 14q1 1 4 1
q15 0 21 -8l9 -18q8 -16 13 -24q18 -31 57 -31q9 0 13 1q12 2 36 8q2 1 5.5 2t4.5 1q51 12 63 55q1 4 5 12q4 6 5 9q31 78 117 119q8 4 12 5l2 1q10 2 16 2q26 0 43 -23q11 -12 4 -27q-22 -50 -63 -76q-15 -11 -34 -23q-22 -17 -50 -33q-29 -17 -36 -51l-3 -12
q-5 -15 -5 -27q-1 -18 6 -39q9 -30 42 -33q3 0 7.5 -0.5t6.5 -0.5q19 0 42 7q9 4 27.5 10.5t27.5 9.5q90 31 107 37q2 1 6 2.5t5 1.5q32 12 48 12q22 0 29 26q3 7 7 21q2 5 5 15.5t4 15.5q21 54 74 87q53 31 92 38q19 4 31 7l30 6q22 4 39 28q4 6 40 57q29 37 75 67
q8 6 28 8h2q10 0 18.5 -8t9.5 -18q3 -52 -29 -83q-1 -1 -4 -1h-1q-3 0 -3 3q0 20 1 30q0 11 -9 14l-2 1h-3t-5 -2q-1 -1 -5 -3q-14 -10 -20 -16q-68 -71 -95 -152q-1 -3 -3.5 -9.5t-4.5 -9.5q-14 -42 -16 -55q0 -3 6 -9h4q4 0 6 1q14 8 42 22q69 38 93 56q18 14 62 32
q9 4 20 4q16 0 30 -8q6 -4 8 -6q9 -7 12 -8q21 -9 30 -10q19 -1 59 -19q44 -19 66 -19h7q43 0 70 15q14 9 28 9q11 0 21 -14q3 -4 3 -8q-4 -14 -19 -59q-3 -8 -8 -17q-11 -24 -11 -35t4 -16q3 -3 10 -3q4 0 6 1q15 8 26 18q4 2 9.5 7t6.5 6l13 13l87 72q6 5 20 16t20 17
q17 16 46 16h3q31 -2 45 -23q7 -10 19 -34q8 -17 14 -59q0 -1 0.5 -4t1.5 -4q2 -13 17 -13q1 0 5 2q3 1 9 4.5t9 5.5q32 18 42 26q45 32 144 62l6 2q6 2 11 2q27 0 39 -24q4 -7 8 -21q1 -2 2.5 -7t2.5 -8q3 -8 11 -8q2 0 6 2q6 4 34 23t43 30q34 24 77 37q1 0 3.5 0.5
t4.5 0.5q19 0 28 -17q8 -12 9 -21q3 -15 3 -32q1 -4 1 -10l-1 -2v-1q-5 -3 -5 -6t4 -3h2l3 5l1 1l2 1q10 2 17 12q18 28 47.5 55t48 40t59.5 39l3 2q26 16 73 27q3 1 8 2t7 2q8 2 14 2q14 0 36 -11q28 -16 28 -50q-3 -30 -6 -37q-19 -37 5 -85q20 -39 14 -105q-3 -20 -8 -30
q-31 -63 -62 -98q-118 -123 -261 -195q-37 -19 -88 -31zM696 326q-3 -4 -1 -14v-1q0 -2 4 -6q2 0 2 -2l2 -1l1 1q43 20 60 47q2 3 -1 9q-5 5 -8 5h-1q-35 -8 -58 -38zM1506 218q0 3 -2 13q0 2 -1 3q-2 10 -11 17t-19 8q-46 3 -83 -22q-42 -27 -65 -57q-17 -22 -46 -51
q-4 -4 -11.5 -12t-10.5 -12q-18 -20 -26 -29q-5 -7 -4 -15q3 -9 11 -16q2 0 4 -2q19 -9 25 -10q11 -2 33 -4q11 0 17 -1v0q2 0 5.5 0.5t5.5 0.5t14 1t19 2q6 0 16 4q74 27 104 91q19 41 25 91zM2889 328l8 22l-13 -16v0q-23 6 -43 -4q-29 -16 -89 -50q-10 -7 -18 -16
q-28 -35 -53 -68q-16 -23 -16 -45q2 -11 7 -16q4 -4 11 -4q1 0 3 1h2q71 37 140 99q16 14 20 26q3 16 23 46q6 8 16 26z" />
    <glyph glyph-name="net" unicode="net" horiz-adv-x="933" 
d="M364 124q-4 48 34 144q0 1 5.5 8.5t6.5 9t6 8t7 8.5t6.5 7.5t7.5 8t7.5 6.5t8.5 7t9 5q24 11 46 4q12 -4 17 -10q3 -4 19 -36q8 -18 1 -38t-21 -28q-50 -32 -89 -19q-9 5 -14 -9q-9 -42 -4 -88q0 -6 4 -20q2 -10 12.5 -15.5t19.5 -1.5l24 12q34 21 62 42q19 15 56.5 44
t55.5 43q27 22 27 52q2 27 32 29q27 1 52 28q38 42 39 76q0 13 15.5 23.5t29.5 9.5q6 0 12 -6q23 -23 9 -50q-4 -8 -14 -23.5t-14 -23.5q-2 -4 -7 -18q-3 -8 6 -10q6 -3 13 -3q49 0 81 7q15 4 47 8q44 4 66 10q6 1 27 -1q4 0 4 -3q0 -4 -2 -6q-14 -9 -18 -10
q-121 -25 -177 -41q-8 -2 -23.5 -4t-23.5 -4q-27 -9 -34 -30q-30 -97 -37 -144q-2 -15 15 -17q11 0 13 -1q4 -1 6 -10q0 -5 -4 -13q-15 -22 -46 -24q-11 0 -19 7t-9 17q-1 34 6 68q11 38 17 65q2 9 5.5 26.5t5.5 26.5q1 6 -6 11t-14 2q-23 -11 -29 -17q-7 -6 -25 -23.5
t-29 -26.5q-64 -58 -97 -84q-21 -16 -80 -51q-22 -13 -53 -6q-15 5 -19 7q-22 11 -52 -3q-36 -20 -75 -30q-29 -8 -52 8q-13 9 -19 18q-25 41 -26 76q0 4 -6 47q-1 10 -9.5 13.5t-15.5 -2.5q-48 -41 -71 -81q-17 -29 -54 -39q-5 -2 -12 3t-7 11q0 26 2 33q20 101 54 203
q6 16 26 19q8 1 15 -5t7 -14q0 -15 -14 -52q-18 -53 -22 -78q0 -2 4 -6q2 -2 5 0q14 10 21 16q16 15 55 50q10 9 25 -2t21 -26q6 -19 16 -59q3 -12 8.5 -36t8.5 -36q4 -11 15 -22q15 -15 31 -9q9 3 44 17q32 12 38 22.5t4 42.5v6zM489 293q-17 -3 -24 -21q-2 -9 6 -9
q20 -3 26 16q1 4 -3 12q0 1 -2 1q-1 0 -1.5 0.5t-1.5 0.5z" />
    <glyph glyph-name="ter" unicode="ter" horiz-adv-x="1029" 
d="M205 344h24q10 0 38 5.5t43 2.5q14 -3 39 0t34 3q32 -3 62 18q15 12 42 26q28 14 64 9q22 -3 33.5 -23t3.5 -38q-14 -28 -21 -35q-10 -9 -31 -26.5t-31 -26.5q-49 -40 -98 -34q-9 2 -16 -1q-16 -9 -19 -14q-9 -12 -14 -29q-15 -47 -7 -97q0 -2 2 -8q2 -13 17 -22t27 -5
q48 15 82 38q91 59 103 67q54 36 82 54q9 6 27.5 14.5t23.5 11.5q22 10 47 1q6 -2 8 -3q22 -12 44 8q93 82 237 102q13 0 16 -1q4 -1 11 -8l-4 -6q-49 -19 -61 -23q-44 -13 -136 -73q-16 -10 -24 -23q-21 -27 -15 -53q12 -42 16 -55q14 -41 -33 -50q-6 -2 -14 6q-5 4 -9 13
q-3 9 -9.5 33.5t-10.5 37.5q-6 18 -15 37q-5 10 -18.5 15.5t-24.5 1.5q-51 -18 -86 -45q-21 -17 -46 -33t-57 -36.5t-47 -30.5q-46 -29 -114 -43q-17 -3 -36.5 7.5t-23.5 26.5q-7 23 -17 71q-2 6 1 24q18 93 57 144q5 6 13 20q4 10 1 16q-2 8 -12 8q-38 0 -48 -2
q-43 -10 -98 -12q-27 -2 -40 -6q-43 -11 -50.5 -18.5t-20.5 -47.5q-35 -111 -42 -183q-3 -33 3 -56q2 -9 -5.5 -17.5t-18.5 -10.5q-5 -1 -12.5 2.5t-8.5 7.5q-4 16 -5 24q-3 38 7 81q23 105 33 135q5 16 -5 31q-5 8 -39 62q-7 12 2.5 26.5t22.5 15.5q11 0 17 -1q3 0 12 -3
t15 -3t11 5q15 14 21 34q14 48 60 134q4 7 20 26q3 3 11 3.5t12 -1.5q5 -2 8 -9t1 -11q-5 -10 -14.5 -29.5t-14.5 -29.5q-9 -19 -25.5 -55.5t-18.5 -41.5q-4 -10 3 -18.5t18 -9.5q2 0 8 -0.5t8 -0.5h25zM447 281q11 0 15 2q12 7 32.5 21t27.5 19q5 3 11 12q3 7 5 15
q0 2 -3.5 4t-8.5 3t-8 1q-16 -2 -23 -5q-35 -19 -58 -54q-2 -3 4 -14q1 -1 6 -4z" />
    <glyph glyph-name="In" unicode="In" horiz-adv-x="918" 
d="M882 121q0 -7 1.5 -34.5t2.5 -43.5q0 -13 -4 -24q-1 -5 -12 -9q-8 -4 -15 4q-16 17 -19 45q-1 12 -1.5 26t-1 31.5t-0.5 26.5q-1 14 -1 41.5v41.5q0 9 -7.5 12.5t-16.5 -0.5q-33 -15 -73 -55q-63 -61 -124 -124q-15 -15 -47 -34q-3 -2 -9 -4t-7 -2q-6 -2 -15 5t-8 14
q14 63 15 65q13 43 10 99q-2 12 -6 24q-19 50 -67 56q-36 5 -75 3q-58 -3 -75 -54q-21 -65 -78 -147q-63 -88 -144 -124q-35 -16 -81 -11q-18 2 -31 18.5t-11 35.5q3 42 29 86q47 80 139 142q66 43 125 67q39 16 50 62q17 75 5 149q-6 29 -34 45q-29 17 -55 16
q-102 -3 -155 -97q-28 -49 9 -94q20 -23 22 -25q1 -1 2 -4t0 -4q-8 -8 -12 -9q-19 -5 -40 9q-31 21 -42 60q-9 29 -1 57q13 39 44 70q46 49 117 78q58 24 115 3q72 -28 79 -99q9 -71 -6 -133q-4 -13 -4 -33q3 -11 10 -11q13 -2 36.5 -3t30.5 -2q51 -4 95 -28q27 -15 40 -42
q21 -43 19 -97q-2 -10 1 -17q4 -9 10 -10q7 -3 15 3q30 24 44 38q53 55 115 96q14 9 37 20q13 6 27.5 0t21.5 -20q11 -22 11 -49v-106zM60 -12q2 1 8 2t8 2q48 15 92 56q73 70 111 174q2 4 1 8q-2 11 -5 14q-7 6 -14 4q-96 -39 -173 -128q-34 -39 -49 -86q-2 -8 -2 -25
q1 -7 9 -14.5t14 -6.5z" />
    <glyph glyph-name="Form" unicode="Form" horiz-adv-x="1592" 
d="M1398 170q10 1 28 19q36 39 103 85q15 11 44 23q11 4 22.5 -4t13.5 -20q3 -27 -4 -49q-9 -25 -27 -73q-21 -52 -26 -65q-10 -25 -14 -69q-1 -9 -10.5 -12.5t-16.5 1.5q-29 18 -21 48q13 59 34 100q10 19 25 65q1 5 -3 13h-6q-27 -10 -62 -45q-20 -20 -88 -92
q-22 -25 -34 -45q-14 -23 -46 -28q-13 -2 -19 7q-5 10 -5 19q2 11 8 19q10 14 18.5 31.5t13.5 30.5t13 35t12 32q1 2 1 21q-1 7 -7.5 12t-12.5 3q-59 -19 -93 -62q-10 -13 -53 -62t-62 -80q-11 -18 -34 -23q-10 -3 -18 6q-10 10 -6 19q4 12 9 18q15 22 55 107q13 29 15 75
q1 29 -23 43.5t-45 6.5q-86 -35 -116 -106q-32 -74 -40 -113q-2 -14 -4 -21q-7 -21 -30 -26q-10 -2 -17 3t-8 14q-3 16 4 34q16 47 -28 88q-11 10 -23 17q-91 54 -160 70q-5 2 -9.5 -2.5t-3.5 -9.5q3 -12 3 -13q4 -28 4 -42q0 -19 -4 -28q-38 -97 -133 -126
q-17 -5 -34.5 2.5t-25.5 24.5q-14 27 -8 61q13 84 32 130q2 4 -1.5 9.5t-7.5 5.5h-6.5h-8h-6.5q-110 -9 -147 -15q-31 -5 -91 -11q-13 -1 -38.5 -6t-38.5 -6q-40 -4 -52 -48q-18 -72 -27 -109q-10 -42 4 -75q6 -13 -6.5 -25t-26.5 -10q-7 0 -13.5 8.5t-7.5 16.5q-3 46 5 84
q16 74 26 124q3 17 -15 17q-14 -1 -43 -1q-6 0 -11.5 6t-5.5 13q0 19 14 22q7 2 21 4.5t20 3.5t11 8t5 13q0 50 -7 70q-1 3 -2.5 8.5t-2.5 10t-1 8.5q-5 24 2.5 37t30.5 24q40 19 94 27q102 17 126 17q28 7 80 11.5t73 8.5q60 12 141 3q14 -1 25 -11q3 -2 4.5 -9.5
t-0.5 -9.5q-8 -8 -11 -7q-17 4 -105 1q-40 -1 -168 -19q-7 -1 -116 -29q-5 -2 -9 -10q-7 -23 -29.5 -61.5t-25.5 -44.5q-5 -8 -10 -19q-2 -3 3 -9t9 -6h35q27 7 98 11q74 2 105 11q13 3 42 3q33 0 97 12q38 6 59 34q10 13 24.5 13.5t25.5 -10.5q31 -33 119 -72
q40 -18 58 -26.5t48.5 -27t51.5 -38.5q3 -3 9 -1.5t8 5.5q22 38 57 81q25 31 65 53q40 24 88 19q33 -1 55 -28q28 -35 20 -72q-4 -18 -5 -28q-2 -2 3 -6q3 -2 5 0q12 2 29 19q33 36 99 65q3 2 20 7q19 5 34.5 -5.5t17.5 -29.5q1 -11 1 -35v-42q-9 -3 -4 -4q2 4 3 5zM607 183
q2 22 -15 68q-3 7 -10 9.5t-13 -1.5q-41 -22 -57 -69q-16 -52 -17 -82q0 -7 2 -21q1 -8 10.5 -13t16.5 -2q38 17 64 53q22 27 19 58zM104 360q4 11 0 17.5t-12 4.5q-34 -3 -29 -37q2 -11 8 -33q1 -2 5 -4q2 -2 5 2q2 4 23 50z" />
    <glyph glyph-name="in" unicode="in" horiz-adv-x="478" 
d="M461 116q-4 -72 6 -99q2 -3 -1 -6q-4 -8 -7 -10q-8 -5 -19 -2.5t-14 10.5q-13 32 -13 54t-2 62q0 4 -5.5 6.5t-9.5 0.5q-16 -12 -25 -19q-19 -15 -57 -47q-24 -20 -66 -36q-20 -7 -30 14q-7 14 -4 30q12 66 19 98q4 21 0 31q-3 6 -10 5q-2 -1 -5.5 -2.5t-5.5 -2.5
q-20 -17 -101 -74q-24 -16 -37 -23q-23 -13 -54 -10q-7 1 -13.5 7.5t-6.5 13.5v13q16 86 37 158q4 15 18 21t27 -2q7 -4 11 -12t2 -14q-8 -19 -35 -114q0 -1 0.5 -3t1.5 -4.5t1 -3.5q2 -9 16 0q1 1 3 1.5t4 1.5l4 2l60 45q7 5 104 69q1 1 3 1t3 1q4 2 11.5 -0.5t9.5 -6.5
q7 -19 7 -24q0 -41 -8 -74q-4 -14 -9 -42t-6 -31q-1 -1 0 -3t2 -2q7 -4 11 -3q14 8 21 13q33 28 101 84q10 8 20 14q13 8 24.5 1.5t13.5 -19.5q1 -10 1.5 -21.5t1 -25.5t0.5 -21zM242 499q53 1 106 -26q4 -2 2 -6q0 -4 -3 -4q-2 0 -5.5 -1t-6.5 -1.5t-6 -0.5q-29 0 -44 1
q-27 2 -47 -13q-7 -5 -16 -9q-5 -2 -12.5 1t-8.5 8q-3 12 -3 24q0 7 5.5 14t12.5 9l15 2.5t11 1.5z" />
    <glyph glyph-name="hrt" unicode="hrt" horiz-adv-x="1035" 
d="M980 285l57 -3q9 -1 7 -9q-5 -9 -6 -10q-54 -16 -81 -17q-18 0 -31 -4q-35 -12 -38 -15q-5 -7 -14 -33q-5 -16 -16.5 -58t-19.5 -64q-3 -8 -8 -63q-2 -19 -22 -17q-4 0 -8.5 4t-5.5 7q-4 21 6 63q5 18 14.5 55t13.5 56q2 7 4 25q2 16 -14 18q-28 2 -44 -4q-24 -9 -40 9
q-6 6 -17 8q-35 5 -62 -7q-36 -15 -68 -47q-10 -10 -10 -23v-19q-2 -14 -6 -17q-20 -20 -26 -70q0 -2 -2 -6q-5 -16 -25 -16q-11 0 -18.5 7t-5.5 17q3 23 11 69l-4 4q-4 2 -6 0q-30 -12 -51 -26q-32 -25 -97 -60q-23 -13 -61 -15q-8 -1 -17 6.5t-11 15.5q0 2 -1.5 9t-1.5 10
q2 51 9 76q1 5 -4.5 10.5t-10.5 5.5q-17 -2 -30 -10q-92 -62 -100 -68q-38 -27 -79 -42q-2 -2 -12 -4q-8 -2 -18 5.5t-10 15.5q3 56 4 63q6 30 18.5 85.5t14.5 63.5q3 15 13 21q13 9 22 31q12 32 17 48q3 8 10 28.5t12 31.5q19 40 19 79q0 15 18 24q18 7 30 -3
q14 -14 10 -29q-7 -30 -16 -48q-9 -21 -34 -77t-38 -86q-13 -32 -25 -72q-24 -82 -28 -124q0 -1 4 -5q4 -2 6 0q43 28 58 39q48 37 97 60q23 11 60 22q15 7 27 -12q10 -15 10 -29q0 -9 -0.5 -29t-0.5 -29q0 -3 1 -9t1 -9q1 -4 6 -7.5t9 -2.5q35 6 65 24q69 39 115 68
q17 11 39 33q45 40 97 59q25 10 63 8q9 0 12 -2q5 -4 10.5 -6t12 -3t11 -1.5t12 0t11 1t12.5 2t11 1.5q21 3 44 9q6 3 14 12q2 3 6 18q12 50 64 138q5 7 9 8q8 3 18 1q3 0 6.5 -5.5t3.5 -8.5q-3 -17 -3 -19q-16 -30 -18 -34q-26 -54 -29 -63q-8 -19 -2 -28t27 -8h44v2z" />
    <glyph glyph-name="fudieresis" unicode="f&#xfc;" horiz-adv-x="823" 
d="M24 -72q4 127 31 195q6 14 14 42q5 12 -2.5 19t-21.5 4q-42 -8 -76 -25q-14 -6 -21 -6q-13 2 -18 10q-5 12 3 20q21 21 34 27q12 5 63 20q19 6 57 14q20 4 34 26q5 9 14.5 26t14.5 25q31 53 87 109q39 37 84 59q35 16 61 -2.5t29 -51.5q3 -37 -19 -70q-9 -14 -23 -15
q-10 0 -12 7q-1 8 -0.5 12t2.5 12l3 12q1 9 1 29q0 3 -6 8.5t-10 4.5q-23 -3 -28 -5q-48 -25 -108 -98q-1 -2 -28 -43q-6 -15 0 -21q7 -7 21 -5q47 9 190 9q22 0 42 -12q22 -13 21 -36q-2 -20 -7 -35q-9 -26 -29 -76q-2 -7 -4 -21q-2 -6 6 -12.5t14 -4.5q50 20 74 32
q42 20 124 64q41 21 67 -23q4 -6 8 -20q2 -6 6 -17.5t6 -17.5q16 -43 51 -47q5 0 13 -6t8 -11q0 -4 -7 -13q-1 -2 -5 -4q-32 -10 -58 0q-29 11 -42 39q-4 9 -22 63q-2 5 -11 8t-15 0q-18 -9 -55.5 -27.5t-55.5 -27.5q-6 -3 -32 -16.5t-41 -19.5q-15 -7 -42 -9
q-17 -1 -30.5 9.5t-18.5 27.5q-6 22 1 43q5 16 19 48q11 23 23 46q2 6 -2 13.5t-11 9.5q-1 0 -6 2t-8 2q-70 3 -80 1q-57 -8 -88 -10q-15 -1 -43 -7q-33 -6 -43 -36q-4 -10 -14.5 -35.5t-14.5 -39.5q-28 -94 -30 -203v-59q0 -4 -5 -21q-3 -9 -12 -5q-8 2 -11 7q-4 14 -4 21
q-1 12 -2.5 39.5t-3.5 48.5zM643 562q24 3 66.5 -2t57.5 -5q2 -1 16 -6t18 -6.5t15.5 -6t17 -7.5t14.5 -8t16 -10t13 -11q7 -7 5 -13q0 -3 -2.5 -7t-4.5 -4q-19 5 -34 12q-55 26 -113 26q-9 0 -34 1t-39 0q-27 0 -51 -6q-63 -17 -76 -61q0 -1 -3 -7q-2 -4 -9 -6t-10 0
q-9 4 -11 9q-18 43 13 74q31 30 84 40q9 2 51 4z" />
    <glyph glyph-name="eh" unicode="eh" horiz-adv-x="714" 
d="M604 52q-2 62 11 97q4 12 4 29q0 3 -5 13l-7 -2q-13 -12 -39 -38t-39 -38q-61 -61 -95 -81q-22 -12 -33 -17q-10 -5 -20 0t-14 17q-8 22 -9 35v25t-1 26q0 8 -4 22q-2 11 -11 4q-39 -22 -78 -55q-59 -49 -144 -87q-22 -10 -57 -10q-22 0 -40 15.5t-20 37.5q-10 79 15 137
q5 12 6 13q52 74 61 82q25 25 55 35q3 1 22 4q17 1 31 -16t9 -34q-10 -37 -35 -54q-55 -38 -82 -48q-16 -6 -21 -19q-23 -50 -2 -92q4 -7 14 -11t18 -2q40 13 60 26q118 73 153 101l18 12q49 35 58 90q7 48 34 112q42 100 108 155q22 21 47 14q10 -2 15 -13q3 -7 3 -15
q0 -15 -2 -21q-41 -147 -134 -250q-4 -4 -12.5 -13t-12.5 -14q-15 -20 -16 -40v-96q0 -2 8 -10q4 -2 7 1q48 35 90 75q22 20 64.5 60.5t63.5 60.5q4 4 18 11q5 2 14.5 -2.5t9.5 -9.5q2 -23 1 -29q-4 -23 -12 -50q-5 -15 -23 -107q-4 -17 -1 -36q10 -43 40 -46q6 -1 8.5 -7.5
t0.5 -9.5q-6 -8 -11 -9q-25 -9 -50 2q-29 12 -35 44q-2 12 -2 26zM546 477q-13 3 -24 -12q-42 -48 -67 -112q-2 -5 -5.5 -17t-5.5 -17q0 -3 3 -6q5 -7 11 1q37 41 61 90q26 50 26 74q10 5 3 5q-1 -4 -2 -6z" />
    <glyph glyph-name="um" unicode="um" horiz-adv-x="933" 
d="M195 166q-26 -21 -35 -28q-10 -8 -30.5 -24t-30.5 -25q-24 -22 -70 -31q-10 -2 -19 4t-9 16q-2 26 0 39q23 110 62 177q1 2 3.5 5.5t3.5 5.5q5 6 17 7t19 -5q6 -5 8 -14t-2 -15q-4 -8 -7 -12q-31 -38 -52 -125v-6q5 -16 6 -17q2 -4 12 2q40 27 53 38q82 71 113 108l9 9
q11 11 24 2q13 -7 12 -21q0 -13 -3 -19q-3 -10 -13 -30q-17 -33 -29 -106q-1 -3 0 -10t1 -9q1 -7 7 -11t11 -1q2 2 22.5 16t30.5 22q112 87 189 168q5 5 15 13q7 7 18 3t12 -14q2 -12 1 -19q-4 -12 -13 -29q-7 -16 -14 -47t-7 -48q0 -1 5 -11q4 1 6 2q3 1 11 6q10 8 15 13
q20 17 41.5 37t47.5 44t41 37q3 2 8 6.5t7 6.5q15 11 28 -5q20 -23 17 -48q-5 -39 -6 -78q0 -5 2 -5q8 -2 11 1q33 31 99 95q18 18 28 27t23 4.5t17 -19.5q4 -16 4 -26q0 -49 -9 -77q-8 -27 -10 -71q0 -24 12 -43q3 -7 -1 -18q-2 -4 -10.5 -7t-13.5 -1q-33 11 -36 41
q-4 55 5 91q0 2 6 38q0 2 -2 6q-3 6 -10 1q-10 -7 -15 -13l-28 -28l-30 -30t-25.5 -28.5t-25.5 -33.5q-5 -7 -21 -15q-14 -8 -24 -1q-18 12 -12 28q8 25 13.5 74t9.5 66q0 1 -3 13q-5 7 -18 -3l-2 -1l-3 -3q-25 -23 -32 -32q-33 -44 -85 -89q-9 -6 -18 -19q-9 -12 -44 -27
q-4 -2 -12 2t-9 9q-5 15 -5 18q1 19 3.5 56t3.5 54q0 3 -3 5q-2 2 -5 -1q-94 -79 -114 -97q-54 -48 -110 -69q-12 -4 -22.5 3t-11.5 18q-1 8 -1.5 18t-1 22t-0.5 18q0 12 -0.5 36t-0.5 36q1 0 2.5 0.5t2.5 0.5q-2 -2 -4 -3z" />
    <glyph glyph-name="eu" unicode="eu" horiz-adv-x="599" 
d="M260 82v36q0 4 -4.5 6t-8.5 -1q-11 -7 -32.5 -21t-32.5 -21q-47 -33 -106 -53q-17 -6 -35 2t-26 23q-21 38 -13 87q7 30 10 40q25 86 104 133q13 7 29 7q14 -1 24 -10t9 -24q0 -20 -9 -34q-42 -59 -103 -76q-14 -4 -19 -21q-6 -28 -1 -65q1 -13 12.5 -19.5t23.5 -2.5
q5 2 17 6q32 15 73 41q98 59 153 130l17 17q4 3 11 1.5t10 -6.5q9 -12 3 -22q-11 -20 -20 -29q-21 -21 -34 -63q-10 -32 -11 -40q-5 -23 0 -41q2 -9 11 -14t17 -1q39 21 89 60q55 43 99 110q3 4 10.5 3.5t11.5 -4.5q10 -10 7 -21t-8.5 -30.5t-7.5 -27.5q-6 -22 -3 -53
q2 -16 4 -23q12 -35 42 -36q7 0 10 -5.5t0 -10.5q-2 -6 -7 -8q-31 -10 -53 4t-31 41q-2 8 -15 58q-3 7 -10 2q-2 -2 -6 -5t-7 -5.5t-5 -4.5q-39 -38 -133 -90q-16 -8 -33 5q-22 16 -22 40v36h-1zM107 248q1 0 2 1t2 1t1 1v2q-2 -2 -4 -6q-1 -1 -4 -3q2 2 3 4z" />
    <glyph glyph-name="von" unicode="von" horiz-adv-x="942" 
d="M0 121q-2 63 21 128q7 21 26 39q11 11 21 4q15 -12 10 -26q-6 -15 -7 -16q-15 -23 -23 -54q-16 -65 -9 -111q2 -8 3.5 -23.5t2.5 -23.5t9 -15q5 -4 16 -4q4 0 10 6q64 54 88 144q14 51 1 111l-3 18q-1 7 9 13q6 5 17 1q10 -2 17 -15q11 -16 34 -22q40 -8 58 -4
q10 2 28.5 3t24.5 2q10 2 29 4.5t34.5 5t29.5 5.5q6 2 16.5 8.5t14.5 8.5q15 8 27 -6q7 -7 8 -9q12 -30 55 -50q14 -8 54 -23q3 -2 10.5 -4.5t11.5 -3.5q53 -19 53 -70q0 -20 1 -29q0 -3 3 -5q1 0 5 2q4 0 5 3q4 4 51.5 46t72.5 63q10 9 29.5 24.5t25.5 20.5q11 8 22.5 2
t13.5 -18q4 -17 1 -30q-2 -13 -7 -37t-6 -32q-2 -9 -5.5 -26.5t-5.5 -25.5q-10 -39 -7 -82q0 -2 -1 -8t-1 -9q-1 -3 -7 -5.5t-8 -0.5q-10 8 -12 12q-5 10 -7 22q-3 45 5 82q3 14 8.5 43t8.5 44q0 8 -4 11q-1 1 -5 0.5t-5 -1.5q-40 -35 -48 -43q-90 -86 -124 -126
q-19 -21 -57 -28q-4 -1 -10 5t-5 10q2 14 4 17q16 33 25 85q3 21 -16 36q-4 4 -14 10q-24 14 -76 32q-5 1 -11 -3t-7 -9q-2 -48 -11 -75q-27 -76 -101 -111q-1 0 -5 -2q-19 -7 -37 4t-21 31q-2 14 -1 23q5 49 19 80q24 54 35 81q2 5 -1.5 11t-9.5 6h-19q-19 -1 -28 -3
q-64 -15 -128 -2q-4 1 -8 -2.5t-4 -7.5q-1 -6 -2.5 -17.5t-2.5 -17.5q-4 -38 -23 -85q-13 -28 -24 -41q-6 -7 -15 -20t-13 -18q-20 -24 -39 -35q-10 -6 -16 -9q-13 -7 -28.5 -1.5t-21.5 18.5q-16 31 -18 56q-4 44 -6 64zM496 200q0 1 -3.5 15.5t-5.5 22.5q0 1 -9 7
q-2 2 -5 -1q-49 -58 -74 -150q-1 -4 -1 -35q0 -4 1 -6q1 -5 7 -8t11 1q48 30 66 78q11 29 13 76z" />
    <glyph glyph-name="trag" unicode="trag" horiz-adv-x="1189" 
d="M173 232q66 1 180 32q27 7 41 -6t34 -1t62 32q19 10 49 2q22 -6 69 -31q52 -27 108 4q16 9 21 22q3 8 11 15q7 7 17 7q24 -3 37 -21q12 -12 9 -29t-11 -49q-13 -46 -14 -74q-1 -16 -7 -44q-7 -23 11 -54q12 -17 32 -17q17 0 25 3q20 5 60 19q27 10 17 33q-15 29 -4 74
q21 86 100 142q20 14 71 40q22 11 43 -3q3 -2 35 -26q10 -9 4 -23q-2 -7 -5 -12q-18 -23 -12 -73q1 -10 3.5 -28.5t3.5 -27.5q3 -46 -15 -138q-11 -59 -58 -146q-43 -79 -120 -170q-55 -65 -141 -90q-6 -2 -19 0q-1 0 -7 9q-5 8 4 10q60 15 118 70q130 121 174 295
q25 98 14 169q-2 6 -8 8q-7 2 -12 -2q-12 -10 -22 -22q-3 -3 -6 -8t-5 -7q-41 -49 -45 -53q-7 -7 -16.5 -11.5t-22 -8.5t-18.5 -7q-59 -27 -80 -35q-27 -11 -61 -16q-45 -8 -70 33q-8 15 -10 36q-1 10 -1 31t-1 32q0 5 -3 6q-4 0 -5 -1q-46 -49 -52 -56q-13 -16 -48 -26
q-15 -4 -22 6q-8 10 -1 24t20 40.5t19 39.5q7 15 23 45q2 5 -1 8t-10 2q-23 -7 -67 11q-9 3 -26 11.5l-25 12.5q-25 13 -55 0q-35 -15 -62 -42q-31 -30 -37 -71q-5 -46 -1 -82q3 -22 -18 -29q-16 -8 -17 -8q-7 0 -10 5q-27 65 -11 110l18 60q0 3 1 9.5t1 9.5q1 6 -4.5 11.5
t-10.5 4.5q-62 -12 -93 -19q-61 -13 -100 -14q-18 0 -31 -4q-8 -2 -14 -11q-14 -18 -13 -35q1 -14 -5 -37.5t-7 -30.5t-2 -20t-2.5 -23t-4.5 -19q-4 -11 -4 -28v-28q-2 -20 -5 -25q-4 -9 -15 -9q-9 0 -14 10q-8 25 0 69q13 85 20 137q2 13 0 25q0 4 -2 6t-5 1q-4 0 -5 -3
q-10 -23 -13 -28q-3 -4 -10 -4q-2 -2 -5 3q-13 21 -18 53q-1 4 3.5 11.5t8.5 9.5q2 1 6 2.5t6 2.5q5 2 16.5 4.5t20.5 6t16 8.5q14 34 21 52q27 66 40 86q18 29 48 39q15 4 28 -9q6 -6 1 -11q-14 -16 -22 -23q-20 -17 -29 -40q-3 -8 -10.5 -23.5t-12.5 -28t-8 -24.5
q-1 -6 4 -12.5t10 -6.5q7 1 21.5 2.5t21.5 1.5zM1102 272q-1 5 -3 7q-2 4 -4 4q-35 -8 -56 -28q-5 -5 -11 -10.5t-13 -13t-11 -11.5q-34 -31 -39 -96v-6q1 -4 6 -7t9 -2l12 3q48 32 78 81q5 8 6 11q6 24 10 36q2 5 5 10.5t6 12t5 9.5z" />
    <glyph glyph-name="ein" unicode="ein" horiz-adv-x="1025" 
d="M991 2q-19 -3 -34 -2q-46 2 -59 40q-1 2 -4 10.5t-3.5 11.5t-3 10.5t-3 11.5t-2 11t-1.5 11.5t-0.5 11t0.5 12t3 11.5q9 31 4 66q-16 -5 -18 -7q-39 -30 -115 -90q-44 -33 -71 -44q-18 -7 -32 7q-20 20 -10 37q17 32 28 70q5 20 -7 39q-9 16 -24 34q-63 74 -157 125
q-37 19 -53 44q-10 13 -7 26q3 9 11 17q4 4 13 3t14 -5l2 -1l3 -3q17 -28 67 -59q27 -18 79 -58q14 -12 20 -19q7 -8 19.5 -21t22.5 -24.5t19 -21.5q5 -5 13 -15q22 -28 13 -66q0 -2 -6 -16t-4 -22q0 -6 4 -6q27 14 30 16q35 27 103 83q8 7 16.5 15t18.5 18t16 15q8 7 17 11
q11 5 20.5 0t10.5 -17q4 -30 -5 -61q-12 -35 -8 -116q1 -26 20 -51q9 -12 24 -12q7 -1 15 0.5t13 3t14 5t13 4.5q7 0 10 -2q10 -7 0 -17q-3 -4 -7.5 -6t-10 -4t-8.5 -3q-11 -4 -23 -11zM451 164q2 40 2 44q0 15 -4 41q-1 5 -9.5 8.5t-13.5 0.5q-15 -10 -17 -12
q-3 -3 -14 -16.5t-18 -19.5q-79 -77 -196 -145q-37 -20 -72 -27q-24 -5 -44 9t-21 37q-6 56 24 113q14 31 45 25q55 -12 110 31q1 0 41 38q26 26 19 71q-2 14 -17.5 24.5t-29.5 6.5q-30 -6 -46 -16q-12 -8 -35 -23t-35 -23q-17 -13 -24 -24q-8 -12 -23.5 -36t-27.5 -43.5
t-21 -38.5q-30 -59 -22 -134q3 -31 35 -48q4 -2 40 -13q6 -3 14 -1q6 2 24.5 6.5t27 7t22.5 8t25 12.5q91 57 154 108q9 8 28 21.5t22 16.5h7l4 -4q2 -70 5 -103q3 -29 32 -42q10 -5 20 -1q26 12 36 31q2 4 0 9.5t-7 6.5t-14 1q-21 5 -24 21q-6 29 -2 72zM147 278v7
q33 30 54 53q3 3 10.5 6t8.5 3q4 1 11 -1.5t8 -5.5q0 -10 -2 -13q-30 -52 -82 -57q-1 0 -2 1t-3 3.5t-3 3.5z" />
    <glyph glyph-name="ti" unicode="ti" horiz-adv-x="589" 
d="M210 302q2 0 14 1t20 2q29 6 103 16.5t114 19.5q4 1 14 1q18 1 34 -15.5t14 -35.5q-8 -52 -18 -76q-2 -5 -6.5 -16t-7.5 -17q-26 -60 -28 -65q-6 -12 -6.5 -36.5t-2.5 -33.5q-1 -4 -7 -7t-10 -2q-10 2 -17 8.5t-8 13.5q-4 46 9 77q25 66 27 73q6 18 17 61q2 8 -5.5 16
t-15.5 7q-6 0 -14 -2q-75 -5 -182 -28q-11 -2 -48.5 -7t-56.5 -11q-19 -5 -26 -22q-13 -30 -37 -92q-26 -70 -24 -110q0 -7 -5.5 -12t-13.5 -6q-6 -1 -13.5 3.5t-8.5 9.5q0 31 1 35q16 61 33 116q10 37 19 61q1 5 -3 10t-8 5q-6 1 -18 1.5t-21.5 1.5t-17.5 3q-17 3 -25 23
q0 1 -0.5 3.5t-0.5 3.5q-2 11 6.5 20t18.5 8q56 -11 77 -9q20 2 30 16q3 4 7 12q42 74 79 143q2 4 7.5 9.5t5.5 6.5q4 5 13 6t13 -2q5 -4 8.5 -12.5t2.5 -12.5q-8 -18 -9 -20q-48 -79 -54 -91q-4 -7 -10 -20.5t-8 -17.5q-1 -4 3 -9t9 -5h37zM534 529q15 -5 16 -6
q12 -11 36 -33.5t36 -33.5q3 -3 3 -7q0 -7 -3 -13q-4 -9 -12 -4l-17 8.5t-14 7.5q-23 11 -40 12q-27 1 -38 36q-3 12 7.5 23t25.5 10z" />
    <glyph glyph-name="ch" unicode="ch" horiz-adv-x="761" 
d="M643 71q0 32 -1 48q0 9 -6 11q-5 2 -12 -3q-42 -30 -61 -46q-59 -47 -144 -66q-26 -6 -45.5 8.5t-22.5 42.5q-1 9 -2 27.5t-1 27.5q-1 5 -6 7.5t-10 0.5q-62 -34 -73 -40q-90 -49 -143 -68q-37 -14 -82 -9q-12 2 -21 11.5t-9 21.5q0 17 1 20q33 156 182 241q15 7 19 8
q41 12 55 -26q4 -10 -0.5 -21t-13.5 -14q-9 -4 -20 2q-12 8 -26 2q-41 -18 -85 -69q-40 -46 -56 -110v-3.5t-1 -3.5q-1 -6 5.5 -12t12.5 -4q56 16 73 23q109 48 183 97q30 22 35 50q1 3 3.5 9.5t2.5 9.5q13 69 80 168q30 43 88 64q14 6 29 -5.5t13 -26.5q-2 -18 -4 -28
q-30 -98 -102 -170q-24 -25 -55 -53q-17 -16 -19 -44v-62q0 -1 3 -13q1 -5 8.5 -10.5t12.5 -4.5q56 12 101 45q22 16 63 47t53 40q7 7 10 9q7 5 17 3t14 -9q8 -16 9 -26v-62q0 -9 4 -27q1 -3 4.5 -4t6.5 2q8 7 23.5 21.5t16.5 15.5q9 7 18 -4q5 -10 4 -12q-15 -26 -30 -47
q-23 -34 -65 -49q-16 -5 -26 2.5t-10 24.5q-1 0 -1 21l1 21h2zM433 262q12 0 23 13q57 60 84 131l-3 12q-1 1 -3 1t-3 -1q-19 -12 -22 -15q-50 -50 -76 -128q-1 -2 0 -7t1 -7q-4 0 -5 -1t-1 -2q0 -2 -1 -2z" />
    <glyph glyph-name="si" unicode="si" horiz-adv-x="375" 
d="M240 143q-45 0 -78 -12q-14 -4 -17 -20q-3 -25 -11 -73q-4 -21 -25 -29q-26 -8 -39 -9q-20 -3 -44 16t-26 40q-3 35 25 61q8 8 28 20q6 3 22 10t25 11q17 9 21 24q6 22 20 66q12 48 57 90q10 9 24 15q12 6 25.5 2t18.5 -15q12 -24 14 -37q8 -33 -16 -51q-13 -11 -23 -16
q-5 -3 -17 -1q-3 1 -4.5 3.5t0.5 4.5q2 3 10 12t11 14q10 15 1 32q-7 11 -15 5l-16 -16q-37 -55 -46 -103q-1 -4 2 -7t8 -3q23 -1 57 6q34 8 67 -3q37 -11 39 -50q0 -12 -2 -34q0 -4 -2.5 -13.5t-3.5 -14.5q-5 -24 14 -32q3 -1 4 -6.5t-1 -8.5q-7 -11 -24 -15t-27 4
q-5 4 -9 14q-6 14 -1 33q9 24 9 50q0 3 -0.5 9t-0.5 8q-1 6 -7.5 12t-12.5 7h-34zM100 96v5q0 15 -15 10q-28 -9 -40 -35q-4 -7 -2.5 -16.5t6.5 -14.5q10 -9 24 -6.5t18 14.5q9 20 9 43zM390 417q1 0 5 -0.5t6 -1.5q34 -27 51 -52q2 -3 -3 -10q-6 -5 -10 -4q-9 4 -47 16
q-23 9 -18 38q5 14 16 14z" />
    <glyph glyph-name="ck" unicode="ck" horiz-adv-x="592" 
d="M249 35q0 1 0.5 3t0.5 3q2 15 -4 18q-5 3 -19 -4q-5 -3 -22 -12t-26 -13q-39 -19 -76 -32q-27 -11 -68 -4q-14 2 -23.5 13t-10.5 24q-2 19 0 28q16 106 68 170q8 11 29 27q28 21 45 -14q5 -11 -3 -19q-5 -7 -19 -19q-67 -56 -69 -151q0 -8 7.5 -14.5t15.5 -5.5q19 2 27 5
q24 10 72 32l72 33q26 11 34 41q13 46 21 86q18 78 83 140q11 11 32 9q4 -1 7.5 -6.5t1.5 -9.5q-18 -31 -21 -34q-39 -41 -58 -115q-5 -25 -10 -40q-2 -8 5 -12q1 -1 3 -1t3 1q32 18 46 29q43 34 189 125q13 8 61 31q8 4 16.5 0.5t12.5 -11.5q5 -8 1 -20.5t-12 -14.5
q-8 -4 -13 -4q-32 1 -70 -24q-13 -8 -27 -18t-31 -22.5t-26 -19.5q-35 -25 -39 -36.5t2 -48.5q1 -25 13 -53q21 -57 69 -82q6 -3 18 -9.5t18 -10.5q5 -3 9 -10q1 -4 -3 -12q0 -4 -5 -4q-34 1 -71 20q-58 32 -89 102q-6 13 -8 60l-1 7q-12 -2 -13 -3q-35 -27 -65 -70
q-21 -31 -23 -35q-9 -18 -37 -27q-7 -2 -13.5 2t-6.5 11v21z" />
    <glyph glyph-name="rudieresis" unicode="r&#xfc;" horiz-adv-x="602" 
d="M503 64q7 52 11 93q2 2 -3 5q-3 2 -5 0q-30 -20 -43 -31q-57 -47 -151 -86q-21 -9 -47 -6q-6 2 -13 8t-8 12q-8 27 0 54q2 11 8 31.5t7 26.5q2 7 6 23q2 8 -2.5 15t-11.5 8q-45 3 -54 2q-38 -4 -70 -32q-63 -59 -69 -143q0 -8 -1 -24t-1 -24q0 -11 -14 -18q-3 -1 -11 -3
q-13 -5 -22 1.5t-9 20.5q0 17 2 24q6 32 23 119q9 42 22 68q2 5 11 14q10 10 16 3q20 -17 42 0q11 8 37 20q10 5 22 9q72 12 126 -1q2 -1 5.5 -3t5.5 -3q19 -9 15 -29q-4 -16 -7 -23q-16 -42 -24 -62q-7 -18 -5 -42q2 -11 12 -9q31 6 72 32q99 64 131 95q1 2 9 7
q12 9 26 2.5t14 -21.5q2 -33 -1 -60q-1 -10 -8 -47q-9 -51 15 -80q3 -5 0 -11t-9 -8q-14 -4 -27.5 2.5t-15.5 19.5q-1 8 -6 51zM576 366q43 -4 119 2q4 0 9 -7q4 -6 -3 -9q-18 -7 -23 -8q-7 -2 -24 -2q-30 -3 -59 -3q-83 1 -170 -32q-1 0 -11 -3q-14 -4 -24 16
q-2 6 0.5 14.5t8.5 11.5q33 17 69 18q28 0 108 2z" />
    <glyph glyph-name="rend" unicode="rend" horiz-adv-x="1257" 
d="M1137 97v51q0 6 -2 6q-9 0 -12 -3q-17 -14 -50 -43t-50 -43t-51 -38q-19 -12 -49 -7q-8 0 -12 4q-4 6 -10.5 10.5t-11.5 6t-14.5 3.5t-13.5 3q-23 5 -40 29q-12 18 -13 36v34t-1 35q0 6 -2 6q-10 0 -11 -1q-8 -4 -15 -12q-22 -23 -92 -76q-73 -55 -146 -74
q-2 -1 -6.5 -1.5t-6.5 -0.5q-12 -1 -23 8.5t-11 21.5q0 18 3 38q0 2 6 37q0 5 -4 11q-3 2 -6 -1q-44 -34 -149 -84q-7 -3 -21.5 -7.5t-19.5 -6.5q-19 -6 -43 6q-17 10 -20 31q-3 32 4 56q8 32 7 50q-1 4 -5 8.5t-7 4.5q-52 2 -76 2t-60 -19q-29 -18 -40 -55q-1 -2 -9 -44
q-7 -26 -38 -26q-5 0 -11 6.5t-5 10.5q10 68 13 81q9 42 9 100q0 9 2 25q1 9 12 13q8 5 18 -3q14 -10 16 -32q0 -4 0.5 -12.5t1.5 -12.5q0 -3 4 -3q30 7 49 13q33 10 69 4q33 -7 57 -3q27 4 37 20q19 30 51 57q29 23 68 31q9 2 19 0q12 -1 19.5 -13.5t3.5 -24.5t-8 -17
q-22 -29 -45 -43q-6 -4 -19.5 -11t-19.5 -11q-3 -2 -22 -11t-25 -20q-21 -41 -22 -78q-1 -5 0 -14t1 -11q1 -3 6 -7t9 -4q23 3 25 4q48 26 104 59q5 3 15.5 10t16.5 10q41 19 82 69q22 26 32 39q8 9 26 18q8 3 17 -4q8 -7 7 -17q-3 -17 -17 -33q-32 -38 -42 -56
q-13 -24 -15 -41q-1 -8 -5.5 -24.5t-5.5 -24.5q-1 -4 3 -12t17 -3l18 6q143 68 231 163q2 2 14 12q8 5 18 0.5t12 -13.5q4 -21 -2 -63q-4 -30 -5 -44q-3 -20 8 -43q10 -25 37 -31q8 -2 10 5q9 29 27 85q22 71 94 123q21 16 55 9q13 -4 15 -10q6 -10 19 -40q9 -22 30 -3
q12 14 25 37q83 151 118 205q4 7 21 24q5 5 14 1t11 -11q5 -21 -5 -37q-69 -124 -102 -171q-25 -36 -34 -81q-19 -90 -18 -131q1 -49 22 -98q2 -4 -6 -9h-6q-4 2 -5 3q-21 13 -28 33q-18 53 -15 99zM1088 191q0 22 -15 45q-3 8 -10 4q-24 -6 -37 -22q-40 -43 -55 -84
q-6 -18 -9 -37q-1 -2 5 -10q0 -1 2.5 -1t3.5 1q7 2 11 5q36 29 92 76q4 2 4 4q6 13 8 19z" />
    <glyph glyph-name="ebudieresis" unicode="eb&#xfc;" horiz-adv-x="1271" 
d="M90 27q-13 0 -23 2q-41 11 -52 48q-3 11 -6.5 35.5t-7.5 36.5q-3 7 4 18q18 24 22 33q49 101 159 168l12 6q24 7 40.5 -6t14.5 -33q-1 -40 -30 -73q-23 -27 -54 -49q-33 -23 -43 -42q-4 -8 -21 -15q-7 -3 -37 -15q-6 -3 -10.5 -12t-3.5 -17q1 -13 12 -31q9 -13 22 -14
q51 -7 92 10q104 38 157 57q1 0 3 1t3 1q9 5 25.5 12t29 14t21.5 15q9 9 14 19t11 32t6 23q34 108 44 133q33 85 111 148q9 6 29 16q17 6 33 -2q6 -4 8 -10q0 -9 -3 -12q-15 -11 -34 -22q-30 -16 -57 -55q-29 -44 -60 -133q-3 -10 -19 -77q-1 -1 1 -3t3 -1q4 2 13 6t16 6.5
t14 2.5q29 2 42 14q10 10 23 18.5t30 18.5t25 15q13 8 32 4t29 -17q8 -8 15 -22q8 -18 15.5 -20.5t26.5 3.5q66 17 130 30q24 4 52 -6q17 -7 20.5 -23t-3.5 -27q-2 -4 -18 -28q-10 -14 -29 -41.5t-28 -41.5q-7 -12 -12 -24q-3 -4 0 -12t12 -4q16 6 24 10q62 30 155 93
q6 4 22.5 16.5t26.5 18.5q6 4 18 8q8 2 19.5 -4t12.5 -14q2 -12 6.5 -36t6.5 -36q2 -23 5 -34q3 -17 22 -22q6 -1 17 -2.5t16 -2.5q8 -3 5 -11q-5 -10 -7 -10q-30 -8 -46 -9q-30 -2 -45 23q-14 22 -15 44q0 8 -1.5 23.5t-2.5 22.5q-1 4 -6.5 7t-9.5 1q-7 -5 -44 -29t-56 -37
q-57 -41 -136 -72q-24 -9 -52 -7q-11 0 -18.5 8.5t-4.5 17.5q10 38 21 56q60 95 74 112l6 9t5 8q4 6 1 12.5t-10 6.5q-47 -3 -53 -4q-19 -3 -52 -11.5t-45 -11.5q-20 -5 -31 -24q-3 -5 -9.5 -18t-12 -22t-13.5 -16q-31 -51 -118 -107q-39 -25 -65 -33q-28 -9 -51 8l-4.5 4.5
l-5.5 5.5l-4 4q-7 7 -18 2q-4 -2 -25 -9q-10 -4 -18 3.5t-6 17.5l18 78q1 1 0 3t-2 2q-7 4 -12 3q-2 0 -12 -5q-22 -12 -164 -74q-68 -28 -127 -25zM535 149q12 6 13 14q16 0 19 2q19 10 128 71q10 6 6 18q-3 10 -13 13q-13 4 -26 -2q-19 -9 -56.5 -36.5t-49.5 -42.5
q-10 -11 -7 -24q-13 -1 -13 -14q-11 -2 -5 -3q0 2 4 4zM509 188q-3 -1 -9.5 -2.5t-9.5 -2.5q-3 0 -3 -5q0 -11 7 -4q5 5 13 15l4 4q-2 -4 -2 -5zM187 308q-17 0 -19 -2t-16.5 -13t-19 -15.5t-13 -14.5t-13.5 -20q-6 -6 -8 -10t-1 -6t5 -1q2 0 2 6v12q15 -3 25 5q27 24 52 49
q2 2 3 6.5t2 5.5q2 2 3 4q-1 -1 -1 -3t-1 -3zM520 54h8q7 1 11 3q32 14 47 24q68 47 93 102q1 6 -2 13q-1 4 -7 4t-10 -4q-9 -6 -30.5 -22.5t-33.5 -24.5q-35 -24 -70 -61q-3 -3 -13 -23q-3 -6 7 -11zM1216 468q6 0 32 -2q8 -2 5 -10q0 -4 -2 -6l-12 -6q-22 -6 -58 -13
q-40 -9 -47 -41q-2 -8 -12 -8t-15 8q-11 16 -16 29q-4 7 0.5 18.5t12.5 14.5q41 16 71 16h41z" />
    <glyph glyph-name="ebu" unicode="ebu" horiz-adv-x="1268" 
d="M1262 80q8 -3 5 -11q-5 -10 -7 -10q-30 -8 -46 -9q-30 -2 -45 23q-14 22 -15 44q0 8 -1.5 23.5t-2.5 22.5q-1 4 -6.5 7t-9.5 1q-7 -5 -44 -29t-56 -37q-57 -41 -136 -72q-24 -9 -52 -7q-11 0 -18.5 8.5t-4.5 17.5q10 38 21 56q60 95 74 112l6 9t5 8q4 6 1 12.5t-10 6.5
q-47 -3 -53 -4q-19 -3 -52 -11.5t-45 -11.5q-20 -5 -31 -24q-3 -5 -9.5 -18t-12 -22t-13.5 -16q-31 -51 -118 -107q-39 -25 -65 -33q-28 -9 -51 8l-4.5 4.5l-5.5 5.5l-4 4q-7 7 -18 2q-4 -2 -25 -9q-10 -4 -18 3.5t-6 17.5l18 78q1 1 0 3t-2 2q-7 4 -12 3q-2 0 -12 -5
q-22 -12 -164 -74q-68 -28 -127 -25q-13 0 -23 2q-41 11 -52 48q-3 11 -6.5 35.5t-7.5 36.5q-3 7 4 18q18 24 22 33q49 101 159 168l12 6q24 7 40.5 -6t14.5 -33q-1 -40 -30 -73q-23 -27 -54 -49q-33 -23 -43 -42q-4 -8 -21 -15q-7 -3 -37 -15q-6 -3 -10.5 -12t-3.5 -17
q1 -13 12 -31q9 -13 22 -14q51 -7 92 10q104 38 157 57q1 0 3 1t3 1q9 5 25.5 12t29 14t21.5 15q9 9 14 19t11 32t6 23q34 108 44 133q33 85 111 148q9 6 29 16q17 6 33 -2q6 -4 8 -10q0 -9 -3 -12q-15 -11 -34 -22q-30 -16 -57 -55q-29 -44 -60 -133q-3 -10 -19 -77
q-1 -1 1 -3t3 -1q4 2 13 6t16 6.5t14 2.5q29 2 42 14q10 10 23 18.5t30 18.5t25 15q13 8 32 4t29 -17q8 -8 15 -22q8 -18 15.5 -20.5t26.5 3.5q66 17 130 30q24 4 52 -6q17 -7 20.5 -23t-3.5 -27q-2 -4 -18 -28q-10 -14 -29 -41.5t-28 -41.5q-7 -12 -12 -24q-3 -4 0 -12
t12 -4q16 6 24 10q62 30 155 93q6 4 22.5 16.5t26.5 18.5q6 4 18 8q8 2 19.5 -4t12.5 -14q2 -12 6.5 -36t6.5 -36q2 -23 5 -34q3 -17 22 -22q6 -1 17 -2.5t16 -2.5zM97 236v-4q-2 -3 -0.5 -5t5.5 -1q0 1 1 1t3 2q5 6 17 16q4 2 6 4q27 24 52 49q1 1 4 10q-14 0 -17 -2
q-4 -4 -14.5 -12.5t-16.5 -13.5t-13.5 -13t-12.5 -16q-6 -3 -14 -15zM494 174q5 5 11 13q-10 -2 -15 -4q-3 0 -3 -5q0 -11 7 -4zM679 183q1 6 -2 13q-1 4 -7 4t-10 -4q-9 -6 -30.5 -22.5t-33.5 -24.5q-35 -24 -70 -61q-3 -3 -13 -23q-3 -6 7 -11h8q7 1 11 3q32 14 47 24
q68 47 93 102zM695 236q10 6 6 18q-3 10 -13 13q-13 4 -26 -2q-18 -8 -55 -35.5t-50 -42.5q-22 -15 -29 -37q-2 -3 2 -5q3 -3 7 -2q18 9 32 23q21 11 63 34.5t63 35.5z" />
    <glyph glyph-name="bu" unicode="bu" horiz-adv-x="786" 
d="M751 3q-28 3 -41 29q-15 32 -11 59l2 13q2 12 6.5 38.5t6.5 40.5q0 6 -6 14l-1 1q-1 3 -6 3q-3 0 -8 -3q-15 -11 -39 -31q-71 -60 -142 -93q-26 -11 -39 -11q-9 0 -16.5 6t-8.5 14q0 30 1 42q1 9 5 29q1 2 1.5 6.5t0.5 6.5q1 7 -4 16q-7 7 -15 7h-2q-2 -1 -3 -1
q-15 -5 -33 -14q-10 -6 -17 -16q-2 -3 -4 -9q0 -1 -0.5 -2.5t-1.5 -2.5q-34 -75 -100 -103l-1 -1q-27 -20 -92 -30q-6 -2 -20 -4q-2 0 -5.5 -0.5t-4.5 -0.5q-23 0 -47 18q-15 11 -17 26q-1 8 -1 24v10v4l-5 1q-9 0 -20 -11q-12 -12 -43 -14q-7 0 -12 7q-5 6 -3 11
q1 3 3.5 9.5t3.5 9.5t3 7v2q63 169 98 235q30 61 72 104q5 5 15 13l1 1q7 6 16 6q12 0 22 -10q7 -9 6 -17q0 -8 -6 -13l-3 -3l-1 -1q-42 -17 -75 -78q-29 -51 -51 -111q-2 -5 -2 -16q1 -2 1 -5l-1 -6l6 1q4 0 5 1q10 0 17 4q17 15 53 35q3 2 9 5.5t9 5.5q19 10 32 15
q24 9 44 9q39 0 73 -37q2 -2 5 -7t5 -8q6 -10 10 -14q5 -6 15 -6h3q59 18 87 38q13 10 26 17l3 2q12 8 21 0q13 -13 7 -27q0 -1 -1 -3t-3.5 -6.5t-4.5 -8t-4 -6.5q-15 -22 -26 -61q-3 -11 -1 -26v-3q0 -12 12 -12h4q1 1 3 1t3 1q9 2 16 6q62 34 102 67q4 4 13.5 12t14.5 12
q54 44 80 71q1 1 4 1q7 0 13 -6q6 -10 6 -24q0 -44 -18 -104q-15 -48 -12 -94q3 -23 23 -32q2 -1 10 -4q4 -1 10 -3q8 -4 8 -6q1 -1 1 -3t-1 -3q-8 -7 -23 -7q-2 0 -6.5 0.5t-6.5 0.5h-2zM316 120l5 19h-6q-1 0 -2 0.5t-2 0.5t-3 0.5t-4 0.5q-3 0 -4 -1q-14 -4 -20 -6
q-95 -32 -101 -34q-12 -3 -27 -17q-2 -1 -5 -4l-4 -4q-6 -4 -5 -10v-2q0 -9 4 -14q10 -9 24 -9q5 0 7 1q95 15 142 78zM331 204q2 9 -3 16q-14 28 -45 28q-5 0 -15 -2q-51 -13 -87 -39t-71 -75l-6 -8h10h6h4q10 0 17 3q23 10 78 27q6 2 18 5t18 5l27 9q4 2 13 4.5t14 3.5
q7 2 15 8q5 7 7 15z" />
    <glyph glyph-name="fah" unicode="fah" horiz-adv-x="1073" 
d="M1129 95q4 -9 -5 -16q-1 -1 -2.5 -2t-2.5 -2q-4 -2 -160 -83q-19 -11 -46 -11q-6 0 -18 2q-10 1 -17.5 9.5t-9.5 19.5q-4 33 4 71q1 3 2.5 9.5t2.5 11.5t1 9q1 3 -4 10l-5 -1q-12 -7 -36 -23q-23 -15 -69 -47q-15 -9 -41 -9q-12 0 -17 4q-16 11 -39 -1q-12 -6 -70 -34
q-42 -19 -76 -18q-37 0 -54 31q-20 35 -20 62q0 17 -8 20q-3 1 -15 -8q-7 -6 -24 -20.5t-26 -23.5q-33 -32 -74 -37q-17 -2 -26 10q-10 12 -4 22q1 4 3 7.5t5 7.5t4 6q10 14 30.5 41.5t30.5 40.5l1 5q-8 4 -11 3q-4 -1 -11.5 -3.5t-11.5 -3.5q-141 -51 -176 -61
q-18 -6 -24 -24q-15 -46 -45 -169q-2 -9 -4 -29q0 -3 -0.5 -11.5t-1.5 -12.5q-14 -60 -10 -180v-18q0 -5 -4 -8t-8 -2q-9 3 -9 6q-13 85 -12 113q4 49 24 185q3 16 7.5 33.5t10.5 38.5t9 33q1 5 3 17q1 4 -2.5 8.5t-7.5 4.5h-41q-10 1 -15.5 8.5t-3.5 17.5q4 18 21 18
q30 -2 36 -1q30 8 37 13t20 32q33 61 56 99q40 61 92 95q20 11 34 11q32 2 40 -28q19 -61 -15 -108q-7 -10 -23 -28q-5 -4 -16 -6q-4 -1 -11 4q-1 1 -1 2.5t1 2.5q4 7 14 19q21 34 25 61q2 15 -3 23q-1 3 -6 6.5t-8 2.5q-13 -2 -17 -5q-40 -30 -47 -38q-45 -54 -79 -120
q-1 -1 2 -10q2 -2 5 -2q2 0 6 2q145 34 241 91q6 3 22 8q4 1 11 -3t8 -9q1 -12 1 -36q3 -1 16 -1t19 -5q16 -15 10 -45q-5 -30 2 -71q0 -1 0.5 -3t0.5 -3q16 -57 68 -36q17 8 50 17.5t46 14.5q12 4 17 6q21 11 22 28q0 20 4.5 41t12 48.5t10.5 39.5q12 46 46 111
q13 25 41 51q2 2 5.5 3.5t4.5 2.5q12 7 23 -2t8 -21q-6 -25 -24 -41q-32 -26 -55 -91q-4 -11 -7.5 -23.5t-7.5 -28t-6 -23.5q-9 -32 -4 -66q2 -8 9 -5q17 7 21 10q24 16 35 24q45 34 93 66q12 7 34 25q11 6 23 -2q10 -8 6 -22q-4 -12 -6 -17q-8 -13 -10 -15
q-33 -43 -46 -129q-1 -7 5.5 -13.5t13.5 -5.5q16 2 51 17q70 32 137 64q4 2 9 0t6 -5zM443 179q6 9 3 21q-29 -10 -46 -45q0 -1 -0.5 -1t-0.5 -1q-3 -3 -7 -10.5t-5 -8.5v-2q-3 -4 3 -5l3 1q2 3 17 15q2 0 4 2q4 4 29 34z" />
    <glyph glyph-name="ots" unicode="ots" horiz-adv-x="1003" 
d="M571 378q-2 -1 -12 -3t-14 -5q-103 -62 -232 -126q-17 -8 -53 -22q-22 -8 -30 -27q-26 -71 -103 -143q-26 -24 -62 -35q-19 -6 -41 4q-20 11 -21 27q-6 78 8 113q5 14 15.5 43.5t16.5 43.5q15 33 48 51q9 5 19 2t16 -14q4 -8 1 -13q-3 -7 -12 -18q-27 -27 -50 -85
q-14 -35 -9 -92l3 -6q3 -8 11 -6q1 0 3.5 0.5t3.5 1.5q80 43 107 128q5 15 -5 26q-14 12 -16 14q-22 25 -23 54.5t20 55.5q14 18 34.5 15.5t29.5 -22.5q3 -7 7 -21q3 -9 13 -40q2 -5 8 -7.5t10 -0.5q127 52 175 80l75 42q67 35 121 86q7 7 23 17q8 5 20 -2q8 -5 8 -18
q0 -18 -13 -40l-27 -42q-33 -54 -43 -97q-1 -4 2 -10t8 -7q1 0 3.5 -0.5t3.5 -0.5q71 -10 135 6q6 1 33 9t42 10q49 8 85 35q11 7 24.5 0t15.5 -18q22 -107 7 -162q-1 -2 -18 -98q-6 -33 -34 -53q-50 -34 -107 -37q-36 -3 -54 28q-3 5 -3 20q1 5 6 9t9 2l3 -1q3 -1 4 -2
q30 -30 85 -3q43 22 47 68q10 80 14 120q2 32 -12 55q-4 7 -12 7q-5 0 -20 -5q-114 -29 -188 -40q-17 -2 -46.5 -3t-39.5 -2q-16 0 -21 -15q-34 -98 -28 -168q1 -11 -9 -20t-24 -11q-7 0 -14 5.5t-7 10.5v21q11 41 -1 85q-5 17 -14 77q-5 37 -14 62q-6 16 7 28t31 7
q4 -1 16 -5t18 -5q11 -2 18 9q7 17 19 53q1 3 1 7q0 3 -1 8t-1 7q1 1 5 3q-2 -1 -4 -5zM521 214q1 2 2 6t2 6l-1 2l-3 3q-2 -4 -4 -12q0 -1 2 -2q1 -2 2 -3z" />
    <glyph glyph-name="ot" unicode="ot" horiz-adv-x="764" 
d="M771 248q-3 -2 -9 -4q-43 -9 -82 -15q-17 -2 -46.5 -3t-39.5 -2q-16 0 -21 -15q-34 -98 -28 -168q1 -11 -9 -20t-24 -11q-7 0 -14 5.5t-7 10.5v21q11 41 -1 85q-5 17 -14 77q-5 37 -14 62q-6 16 7 28t31 7q4 -1 16 -5t18 -5q11 -2 18 9q7 17 19 53q1 3 1 7q0 2 -0.5 6.5
t-1.5 6.5q-3 -1 -12 -3.5t-13 -4.5q-103 -62 -232 -126q-17 -8 -53 -22q-22 -8 -30 -27q-26 -71 -103 -143q-26 -24 -62 -35q-19 -6 -41 4q-20 11 -21 27q-6 78 8 113q5 14 15.5 43.5t16.5 43.5q15 33 48 51q9 5 19 2t16 -14q4 -8 1 -13q-3 -7 -12 -18q-27 -27 -50 -85
q-14 -35 -9 -92l3 -6q3 -8 11 -6q1 0 3.5 0.5t3.5 1.5q80 43 107 128q5 15 -5 26q-14 12 -16 14q-22 25 -23 54.5t20 55.5q14 18 34.5 15.5t29.5 -22.5q3 -7 7 -21q3 -9 13 -40q2 -5 8 -7.5t10 -0.5q127 52 175 80l75 42q67 35 121 86q7 7 23 17q8 5 20 -2q8 -5 8 -18
q0 -18 -13 -40l-27 -42q-33 -54 -43 -97q-1 -4 2 -10t8 -7q1 0 3.5 -0.5t3.5 -0.5q71 -10 135 6q20 6 30 8q23 5 27 -8v-1q0 -6 -1 -9l-15 -15q-2 -1 -10 -5.5t-13 -6.5zM525 226l-1 2l-3 3q-2 -4 -4 -12q0 -1 2 -2q1 -2 2 -3q1 2 2 6t2 6z" />
    <glyph glyph-name="Hodieresis" unicode="H&#xf6;" horiz-adv-x="668" 
d="M658 280q24 -52 0 -110q-19 -46 -51 -76q-3 -4 -10 -10.5t-11 -9.5q-21 -18 -41 -38q-16 -16 -52 -30q-1 0 -3.5 -1t-3.5 -2q-8 -2 -15 -2h-7q-3 0 -4 1q-18 0 -30 16q-13 20 -13 37q-2 36 -2 56q-1 7 -1 22l-1 6h3q0 6 -1 10q0 33 -1 50q-2 2 -4 2h-2q-5 0 -7 -1
q-12 -4 -37.5 -11t-38.5 -10l-24 -7h-1h-3q-17 0 -25 -9.5t-13 -30.5q-19 -89 -20 -129q0 -14 -17 -23q-6 -3 -12 -3q-10 0 -17 7q-6 6 -6 15v1q1 4 1 12t1 12l21 105l5 25q0 2 -1 3q-2 2 -4 2q-51 2 -97 12q-20 5 -34 16q-5 1 -6 -3q-4 -8 -5 -12q-8 -18 -12 -32
q-3 -15 -13 -71q-2 -12 -3 -17v-4l1 -1q3 -3 8 -3h4h2q6 0 8 -2q8 -5 8 -15q-2 -17 -17 -23q-7 -4 -18 -6q-1 -1 -5 -1q-18 0 -26 15q-13 27 -9 57q13 76 26 112q34 90 73 166q7 14 8 17l11 22q11 21 17 31q9 18 16 27q10 14 24 14q10 0 20 -8q15 -10 8 -22q-3 -6 -11 -18
q-16 -29 -32 -55q-19 -30 -52 -94l-2 -6q-1 0 -1 -2t-1 -3q0 -7 3 -10q40 -23 70 -23h18h13h1q17 0 22 4t10 21l2 6q15 46 21 74q11 54 50 131q2 4 10 12q0 1 1 1t2 1q6 6 14 6q5 0 8 -1q9 -1 15 -11q4 -9 1 -14q-8 -18 -11 -26q-9 -19 -19 -46q-29 -72 -43 -137q-1 -3 1 -5
q1 -3 7 -3h6q7 0 11 1l11 3q66 16 88 22q12 4 30 16q9 5 11 15q1 14 19 28q37 27 89 25q37 0 59 -20q1 -2 3 -3.5t5 -3t4 -2.5t3.5 -2.5t3.5 -2.5q11 -8 19 -26zM490 232q-1 -6 -5 -11q-7 -17 -8 -21q-2 -12 -5 -34t-4 -28q-2 -14 -3 -20q-2 -32 11 -62q0 -3 7 -3q2 0 6 2
q59 33 105 93q16 21 30 53l2 4q12 23 3 48q-1 1 -1 2.5t-1 2.5q-4 12 -6 17q-5 8 -10 12q-22 17 -46 15q-32 -3 -55 -16q-22 -12 -17 -27q3 -11 -3 -27zM602 503q0 -25 10 -45q4 -7 0 -14.5t-12 -9.5q-20 -2 -29 -1q-9 0 -14 9q-5 8 -9 28q-7 27 19 39q4 2 12.5 4t10.5 2
l-1 1l14 -14zM590 515v17q1 14 13 18.5t22 0.5l6 -3q15 -14 47 -44q4 -4 2 -11t-7 -9q-13 -7 -23 -2l-48 21l1 -1l-14 14z" />
    <glyph glyph-name="Ho" unicode="Ho" horiz-adv-x="677" 
d="M658 280q24 -52 0 -110q-19 -46 -51 -76q-3 -4 -10 -10.5t-11 -9.5q-21 -18 -41 -38q-16 -16 -52 -30q-1 0 -3.5 -1t-3.5 -2q-8 -2 -15 -2h-7q-3 0 -4 1q-18 0 -30 16q-13 20 -13 37q-2 36 -2 56q-1 7 -1 22l-1 6h3q0 6 -1 10q0 33 -1 50q-2 2 -4 2h-2q-5 0 -7 -1
q-12 -4 -37.5 -11t-38.5 -10l-24 -7h-1h-3q-17 0 -25 -9.5t-13 -30.5q-19 -89 -20 -129q0 -14 -17 -23q-6 -3 -12 -3q-10 0 -17 7q-6 6 -6 15v1q1 4 1 12t1 12l21 105l5 25q0 2 -1 3q-2 2 -4 2q-51 2 -97 12q-20 5 -34 16q-5 1 -6 -3q-4 -8 -5 -12q-8 -18 -12 -32
q-3 -15 -13 -71q-2 -12 -3 -17v-4l1 -1q3 -3 8 -3h4h2q6 0 8 -2q8 -5 8 -15q-2 -17 -17 -23q-7 -4 -18 -6q-1 -1 -5 -1q-18 0 -26 15q-13 27 -9 57q13 76 26 112q34 90 73 166q7 14 8 17l11 22q11 21 17 31q9 18 16 27q10 14 24 14q10 0 20 -8q15 -10 8 -22q-3 -6 -11 -18
q-16 -29 -32 -55q-19 -30 -52 -94l-2 -6q-1 0 -1 -2t-1 -3q0 -7 3 -10q40 -23 70 -23h18h13h1q17 0 22 4t10 21l2 6q15 46 21 74q11 54 50 131q2 4 10 12q0 1 1 1t2 1q6 6 14 6q5 0 8 -1q9 -1 15 -11q4 -9 1 -14q-8 -18 -11 -26q-9 -19 -19 -46q-29 -72 -43 -137q-1 -3 1 -5
q1 -3 7 -3h6q7 0 11 1l11 3q66 16 88 22q12 4 30 16q9 5 11 15q1 14 19 28q37 27 89 25q37 0 59 -20q1 -2 3 -3.5t5 -3t4 -2.5t3.5 -2.5t3.5 -2.5q11 -8 19 -26zM490 232q-1 -6 -5 -11q-7 -17 -8 -21q-2 -12 -5 -34t-4 -28q-2 -14 -3 -20q-2 -32 11 -62q0 -3 7 -3q2 0 6 2
q59 33 105 93q16 21 30 53l2 4q12 23 3 48q-1 1 -1 2.5t-1 2.5q-4 12 -6 17q-5 8 -10 12q-22 17 -46 15q-32 -3 -55 -16q-22 -12 -17 -27q3 -11 -3 -27z" />
    <glyph glyph-name="un" unicode="un" horiz-adv-x="756" 
d="M743 183q0 -44 -19 -116q-14 -58 -14 -87q0 -7 -5 -10q-4 -6 -9 -6q-8 0 -10 5q-7 12 -7 22q-5 52 5 94q4 19 8.5 53t6.5 46q4 16 -5 20q-7 4 -22 -5q-12 -8 -18 -14q-43 -40 -72 -92q-8 -14 -53 -79q-15 -22 -42 -31q-5 -2 -11.5 2t-6.5 9q-8 42 -10 64q-1 17 -2.5 50
t-2.5 50l-2 5q-10 0 -11 -1l-25 -25l-29 -29l-25 -25q-63 -65 -80 -79q-8 -7 -18 -4.5t-16 13.5q0 1 -1 2.5t-2 2.5q-10 38 -11 58q-2 37 -8 111q-1 2 -8 7q-2 2 -5 0q-10 -8 -14 -12q-12 -13 -34.5 -36t-40.5 -42.5t-33 -38.5q-20 -26 -58 -39q-6 -2 -14 1t-11 9
q-10 13 -8 28q17 121 54 185q10 19 34 55q8 11 21 7q13 -5 17 -16q3 -9 3 -11q0 -31 -10 -52q-3 -7 -9 -21.5t-9 -21.5q-12 -30 -34 -38q-10 -3 -14 -19q-4 -25 -5 -40q-2 -5 2 -5q9 0 10 1q13 11 25 23.5t28.5 32t22.5 26.5q47 51 68 73q6 6 9 8q17 13 30.5 8t18.5 -25
q4 -18 4 -53q-2 -56 6 -112q0 -6 6 -8q7 -2 11 1q7 4 14 11q6 7 18.5 19.5l18.5 18.5q16 18 34 36t43.5 42t35.5 34q9 6 10 7q7 5 16 0.5t11 -13.5q2 -12 2 -17v-36q0 -42 13 -87q1 -3 3 -4q7 0 10 3q12 18 38 45.5t35 39.5q4 5 16.5 18.5t18.5 21.5q21 27 65 50
q14 7 30.5 -1.5t18.5 -25.5q1 -8 2 -24t1 -17z" />
    <glyph glyph-name="Fern" unicode="Fern" horiz-adv-x="1360" 
d="M503 495q50 -5 56 -6q2 0 15 -11q6 -5 1 -12q-11 -15 -23 -10q-9 3 -18.5 3.5t-22 -1t-18.5 -1.5q-24 0 -50.5 -4t-58 -10.5t-49.5 -9.5q-17 -3 -70 -19q-10 -3 -16 -11q-45 -56 -103 -148q-1 -2 -2.5 -6t-2.5 -6q-2 -5 0 -10t7 -5q42 0 46 1q20 5 106 10q18 2 27 2
q43 -2 70 32q6 8 21 21.5t21 20.5q31 32 104 57q10 3 33 1q22 -2 24 -28q0 -26 -16 -42q-27 -29 -57 -45q-78 -42 -115 -53q-21 -5 -30 -33q-9 -32 1 -51q8 -14 20 -15q22 -4 52 7q96 32 171 75q53 31 89 45q18 5 32 23q41 54 128 63q10 1 93 1q25 1 65 -14q55 -23 58 -82
q0 -6 -0.5 -12.5t-1.5 -14.5t-1 -12t4 -6t6 0q103 63 132 78q81 38 91 41q8 3 19 -4q24 -17 16 -40q-14 -42 -22 -63q-35 -85 -41 -153q0 -4 -8 -9q-3 -2 -9.5 0t-8.5 5q-18 32 -11 58q11 57 32 101q16 32 16 44q0 5 -4 9t-8 3q-22 -2 -48 -21q-86 -56 -147 -105
q-6 -5 -20 -17q-19 -18 -50 -13q-8 1 -13.5 8t-3.5 15q12 34 19 50q12 29 9 65q-2 22 -22 31q-51 23 -83 19h-13q-56 4 -114 -31q-20 -13 -28 -36q-8 -26 -8 -39q1 -19 -4.5 -52.5t-6.5 -40.5q-2 -26 -32 -48q-9 -6 -19 -2t-12 14q-4 12 -4 19q0 39 9 66q2 6 3 17.5t2 15.5
q1 8 -4.5 12.5t-12.5 1.5l-102 -48q-98 -49 -173 -69q-30 -7 -55 10t-28 47q-4 34 11 85q0 7 -7 9q-33 6 -66 -2q-31 -8 -79 -12q-32 -3 -58 -16q-20 -9 -26 -28q-15 -55 -19 -64q-13 -33 12 -53q4 -3 3.5 -11t-5.5 -13q-16 -18 -36 -10q-9 3 -15.5 11.5t-6.5 18.5
q2 28 4 40q4 19 20 77q1 5 -3 9.5t-8 4.5q-22 -4 -33 -4q-7 -1 -13.5 6.5t-5.5 15.5q2 25 24 28q12 2 40 4q17 4 22 14q14 33 48 88.5t44 73.5q5 7 -6 9q-14 2 -52 -9q-4 -1 -31 -12q-16 -7 -28.5 3.5t-10.5 26.5q2 10 10 17q12 9 24 10q67 14 85 15q26 1 132 18
q20 4 64 9.5t68 10.5q8 1 70 7zM491 294q17 0 26 13l6 3q1 0 1 3q-5 0 -5 -8h-13q-13 -4 -13 -13q-4 0 -12 -2q-11 0 -4 -5q2 -2 5 1q2 1 9 8z" />
    <glyph glyph-name="ert" unicode="ert" horiz-adv-x="1043" 
d="M745 63q3 20 7 66q5 31 6 59q1 13 -13 19q-12 6 -16 11q-5 3 -3 11q3 18 18 25q3 2 9.5 4t9.5 3q15 7 17 18q4 10 7.5 21.5t7.5 25.5t6 22q2 7 -4 10q-4 2 -6 0q-94 -64 -140 -96l-27 -18q-26 -12 -70.5 -42t-51.5 -34q-8 -4 -37 -26q-27 -22 -32 -62q-1 -10 -1.5 -29.5
t-1.5 -29.5q-1 -27 -31 -46q-6 -4 -12 2q-12 12 -14 21q-2 7 -4.5 20.5t-3.5 17.5q-7 40 -13 64q-2 10 -12 14.5t-19 -0.5q-32 -14 -47 -23q-17 -8 -48.5 -26.5t-48.5 -27.5q-13 -8 -52 -26q-39 -17 -83 -1q-19 7 -29 25q-19 31 -11 69q20 94 75 150q44 44 97 64q22 9 44 -2
q20 -9 25 -29t-8 -37q-4 -5 -13 -14t-13 -14q-20 -25 -51 -40q-3 -1 -11.5 -6t-11.5 -5t-13 1q-5 2 -8.5 5.5t-7.5 9.5t-6 8q-3 6 -11 1q-4 -2 -5 -4q-36 -45 -33 -103q0 -7 4 -19q2 -9 11 -16t18 -7q26 2 38 6q26 8 54 23q16 9 113 65q27 17 34 20q26 14 48 -5
q11 -11 15 -13q6 -2 12 1q3 1 10 8q27 30 95 68q12 7 41.5 22t44.5 24q135 75 252 174q3 2 8 5.5t8 5.5q11 5 18 -4q6 -6 6 -11q-3 -18 -19 -55q-16 -42 -34 -92q-2 -6 2 -11.5t11 -5.5q56 -2 84 -2q44 0 65 -7q4 -1 8 -9q2 -2 0 -5t-6 -3q-84 -12 -103 -14q-12 -1 -32.5 -5
t-25.5 -5q-27 -4 -32 -36l-6 -45q-13 -43 3 -76q3 -8 1 -20q0 -20 -20 -30q-7 -4 -16.5 0t-10.5 11q-4 26 -5 37zM117 233q33 -5 54 16l13 13q3 3 1 5q-8 5 -11 4q-43 -16 -55 -40q-3 -1 -4 -4q0 2 2 6z" />
    <glyph glyph-name="ali" unicode="ali" horiz-adv-x="888" 
d="M180 79q-1 20 11 90q0 4 -4 6q-1 1 -3 1t-3 -1l-39 -30q-23 -20 -66 -63q-20 -20 -57 -22q-8 0 -14 8t-4 17l1 5q1 6 2 8q62 149 189 248q10 7 30 19q14 9 27 3.5t17 -20.5q9 -28 7 -48q-9 -75 -21 -102q-27 -57 -27 -108q0 -10 4 -28q2 -8 10 -5q26 10 37 19l144 111
l7.5 7.5t8.5 7.5q39 30 54 87q8 34 28 87q33 93 135 145q18 7 32 -8q15 -17 10 -31q-3 -13 -11 -26q-75 -118 -112 -161l-27 -33q-48 -59 -27 -145q6 -27 37 -25q26 2 48 11q99 40 141 61q46 24 71 30q15 3 28.5 -10t9.5 -29q-3 -12 -9 -26q-8 -18 -23 -51.5t-17 -37.5
q-7 -15 3 -34q7 -11 0.5 -21t-21.5 -13q-22 -4 -33.5 10.5t-5.5 31.5q6 16 19.5 44.5t17.5 38.5q9 21 11 26q4 7 -4 12q-4 2 -6 2q-2 -1 -9.5 -2t-10.5 -3l-141 -63q-39 -16 -88 -21q-22 -2 -39.5 9.5t-25.5 33.5q-4 11 -6 32.5t-4 29.5q-1 5 -6 7t-10 -1q-2 -2 -13 -9
t-16 -11q-72 -60 -109 -89q-16 -13 -52 -35q-4 -2 -33 -10q-11 -3 -23.5 5.5t-13.5 19.5q-1 7 -2 15.5t-2 18.5t-2 15zM632 446q-9 -2 -12 -5q-43 -35 -56 -84q-1 -2 1.5 -6.5t2.5 -5.5q5 3 6 4q27 36 55 79q2 3 2 10.5v9.5q4 2 5 4q-1 0 -4 -6zM127 193q48 42 95 80
q4 3 8 11q3 6 3 13q0 3 -3 4.5t-7.5 1.5t-7.5 -2q-68 -44 -105 -108v-6q4 1 12 1zM975 484l3 -21q0 -10 -13 -14q-11 -3 -19 3q-6 5 -9 10q-15 35 -18 44q-4 10 3 21t19 16q6 2 15 -0.5t10 -6.5q7 -14 12 -32q0 -3 -0.5 -6t-1.5 -7.5t-1 -6.5z" />
    <glyph glyph-name="aktu" unicode="aktu" horiz-adv-x="1585" 
d="M648 88q35 -4 95 18q107 39 194 95q7 5 17 13q20 18 21 34q5 42 37 55q19 7 32 35q1 3 7.5 20t10.5 26q25 58 83 101q3 2 9.5 3t9.5 -2q9 -11 10 -18q3 -22 -7 -40t-30.5 -54.5t-30.5 -55.5q-2 -3 1 -9t8 -8q79 -18 110 -16q11 1 34 -1q13 -2 20 -13t3 -23
q-6 -20 -19.5 -57.5t-18.5 -54.5q-2 -7 0 -21q3 -9 10 -7q18 4 26 9q155 88 236 172q3 3 11 7q5 4 13 3t13 -6q9 -7 7 -19q-3 -11 -11 -33q-36 -80 -49 -123q-4 -11 -5 -20q-2 -12 5.5 -23t19.5 -14q4 -1 10.5 -2.5t12 -3t10.5 -3.5q4 -1 4.5 -8.5t-2.5 -9.5q-16 -8 -19 -8
q-6 -1 -18 1.5t-16 2.5q-25 2 -39 21.5t-15 41.5q0 23 1 28q1 8 3 17t5 20t4 17q0 4 -4 6q-2 2 -6 0q-20 -12 -29 -19q-40 -32 -128 -84q-17 -9 -32 -14q-13 -6 -41 -6q-23 2 -30 25q-6 18 -2 35q3 13 10 37.5t10 36.5q2 9 4 27q1 6 -4.5 13t-10.5 8q-14 2 -21 2
q-65 2 -97 9q-13 2 -17 -8q-15 -38 -15 -40q-1 -5 -19.5 -72t-23.5 -103q-1 -12 -12.5 -17.5t-26.5 -2.5q-5 1 -9 5.5t-3 8.5q5 18 7.5 39t4 46t3.5 39t-1 18t-20 13q-8 5 -11 -2q-9 -20 -22 -27q-139 -83 -264 -104q-23 -11 -67 8q-36 16 -65 51q-8 10 -4 23.5t15 17.5l6 3
q31 1 74 36q31 27 85 101q2 3 7 20q0 3 -4 5t-6 2q-49 -16 -90 -52q-74 -63 -101 -95q-40 -46 -56 -72q-26 -43 -77 -54q-21 -4 -52 -19q-24 -12 -67 -19q-15 -2 -30 5.5t-23 20.5q-13 21 -17 67q0 3 -5 13q0 1 -5 1q-28 -15 -58 -38q-25 -20 -55 -31q-14 -3 -28 -3
q-15 -1 -23.5 13.5t-2.5 25.5q56 114 101 158q47 45 99 63q23 8 41 -3q28 -16 41 -25q12 -10 9 -25q-1 -4 -2.5 -11t-2.5 -10q-1 -4 -3.5 -10.5t-4 -12t-1.5 -10.5q-3 -30 -27 -46q-9 -6 -12 -17q-12 -36 -2 -68q1 -5 8 -11t12 -5q34 6 86 28q7 3 13 16q7 13 8 26
q10 52 54 158q2 3 11.5 25t14.5 33q49 97 137 174q8 7 24 15q14 8 34 3q5 -2 9 -9q5 -7 -2 -12q-43 -31 -92 -85q-19 -20 -36 -51q-43 -80 -83 -184l3 -12l6 3q114 100 116 101q75 62 127 86q12 6 19 9q14 6 28.5 -4t16.5 -26q2 -24 -6 -41q-14 -33 -36 -59
q-55 -68 -101 -105q-9 -8 -7 -18.5t12 -15.5q12 -5 13 -5q11 -3 21 -3zM226 235q1 3 -5 7t-10 3q-35 -7 -67 -34q-29 -26 -64 -88q-2 -4 -2 -12q0 -2 3 -2t7.5 1.5t8.5 3.5q12 9 35.5 27t35.5 27q36 29 53 54q1 1 1.5 3t1.5 5t2 5z" />
    <glyph glyph-name="akt" unicode="akt" horiz-adv-x="1265" 
d="M1193 241q-2 0 -7.5 0.5t-8.5 0.5q-65 2 -97 9q-13 2 -17 -8q-15 -38 -15 -40q-1 -5 -19.5 -72t-23.5 -103q-1 -12 -12.5 -17.5t-26.5 -2.5q-5 1 -9 5.5t-3 8.5q5 18 7.5 39t4 46t3.5 39t-1 18t-20 13q-8 5 -11 -2q-9 -20 -22 -27q-139 -83 -264 -104q-23 -11 -67 8
q-36 16 -65 51q-8 10 -4 23.5t15 17.5l6 3q31 1 74 36q31 27 85 101q2 3 7 20q0 3 -4 5t-6 2q-49 -16 -90 -52q-74 -63 -101 -95q-40 -46 -56 -72q-26 -43 -77 -54q-21 -4 -52 -19q-24 -12 -67 -19q-15 -2 -30 5.5t-23 20.5q-13 21 -17 67q0 3 -5 13q0 1 -5 1
q-28 -15 -58 -38q-25 -20 -55 -31q-14 -3 -28 -3q-15 -1 -23.5 13.5t-2.5 25.5q56 114 101 158q47 45 99 63q23 8 41 -3q28 -16 41 -25q12 -10 9 -25q-1 -4 -2.5 -11t-2.5 -10q-1 -4 -3.5 -10.5t-4 -12t-1.5 -10.5q-3 -30 -27 -46q-9 -6 -12 -17q-12 -36 -2 -68q1 -5 8 -11
t12 -5q34 6 86 28q7 3 13 16q7 13 8 26q10 52 54 158q2 3 11.5 25t14.5 33q49 97 137 174q8 7 24 15q14 8 34 3q5 -2 9 -9q5 -7 -2 -12q-43 -31 -92 -85q-19 -20 -36 -51q-43 -80 -83 -184l3 -12l6 3q114 100 116 101q75 62 127 86q12 6 19 9q14 6 28.5 -4t16.5 -26
q2 -24 -6 -41q-14 -33 -36 -59q-55 -68 -101 -105q-9 -8 -7 -18.5t12 -15.5q12 -5 13 -5q11 -3 21 -3q35 -4 95 18q107 39 194 95q7 5 17 13q20 18 21 34q5 42 37 55q19 7 32 35q1 3 7.5 20t10.5 26q25 58 83 101q3 2 9.5 3t9.5 -2q9 -11 10 -18q3 -22 -7 -40t-30.5 -54.5
t-30.5 -55.5q-2 -3 1 -9t8 -8q42 -10 63 -13q6 -2 22 -4q21 0 37 -4q19 -6 25 -13q3 -2 3 -8q1 -2 -1 -6v-1h-1l-1 -1l-2 -2q-4 -3 -8 -4q-5 -2 -21 -4q-19 -1 -38 0zM226 235q1 3 -5 7t-10 3q-35 -7 -67 -34q-29 -26 -64 -88q-2 -4 -2 -12q0 -2 3 -2t7.5 1.5t8.5 3.5
q12 9 35.5 27t35.5 27q36 29 53 54q1 1 1.5 3t1.5 5t2 5z" />
    <glyph glyph-name="ak" unicode="ak" horiz-adv-x="805" 
d="M832 118q-2 -11 -10 -19q-84 -41 -171 -55q-23 -11 -67 8q-36 16 -65 51q-8 10 -4 23.5t15 17.5l6 3q31 1 74 36q31 27 85 101q2 3 7 20q0 3 -4 5t-6 2q-49 -16 -90 -52q-74 -63 -101 -95q-40 -46 -56 -72q-26 -43 -77 -54q-21 -4 -52 -19q-24 -12 -67 -19
q-15 -2 -30 5.5t-23 20.5q-13 21 -17 67q0 3 -5 13q0 1 -5 1q-28 -15 -58 -38q-25 -20 -55 -31q-14 -3 -28 -3q-15 -1 -23.5 13.5t-2.5 25.5q56 114 101 158q47 45 99 63q23 8 41 -3q28 -16 41 -25q12 -10 9 -25q-1 -4 -2.5 -11t-2.5 -10q-1 -4 -3.5 -10.5t-4 -12
t-1.5 -10.5q-3 -30 -27 -46q-9 -6 -12 -17q-12 -36 -2 -68q1 -5 8 -11t12 -5q34 6 86 28q7 3 13 16q7 13 8 26q10 52 54 158q2 3 11.5 25t14.5 33q49 97 137 174q8 7 24 15q14 8 34 3q5 -2 9 -9q5 -7 -2 -12q-43 -31 -92 -85q-19 -20 -36 -51q-43 -80 -83 -184l3 -12l6 3
q114 100 116 101q75 62 127 86q12 6 19 9q14 6 28.5 -4t16.5 -26q2 -24 -6 -41q-14 -33 -36 -59q-55 -68 -101 -105q-9 -8 -7 -18.5t12 -15.5q12 -5 13 -5q11 -3 21 -3q35 -4 95 18q52 20 77 32l6 -3q8 -6 6 -17zM226 235q1 3 -5 7t-10 3q-35 -7 -67 -34q-29 -26 -64 -88
q-2 -4 -2 -12q0 -2 3 -2t7.5 1.5t8.5 3.5q12 9 35.5 27t35.5 27q36 29 53 54q1 1 1.5 3t1.5 5t2 5z" />
    <glyph glyph-name="wurde" unicode="wurde" horiz-adv-x="2138" 
d="M87 110q13 -1 35 17q8 7 23 20.5t23 20.5q26 19 50 35q12 7 26 1q15 -5 18 -18q4 -17 2 -61v-108q0 -10 1 -14q4 -8 7 -11q1 -2 8 0.5t10 5.5q33 35 43 76q4 15 5 20q1 6 5.5 31t5.5 31t5 31t3.5 31.5t1 32t-1.5 31.5v20q2 14 14 19.5t22 -1.5q9 -4 17 -11
q54 -44 134 -64q38 -9 64 -21q23 -12 30 -26t-1 -39q-1 -2 -1 -7l3 -6q5 0 6 1q70 44 80 51q12 9 43.5 29.5t53.5 36.5t41 32q6 5 20 -1q7 -3 11 -9.5t2 -11.5q-2 -8 -6 -23.5t-6 -22.5q-6 -20 -19 -58.5t-20 -57.5q-12 -39 -9 -80q1 -7 6.5 -10t12.5 1q2 1 8.5 4.5t9.5 6.5
q28 22 84 68q15 11 94 78q28 23 54 -5q6 -8 10 -9q8 -2 13 1q5 6 13.5 17t11.5 15q21 28 56 47q80 46 179 60q36 5 81 7q13 3 35 0t27 -4.5t37 -10.5q43 -12 46 -50q0 -3 2.5 -5t6 -1.5t6.5 3.5q10 8 15 13q41 41 76 95q20 33 46 67q3 4 25 23q3 3 9.5 3t9.5 -3q7 -6 7 -18
q-2 -14 -6 -19q-13 -24 -30 -45q-67 -88 -87 -226q-3 -19 2 -40q1 -9 12 -24q10 -12 24 -9q71 12 141 64q9 7 15 22q14 32 20 58q20 64 90 116q15 11 32 0q9 -5 13 -16t1 -20q-8 -24 -34 -66q-20 -32 -62 -80q-19 -22 -11 -52q6 -26 30 -33q37 -11 60 -11q17 -1 51 -2.5
t50 -1.5q5 0 5 -4q0 -3 -3 -6l-12 -6q-68 -15 -155 -8q-25 2 -43 19q-8 7 -31 35q-12 14 -30 4q-29 -14 -37 -18q-20 -13 -95 -36q-13 -4 -32 4.5t-27 21.5q-14 24 -15 45q-2 47 7 80q1 5 4 34q2 4 -3 6q-7 2 -11 0q-8 -4 -15 -13q-58 -59 -166 -141q-28 -22 -76 -25
q-6 -1 -14.5 7t-7.5 15q1 6 3.5 19t3.5 21q21 102 93 152q8 6 32 25q1 2 2 6t1 5q0 3 -6 3q-38 2 -74 -7q-63 -13 -131 -35q-43 -15 -94 -54q-41 -31 -50 -100q0 -9 3 -20q1 -4 4 -13t4 -13q6 -25 -20 -39q-10 -5 -20 -1t-11 14q-5 23 -5 41q0 24 -18 64q-4 11 -17.5 14
t-23.5 -5q-13 -10 -25 -22q-11 -10 -40 -37t-45 -41q-54 -47 -102 -66q-14 -6 -28.5 2t-18.5 24q-7 31 -2 54q3 13 7.5 41.5t9 50t12.5 40.5q3 5 5 27q0 4 -3 5q-2 2 -5 2q-20 -5 -40 -25q-21 -21 -45 -39.5t-62 -45.5t-49 -35q-19 -14 -51 -12q-6 0 -11.5 6.5t-4.5 12.5
q4 16 8 26q5 12 26 62q2 5 -1.5 13.5t-7.5 10.5l-24 12q-19 4 -38.5 10.5t-46 17.5t-36.5 15q-2 1 -20 6q-3 1 -9 -2.5t-7 -7.5q0 -3 -2 -12t-2 -14q-1 -12 -2 -37t-2 -38q-3 -56 -28 -111q-19 -44 -61 -81q-16 -13 -38 -10q-13 2 -17 9q-17 25 -18 51q0 63 -1 95
q-2 28 -4 40q0 2 -4 4t-6 1q-10 -2 -18 -8q-10 -9 -39 -32t-44 -38q-5 -5 -37 -29q-17 -13 -52 -13q-8 0 -13.5 8.5t-3.5 15.5q2 11 6 20q54 123 133 194q20 18 30 28q20 20 61 29q14 3 32 -8q14 -8 9 -16t-8 -9q-22 -5 -41 -16t-45 -32.5t-33 -27.5q-2 -3 -25 -34t-32 -49
v-7q-1 -1 -3 -1t-3 -1v-2q0 -2 -1 -3q6 0 6 8zM1561 228q2 8 1 11q0 3 -7 4t-12 -1q-1 0 -3 -1t-3 -1q-86 -52 -109 -141q-2 -9 5 -11q2 -1 6 1q16 7 34 19t27.5 19.5t31 26t26.5 23.5q7 6 1 19q-8 15 2 32z" />
    <glyph glyph-name="wurd" unicode="wurd" horiz-adv-x="1841" 
d="M1828 59l-6 -3q-20 -13 -95 -36q-13 -4 -32 4.5t-27 21.5q-14 24 -15 45q-2 47 7 80q1 5 4 34q2 4 -3 6q-7 2 -11 0q-8 -4 -15 -13q-58 -59 -166 -141q-28 -22 -76 -25q-6 -1 -14.5 7t-7.5 15q1 6 3.5 19t3.5 21q21 102 93 152q8 6 32 25q1 2 2 6t1 5q0 3 -6 3
q-38 2 -74 -7q-63 -13 -131 -35q-43 -15 -94 -54q-41 -31 -50 -100q0 -9 3 -20q1 -4 4 -13t4 -13q6 -25 -20 -39q-10 -5 -20 -1t-11 14q-5 23 -5 41q0 24 -18 64q-4 11 -17.5 14t-23.5 -5q-13 -10 -25 -22q-11 -10 -40 -37t-45 -41q-54 -47 -102 -66q-14 -6 -28.5 2
t-18.5 24q-7 31 -2 54q3 13 7.5 41.5t9 50t12.5 40.5q3 5 5 27q0 4 -3 5q-2 2 -5 2q-20 -5 -40 -25q-21 -21 -45 -39.5t-62 -45.5t-49 -35q-19 -14 -51 -12q-6 0 -11.5 6.5t-4.5 12.5q4 16 8 26q5 12 26 62q2 5 -1.5 13.5t-7.5 10.5l-24 12q-19 4 -38.5 10.5t-46 17.5
t-36.5 15q-2 1 -20 6q-3 1 -9 -2.5t-7 -7.5q0 -3 -2 -12t-2 -14q-1 -12 -2 -37t-2 -38q-3 -56 -28 -111q-19 -44 -61 -81q-16 -13 -38 -10q-13 2 -17 9q-17 25 -18 51q0 63 -1 95q-2 28 -4 40q0 2 -4 4t-6 1q-10 -2 -18 -8q-10 -9 -39 -32t-44 -38q-5 -5 -37 -29
q-17 -13 -52 -13q-8 0 -13.5 8.5t-3.5 15.5q2 11 6 20q54 123 133 194q20 18 30 28q20 20 61 29q14 3 32 -8q14 -8 9 -16t-8 -9q-22 -5 -41 -16t-45 -32.5t-33 -27.5q-2 -3 -25 -34t-32 -49v-6q9 -1 34 17q8 7 23 20.5t23 20.5q26 19 50 35q12 7 26 1q15 -5 18 -18
q4 -17 2 -61v-108q0 -10 1 -14q4 -8 7 -11q1 -2 8 0.5t10 5.5q33 35 43 76q4 15 5 20q1 6 5.5 31t5.5 31t5 31t3.5 31.5t1 32t-1.5 31.5v20q2 14 14 19.5t22 -1.5q9 -4 17 -11q54 -44 134 -64q38 -9 64 -21q23 -12 30 -26t-1 -39q-1 -2 -1 -7l3 -6q5 0 6 1q70 44 80 51
q12 9 43.5 29.5t53.5 36.5t41 32q6 5 20 -1q7 -3 11 -9.5t2 -11.5q-2 -8 -6 -23.5t-6 -22.5q-6 -20 -19 -58.5t-20 -57.5q-12 -39 -9 -80q1 -7 6.5 -10t12.5 1q2 1 8.5 4.5t9.5 6.5q28 22 84 68q15 11 94 78q28 23 54 -5q6 -8 10 -9q8 -2 13 1q5 6 13.5 17t11.5 15
q21 28 56 47q80 46 179 60q36 5 81 7q13 3 35 0t27 -4.5t37 -10.5q43 -12 46 -50q0 -3 2.5 -5t6 -1.5t6.5 3.5q10 8 15 13q41 41 76 95q20 33 46 67q3 4 25 23q3 3 9.5 3t9.5 -3q7 -6 7 -18q-2 -14 -6 -19q-13 -24 -30 -45q-67 -88 -87 -226q-3 -19 2 -40q1 -9 12 -24
q10 -12 24 -9q35 6 71 22h1l2 1q22 3 25 -13q0 -7 -3 -13zM81 102q6 0 6 7q-1 0 -2.5 -0.5t-2.5 -1.5v-2q0 -2 -1 -3zM1559 196q-8 15 2 32q2 8 1 11q0 3 -7 4t-12 -1q-1 0 -3 -1t-3 -1q-86 -52 -109 -141q-2 -9 5 -11q2 -1 6 1q16 7 34 19t27.5 19.5t31 26t26.5 23.5
q7 6 1 19z" />
    <glyph glyph-name="wur" unicode="wur" horiz-adv-x="1365" 
d="M1402 279q-4 -5 -15 -9q-41 -11 -92 -27q-43 -15 -94 -54q-41 -31 -50 -100q0 -9 3 -20q1 -4 4 -13t4 -13q6 -25 -20 -39q-10 -5 -20 -1t-11 14q-5 23 -5 41q0 24 -18 64q-4 11 -17.5 14t-23.5 -5q-13 -10 -25 -22q-11 -10 -40 -37t-45 -41q-54 -47 -102 -66
q-14 -6 -28.5 2t-18.5 24q-7 31 -2 54q3 13 7.5 41.5t9 50t12.5 40.5q3 5 5 27q0 4 -3 5q-2 2 -5 2q-20 -5 -40 -25q-21 -21 -45 -39.5t-62 -45.5t-49 -35q-19 -14 -51 -12q-6 0 -11.5 6.5t-4.5 12.5q4 16 8 26q5 12 26 62q2 5 -1.5 13.5t-7.5 10.5l-24 12q-19 4 -38.5 10.5
t-46 17.5t-36.5 15q-2 1 -20 6q-3 1 -9 -2.5t-7 -7.5q0 -3 -2 -12t-2 -14q-1 -12 -2 -37t-2 -38q-3 -56 -28 -111q-19 -44 -61 -81q-16 -13 -38 -10q-13 2 -17 9q-17 25 -18 51q0 63 -1 95q-2 28 -4 40q0 2 -4 4t-6 1q-10 -2 -18 -8q-10 -9 -39 -32t-44 -38q-5 -5 -37 -29
q-17 -13 -52 -13q-8 0 -13.5 8.5t-3.5 15.5q2 11 6 20q54 123 133 194q20 18 30 28q20 20 61 29q14 3 32 -8q14 -8 9 -16t-8 -9q-22 -5 -41 -16t-45 -32.5t-33 -27.5q-2 -3 -25 -34t-32 -49v-6q9 -1 34 17q8 7 23 20.5t23 20.5q26 19 50 35q12 7 26 1q15 -5 18 -18
q4 -17 2 -61v-108q0 -10 1 -14q4 -8 7 -11q1 -2 8 0.5t10 5.5q33 35 43 76q4 15 5 20q1 6 5.5 31t5.5 31t5 31t3.5 31.5t1 32t-1.5 31.5v20q2 14 14 19.5t22 -1.5q9 -4 17 -11q54 -44 134 -64q38 -9 64 -21q23 -12 30 -26t-1 -39q-1 -2 -1 -7l3 -6q5 0 6 1q70 44 80 51
q12 9 43.5 29.5t53.5 36.5t41 32q6 5 20 -1q7 -3 11 -9.5t2 -11.5q-2 -8 -6 -23.5t-6 -22.5q-6 -20 -19 -58.5t-20 -57.5q-12 -39 -9 -80q1 -7 6.5 -10t12.5 1q2 1 8.5 4.5t9.5 6.5q28 22 84 68q15 11 94 78q28 23 54 -5q6 -8 10 -9q8 -2 13 1q5 6 13.5 17t11.5 15
q21 27 55 47q52 25 97 37q32 10 57 10q17 0 24 -2q11 -2 17 -6l1 -1v-1l-1 -2v-1zM81 102q6 0 6 7q-1 0 -2.5 -0.5t-2.5 -1.5v-2q0 -2 -1 -3z" />
    <glyph glyph-name="wu" unicode="wu" horiz-adv-x="1007" 
d="M1035 121q-2 -2 -6.5 -6t-6.5 -6q-11 -10 -40 -37t-45 -41q-54 -47 -102 -66q-14 -6 -28.5 2t-18.5 24q-7 31 -2 54q3 13 7.5 41.5t9 50t12.5 40.5q3 5 5 27q0 4 -3 5q-2 2 -5 2q-20 -5 -40 -25q-21 -21 -45 -39.5t-62 -45.5t-49 -35q-19 -14 -51 -12q-6 0 -11.5 6.5
t-4.5 12.5q4 16 8 26q5 12 26 62q2 5 -1.5 13.5t-7.5 10.5l-24 12q-19 4 -38.5 10.5t-46 17.5t-36.5 15q-2 1 -20 6q-3 1 -9 -2.5t-7 -7.5q0 -3 -2 -12t-2 -14q-1 -12 -2 -37t-2 -38q-3 -56 -28 -111q-19 -44 -61 -81q-16 -13 -38 -10q-13 2 -17 9q-17 25 -18 51q0 63 -1 95
q-2 28 -4 40q0 2 -4 4t-6 1q-10 -2 -18 -8q-10 -9 -39 -32t-44 -38q-5 -5 -37 -29q-17 -13 -52 -13q-8 0 -13.5 8.5t-3.5 15.5q2 11 6 20q54 123 133 194q20 18 30 28q20 20 61 29q14 3 32 -8q14 -8 9 -16t-8 -9q-22 -5 -41 -16t-45 -32.5t-33 -27.5q-2 -3 -25 -34t-32 -49
v-6q9 -1 34 17q8 7 23 20.5t23 20.5q26 19 50 35q12 7 26 1q15 -5 18 -18q4 -17 2 -61v-108q0 -10 1 -14q4 -8 7 -11q1 -2 8 0.5t10 5.5q33 35 43 76q4 15 5 20q1 6 5.5 31t5.5 31t5 31t3.5 31.5t1 32t-1.5 31.5v20q2 14 14 19.5t22 -1.5q9 -4 17 -11q54 -44 134 -64
q38 -9 64 -21q23 -12 30 -26t-1 -39q-1 -2 -1 -7l3 -6q5 0 6 1q70 44 80 51q12 9 43.5 29.5t53.5 36.5t41 32q6 5 20 -1q7 -3 11 -9.5t2 -11.5q-2 -8 -6 -23.5t-6 -22.5q-6 -20 -19 -58.5t-20 -57.5q-12 -39 -9 -80q1 -7 6.5 -10t12.5 1q2 1 8.5 4.5t9.5 6.5q28 22 84 68
q35 28 58 47q15 9 25 -1q3 -3 5 -7q-4 -6 -10 -20zM81 102q6 0 6 7q-1 0 -2.5 -0.5t-2.5 -1.5v-2q0 -2 -1 -3z" />
    <glyph glyph-name="hi" unicode="hi" horiz-adv-x="876" 
d="M798 58q1 -7 -5 -13t-14 -7q-19 0 -22 1q-14 2 -17 13q0 1 -3 12t-3 17q0 8 2 27t3 33q0 25 -2 45q0 8 -10 14.5t-18 4.5q-16 -2 -22 -5q-25 -15 -51 -33q-22 -17 -65.5 -50.5t-65.5 -50.5q-59 -45 -125 -70q-13 -4 -28 5.5t-18 23.5q-5 27 3 60l36 162q0 3 -3 6
q-4 2 -6 0q-48 -33 -88 -71q-50 -49 -118 -94q-41 -29 -73 -38q-12 -3 -25 7.5t-11 22.5q11 51 17 73q6 18 18.5 51.5t14.5 40.5q1 3 -1 7q-3 7 -11 1q-13 -9 -37 -27l-27 -18q-2 -1 -8.5 -3.5t-10.5 -3.5q-20 -8 -25 4q-5 11 9 25q2 2 19 13q41 29 78 60q39 33 74 94
q42 76 48 86q8 13 41 63q4 5 13.5 6.5t14.5 -2.5q12 -8 11 -18q-3 -25 -4 -30q-1 -4 -11 -19q-80 -110 -140 -284q-7 -19 -19 -57q-2 -9 6 -12q7 -4 14 0q47 25 105 74q68 58 134 110q12 11 31 21q10 6 21 0t13 -18q3 -18 -4 -45q-5 -20 -16 -58.5t-17 -57.5q-14 -52 -8 -89
q2 -12 11 -8q29 13 33 16q28 19 79.5 56t62.5 44q70 50 109 67q21 8 29 10q23 4 43.5 -8.5t25.5 -35.5q4 -20 4 -30q0 -88 9 -120zM905 423q-3 12 -4 13q-52 36 -86 45q-11 3 -20 -8q-11 -10 -8 -27q5 -20 24 -26q9 -3 35 -6t39 -9q6 -2 13 4t7 14z" />
    <glyph glyph-name="bli" unicode="bli" horiz-adv-x="1025" 
d="M953 284q20 4 34.5 -9t9.5 -33q-1 -10 -5 -21q-6 -16 -20 -48q-20 -49 -20 -69q0 -4 -2.5 -11.5t-2.5 -10.5q-10 -37 -52 -45q-4 -1 -11 1.5t-8 6.5q-4 10 -3 14q6 16 14 34q7 15 22.5 45.5t23.5 45.5q3 8 7.5 22.5t6.5 19.5q1 5 -3 9.5t-9 3.5q-15 0 -41 -14
q-116 -72 -175 -106q-89 -53 -165 -78q-23 -6 -49 8q-23 13 -29 40q-5 18 -5 43q-2 65 8 110q0 7 -6 11q-6 3 -14 1q-4 -1 -11 -4.5l-9 -4.5l-19 -9.5l-15 -7.5t-10.5 -6.5t-8.5 -8t-5.5 -11t-5.5 -16.5t-5 -24q-13 -59 -58 -109q-38 -40 -66 -56q-44 -28 -105 -20
q-29 3 -45.5 25.5t-14.5 45.5q1 5 2 14.5t2 14.5q2 4 -3 6l-4 -1q-2 -2 -8.5 -9.5t-9.5 -10t-9 -8t-11.5 -8t-12.5 -4.5q-12 -3 -20 2.5t-7 19.5q2 18 7 28q11 24 33.5 72.5t33.5 73.5q9 18 32 74q48 104 93 148q2 2 5 4.5t6.5 5t5.5 4.5q13 8 26 -5q11 -11 4 -20
q-25 -36 -30 -41q-23 -28 -40 -61q-53 -103 -65 -122q-8 -13 -5 -27q28 14 69 51q31 25 75 45q24 10 58 5q20 -1 39 -19q21 -19 55 -7q50 17 86 38q20 12 30 31q15 27 35 56q42 60 115 100q13 7 43 7q15 0 23.5 -14t2.5 -28q-1 -1 -2 -3.5t-1 -3.5q-41 -59 -78 -86
q-58 -43 -78 -55q-27 -16 -38 -51q-6 -20 -21 -108q-5 -25 7 -50q14 -24 36 -18q35 8 74 30q147 77 198 110q44 27 91 47q13 6 28 9zM618 402q-10 -7 0 -10q5 -2 7 0q11 5 16 12l15 12q4 4 8 10t4 8v1q0 1 -1 2h-1l-21 -12q-10 -7 -16 -14q-7 -3 -11 -9zM169 186
q-2 -4 -2 -7q4 -7 12 -4q9 5 28 15t31 16q28 11 53 22q7 3 12 8q2 2 0 7q-2 7 -10 10t-14 1q-70 -26 -110 -68zM326 176q1 7 -6 12.5t-13 2.5q-24 -10 -26 -12q-62 -38 -92 -58q-19 -13 -43 -39q-7 -8 -13 -26q-3 -10 4 -21t17 -12q3 -1 8.5 -1.5t8.5 -0.5q56 1 105 52
q31 32 47 81q0 2 3 22zM946 548q12 0 14 -1q7 -1 13 -6q59 -49 113 -65q5 -2 7 -8t-1 -10q-2 -2 -6 -4.5t-6 -3.5q-4 -2 -7 0q-14 5 -41.5 12t-49.5 14t-40 16q-17 8 -17 30q-1 8 6 16.5t15 9.5z" />
    <glyph glyph-name="bl" unicode="bl" horiz-adv-x="766" 
d="M788 180q1 -15 -10 -26q-51 -31 -59 -35q-89 -53 -165 -78q-23 -6 -49 8q-23 13 -29 40q-5 18 -5 43q-2 65 8 110q0 7 -6 11q-6 3 -14 1q-4 -1 -11 -4.5l-9 -4.5l-19 -9.5l-15 -7.5t-10.5 -6.5t-8.5 -8t-5.5 -11t-5.5 -16.5t-5 -24q-13 -59 -58 -109q-38 -40 -66 -56
q-44 -28 -105 -20q-29 3 -45.5 25.5t-14.5 45.5q1 5 2 14.5t2 14.5q2 4 -3 6l-4 -1q-2 -2 -8.5 -9.5t-9.5 -10t-9 -8t-11.5 -8t-12.5 -4.5q-12 -3 -20 2.5t-7 19.5q2 18 7 28q11 24 33.5 72.5t33.5 73.5q9 18 32 74q48 104 93 148q2 2 5 4.5t6.5 5t5.5 4.5q13 8 26 -5
q11 -11 4 -20q-25 -36 -30 -41q-23 -28 -40 -61q-53 -103 -65 -122q-8 -13 -5 -27q28 14 69 51q31 25 75 45q24 10 58 5q20 -1 39 -19q21 -19 55 -7q50 17 86 38q20 12 30 31q15 27 35 56q42 60 115 100q13 7 43 7q15 0 23.5 -14t2.5 -28q-1 -1 -2 -3.5t-1 -3.5
q-41 -59 -78 -86q-58 -43 -78 -55q-27 -16 -38 -51q-6 -20 -21 -108q-5 -25 7 -50q14 -24 36 -18q35 8 74 30q72 37 134 72h3h4h2h1l2 -1q1 -1 2 -1l2 -1v-1q1 0 1 -1v-1l1 -1v-3zM618 402q-10 -7 0 -10q5 -2 7 0q12 7 17 14q2 1 3.5 3t4 4.5l3.5 3.5q13 11 15 18q0 1 -1 2
q-1 0 -2 -1q-5 -3 -13 -9t-15 -9q-17 -10 -19 -15v-1zM102 193q0 -1 2 3l-4 -2zM169 186q-2 -4 -2 -7q4 -7 12 -4q9 5 28 15t31 16q28 11 53 22q7 3 12 8q2 2 0 7q-2 7 -10 10t-14 1q-70 -26 -110 -68zM326 176q1 7 -6 12.5t-13 2.5q-24 -10 -26 -12q-62 -38 -92 -58
q-19 -13 -43 -39q-7 -8 -13 -26q-3 -10 4 -21t17 -12q3 -1 8.5 -1.5t8.5 -0.5q56 1 105 52q31 32 47 81q0 2 3 22z" />
    <glyph glyph-name="Bi" unicode="Bi" horiz-adv-x="665" 
d="M141 245q-18 -1 -31 -21q-24 -34 -50 -96q-11 -25 -44 -21q-10 2 -15.5 10.5t-2.5 18.5q5 16 10 29q6 13 20 37.5t20 37.5q29 50 46 98q16 51 70 120q3 4 10 11q46 44 84 -5q22 -25 14 -58q-14 -72 -45 -114q-21 -26 -23 -49q-4 -19 1 -30q14 -34 50 -57q6 -3 15 -3
q10 2 15 4q95 40 114 49q49 22 146 51q26 8 61 6q19 -1 33 -19t9 -36q-6 -21 -25 -74q-1 -3 -7.5 -18.5t-8.5 -24.5q-6 -16 9 -27q10 -8 12 -10q8 -10 0 -21q-21 -28 -60 -30q-6 0 -13.5 6.5t-9.5 12.5q-6 28 4 53q14 38 35 86q8 19 5 38q-1 5 -6 10t-9 5l-38 -3
q-100 -28 -214 -90q-21 -11 -11 -33q14 -28 20 -42q13 -29 -3 -60q-17 -28 -27 -37q-52 -43 -104 -46q-59 0 -78 3q-11 2 -28 12q-39 20 -27 65q14 47 52 76q12 9 38 27t38 27q11 9 0 20l-39 48q-24 30 -14 66q73 53 79 142q0 3 -2 15q0 6 -4 6q-10 2 -13 -1q-9 -5 -17 -15
q-51 -60 -37 -111q2 -7 -1 -21t-3 -17zM157 -49h37q32 1 64 23q16 10 21 31t-6 37q-1 1 -2.5 3t-2.5 3q-13 16 -19 21t-16.5 4t-25.5 -14q-11 -9 -33.5 -26t-32.5 -26q-1 -1 -16 -25q-4 -6 -0.5 -15t9.5 -11q20 -4 23 -5zM679 442q-4 -7 -13 -7q-28 4 -44 28q-16 25 -27 54
q-3 8 6 20q3 4 18 13q5 2 14.5 -1t12.5 -8q1 -3 3.5 -7.5t3.5 -5.5q19 -65 26 -79v-7z" />
    <glyph glyph-name="die" unicode="die" horiz-adv-x="1116" 
d="M649 217q0 -1 -0.5 -12t-0.5 -18q-1 -37 29 -67t68 -13q11 5 33 17q25 13 31 41q2 8 4.5 23.5t3.5 20.5q17 63 62 91q18 10 35 -4q24 -19 17 -46q-12 -50 -39 -80q-4 -4 -10 -12t-9 -11q-20 -23 -12 -57q5 -29 28 -48.5t51 -19.5q30 0 44 5q17 6 52 16t62 19t50 20
q1 1 3.5 1.5t3.5 0.5q5 2 11 -2.5t5 -8.5q0 -10 -6 -13q-98 -49 -187 -75q-57 -16 -116 15q-14 6 -27 25q-2 3 -24 47q-2 4 -9 7t-10 2q-50 -21 -56 -23q-26 -9 -51.5 -0.5t-43.5 29.5q-32 41 -46 93q-7 22 -23 8q-5 -4 -16 -15q-74 -60 -110 -92q-25 -23 -73 -37
q-10 -3 -21.5 1t-17.5 14q-11 18 -14 26q-18 63 -15 119q0 4 -5 22h-7q-34 -28 -53 -40q-8 -6 -26 -28q-49 -58 -111 -112q-12 -11 -42 -31q-5 -3 -21 -8q-18 -2 -29 6.5t-11 26.5q0 11 3 22q30 115 87 190q32 40 68 70q10 8 32 20q23 13 42 -2q7 -6 39 -35q12 -12 25 3
q25 25 39 72q15 47 79 136l12 9q4 3 10 1t9 -7q10 -13 3 -28q-35 -74 -51 -100q-57 -97 -47 -240q1 -8 10 -36q5 -14 17.5 -18t24.5 3q30 17 50 34q113 94 152 134q10 11 24 19q5 3 14 -1q13 -13 13 -17t-6 -52zM55 64q11 3 13 4q10 7 19.5 14.5t20.5 17.5t16.5 16
t18.5 19.5t17 17.5q30 32 59 68q18 23 5 56q-3 9 -13 13.5t-17 -0.5q-25 -17 -30 -22q-55 -52 -91 -134q-21 -47 -21 -63q0 -1 3 -7zM858 548q3 1 5 0q25 -10 78 -42q5 -2 4 -9.5t-6 -9.5q-22 -10 -28 -9q-33 0 -70 22q-18 13 -9 34q8 17 26 14z" />
    <glyph glyph-name="ern" unicode="ern" horiz-adv-x="910" 
d="M630 238h-83q-16 0 -25 -4q-34 -14 -45 -33.5t-6 -51.5q2 -14 17 -81q7 -28 -14 -46q-2 -1 -4.5 -4.5t-5 -5.5t-5.5 -2q-13 -5 -17 3q-19 25 -38 74l-30 78q-2 5 -10 7t-12 -1q-3 -1 -8.5 -4.5t-8.5 -5.5q-98 -69 -209 -138q-31 -19 -65 -26q-12 -1 -25 5q-30 18 -33 52
q-3 42 8 70q11 31 -2 56q-11 17 -5 43q3 10 9 17q10 14 23 6q9 -6 10 -7q14 -8 17.5 -7.5t12.5 12.5q40 52 123 101q18 10 44 7q13 -1 21 -13q11 -11 7 -23q-11 -37 -37 -59q-60 -49 -123 -82q-6 -3 -18 -8t-17 -8q-10 -6 -14 -13q-24 -44 -17 -80q1 -6 9 -16q11 -14 29 -9
q18 6 45 23q111 66 203 136q3 2 12 8.5t14 9.5q13 8 25 5.5t19 -15.5q3 -5 8.5 -17t8.5 -17q1 -1 6 -4q0 2 2 6q2 8 2 12q0 52 56 79q53 25 106 19q4 -1 12 -2.5t14.5 -2.5t12.5 -1q51 -2 76 3q9 2 51 7q20 1 33 -17q12 -14 14 -35v-51q0 -6 3 -6q6 -2 11 1q31 26 63 54
q29 24 60 37q3 1 6 1.5t7 1t6 0.5q14 0 24 -9t11 -22q6 -44 -4 -83q-7 -28 -7 -96q-2 -26 20 -37l9 -9q6 -6 -3 -16q-12 -10 -24 -6q-37 8 -42 43q-7 55 8 121q6 34 4 51q-1 6 -8 9.5t-12 -0.5q-56 -45 -64 -53q-38 -35 -71 -74q-15 -20 -55 -31q-2 -2 -5 3q-14 10 -11 21
q1 8 11 43q13 42 10 89q-2 15 -17 17q-17 1 -51.5 1.5t-51.5 0.5v-1zM119 226q11 0 13 1q46 25 81 61q7 10 4 16q-7 2 -11 0q-26 -14 -55 -33q-22 -16 -31 -40v-6q-1 -1 -2.5 -1h-2.5l-2 -4q6 -3 6 6z" />
    <glyph glyph-name="wurden" unicode="wurden" horiz-adv-x="2532" 
d="M1659 178l-14 -3q-17 -18 -54.5 -47t-53.5 -46q-35 -37 -106 -56q-12 -4 -23 5t-10 22q2 29 6 42q28 80 81 142q10 10 10 18q0 5 -1 6q-3 3 -6 3q-8 1 -22 1q-36 0 -42 -2q-22 -8 -65 -11.5t-62 -9.5q-18 -6 -54 -20q-34 -14 -57 -51q-13 -24 -15 -40q-10 -66 -17 -98
q-6 -34 -40 -46q-6 -2 -14 1t-10 9q-6 16 -6 27q-1 24 -1 71q0 5 -5.5 7.5t-10.5 0.5l-33 -15q-47 -25 -57 -29q-38 -17 -73 -30q-18 -7 -34 -8q-51 -7 -64 43q-4 21 -6 42v50q0 3 -7 12q-2 2 -7 -1q-85 -53 -97 -61q-26 -17 -66 -24q-12 -1 -23.5 7.5t-13.5 20.5
q-3 24 5 42t23 53t22 53q2 4 0 10.5t-6 8.5q-86 41 -97 45q-29 13 -37.5 9t-14.5 -34q-10 -49 -12 -71q-4 -54 -30 -124q-13 -33 -42 -66q-21 -23 -54 -33q-11 -3 -22 1t-15 13q-16 30 -20 46l-21 90q-2 9 -12 3q-20 -12 -29 -19q-33 -29 -64 -58q-11 -11 -23.5 -20.5
t-31 -21.5t-25.5 -17q-17 -10 -41 -12q-19 -2 -30.5 9.5t-7.5 28.5q19 93 60 152q54 72 107 125q7 7 29 20q15 9 27 1q17 -11 17 -29q2 -34 -18 -61q-11 -16 -26 0q-10 11 -18 6q-10 -8 -11 -9l-60 -72q-40 -56 -46 -103q0 -3 4 -5q2 -4 6 -2q42 26 97 72q37 32 97 83
q11 10 26 -1q16 -13 19 -29q14 -88 15 -92q2 -8 14 -40q5 -10 18 -3q23 15 35 44q28 66 34 117q2 17 26 148q1 9 5 20q2 8 12.5 13t17.5 1q9 -3 38 -18q8 -3 33 -15t37 -17.5t32 -12.5t38 -11q4 -1 19 -8q13 -7 13 -24q1 -24 -14 -62q-18 -44 -27 -67q-4 -9 4 -12
q7 -3 13 -2q7 1 13 6q106 53 166 122l18 12q10 5 20 -1.5t10 -17.5q0 -16 -2 -20q-2 -5 -17 -32q-37 -61 -25 -137q0 -3 2 -7q1 -4 6.5 -8.5t9.5 -3.5q12 0 14 1q121 47 190 98q20 14 31 16q29 3 42 22q45 67 164 89q29 5 85 11q34 4 58 1q53 -6 106 0q8 2 14 0
q21 -2 31 -16q4 -6 25 -43q6 -11 19 0q44 50 60 88q28 70 80 126q8 9 22 18q7 4 17 1.5t15 -9.5q9 -16 2 -27q-14 -22 -41 -62t-34 -51l-30 -48q-28 -45 -31 -95q0 -8 -1.5 -17.5t-4 -20.5t-3.5 -18q-2 -14 3 -28q3 -15 13.5 -21t24.5 1q39 20 80 47q46 31 61 77q5 16 21 46
q30 58 86 93q3 1 21 4q4 1 9 -3.5t7 -8.5q5 -20 -2 -35q-6 -17 -17 -31q-2 -3 -32 -43t-49 -57q-33 -33 -27 -86q1 -10 10 -17.5t20 -5.5q16 2 60 23q72 36 107 70q17 17 32 28q39 28 71 71q6 10 21 19q6 4 13 -1q17 -10 19 -28q4 -38 -5 -78q-16 -60 -16 -70q0 -4 3 -6
q9 -6 12 -4q30 15 49 28q22 16 67 48t67 48q9 7 27 23q10 10 16 14q14 8 27 1q11 -6 12 -17q4 -21 -2 -64q-1 -4 -3.5 -11.5t-2.5 -8.5q-17 -67 15 -109q5 -8 -3 -13q-5 -2 -13 -4q-3 -1 -7 1q-44 16 -51 63q-5 39 5 71q2 10 -4 12q-2 2 -7 -2q-52 -35 -58 -41
q-18 -17 -93 -66q-30 -20 -72 -30q-17 -5 -26 2t-8 28q2 29 6 42q8 27 10 57q0 20 -6 26q-3 -2 -9.5 -5t-9.5 -5q-7 -6 -20 -19q-7 -7 -15 -14.5t-14.5 -13.5t-16 -13t-15 -11.5t-17 -11.5t-16.5 -10.5t-17.5 -11t-16.5 -10t-18 -10.5t-17 -10q-20 -11 -82 -24
q-13 -3 -29.5 7.5t-21.5 24.5q-1 5 -3.5 17t-4.5 18q-1 5 -7 7t-11 -1q-29 -16 -55 -32q-30 -17 -59 -27q-19 -6 -36.5 4.5t-22.5 31.5q-1 4 -4 43q0 7 1.5 35.5t-1.5 35.5q10 3 3 5q-1 -4 -2 -6zM1607 213q-5 10 -8 13q-10 13 -16.5 14.5t-18.5 -4.5q-79 -46 -102 -129
q0 -1 5 -12h7q3 0 7 2q62 40 119 99z" />
    <glyph glyph-name="Aufg" unicode="Aufg" horiz-adv-x="1551" 
d="M1272 225q-19 -5 -53.5 -12t-61 -13.5t-49.5 -14.5q-4 -2 -7 -2q-27 -2 -40 -9.5t-17.5 -15.5t-13.5 -35q-6 -17 -16.5 -48.5t-19 -57.5t-15.5 -50q-23 -78 -24 -128q-2 -38 10 -67q3 -7 2 -13q-2 -8 -6 -11q-7 -4 -13 0q-16 7 -19 27q-8 55 -8 61q1 20 13 95q1 6 3 20
t3 20q1 4 -3.5 9.5t-8.5 5.5q-36 0 -55 1q-21 0 -33 5q-34 10 -53 31.5t-24 63.5q-1 10 -1.5 29t-0.5 25q0 5 -5.5 7.5t-10.5 -0.5q-42 -27 -130 -77q-49 -26 -87 -39q-22 -7 -39 8t-12 37q7 27 24 71q4 12 13.5 32t11.5 25q3 6 -2 12t-12 5q-29 -3 -34 -4q-33 -8 -99 -28
q-48 -13 -53 -15q-19 -6 -26 -29q-4 -16 -4 -27q-2 -50 -1 -75q0 -8 5 -48q2 -9 12.5 -18.5t12.5 -13.5q7 -13 1 -19q-4 -5 -16 -11h-7q-20 2 -28 17q-21 44 -21 86v110q0 5 -4.5 8.5t-9.5 2.5t-14 -2.5t-13 -2.5q-37 -6 -57 -35q-11 -16 -25.5 -33.5t-25.5 -30t-28.5 -32
t-26.5 -29.5q-40 -48 -54 -80q-2 -3 -5.5 -9t-4.5 -9q-15 -23 -46 -26q-9 0 -15 12q-6 14 3 26q67 90 90 113q15 16 41.5 45.5t36.5 40.5q7 7 -5 17l-6 3q-12 10 -10.5 25t14.5 21q1 0 8.5 2.5t11.5 3.5q11 4 46 13q21 6 34 22q73 83 122 182q5 10 19 28q4 6 15 3.5t14 -9.5
q6 -16 2 -26q-9 -29 -17 -45q-8 -18 -30 -99q-2 -5 4.5 -12t12.5 -6q43 6 127 26q65 15 74 17q16 3 48 5q6 0 11.5 -5.5t6.5 -11.5q3 -19 -5 -34q-4 -8 -12.5 -24t-12.5 -24q-27 -52 -32 -83q0 -2 4 -5t5 -2q32 8 45 16q21 11 60 33.5t53 30.5q15 8 30.5 19.5t34.5 27
t29 22.5q3 2 24 13q4 2 10 0t8 -6q5 -10 4 -12q-1 -13 -8 -26q-3 -7 -11.5 -24t-11.5 -26q-16 -43 -1 -87q11 -33 41 -43q40 -15 88 -7q12 2 15 12q34 71 42 115q1 5 -3 9.5t-9 2.5q-31 -7 -53 -16l-20 -3q-8 0 -15.5 6.5t-8.5 13.5q-1 8 3.5 17.5t11.5 11.5q15 3 44 9.5
t43 10.5q19 3 20 3q14 7 22 16q4 5 9.5 16t7.5 14q6 11 24.5 44t29.5 51q52 81 118 112q13 5 26 -6q9 -8 11 -24q0 -20 -13 -38q-9 -11 -18 -6q-18 11 -36 -7q-19 -17 -24 -25q-38 -53 -71 -101q-1 -2 -1 -13q0 -4 5.5 -7t10.5 -2q1 0 3 -0.5t3 -0.5q5 1 15 1.5t18 1.5t15 3
q30 7 105.5 21.5t116.5 25.5q58 15 84 27q13 7 24 -8q20 -22 2 -44q-20 -22 -32 -25q-18 -4 -35.5 -15t-26.5 -20t-26 -27q-46 -52 -60 -99q-2 -7 -2 -21q0 -5 2 -5q6 -3 12 -3q3 -1 6 2q112 89 160 177q2 4 14 16q8 8 19 0q21 -13 16 -35q-3 -14 -9 -40t-9 -40
q-5 -23 -5 -27q0 -13 -2 -25.5t-6 -27.5t-6.5 -23t-9 -26.5t-8.5 -23.5q-35 -99 -114 -178q-64 -66 -112 -101q-41 -31 -77 -45q-9 -3 -20 1t-15 13q-9 18 -9 25q-2 30 7 54q1 2 11 7q4 1 8.5 -3t4.5 -9q1 -14 1 -41q1 -4 7.5 -6.5t9.5 -0.5q1 0 3.5 1t3.5 2q74 46 158 141
q35 42 64 106q34 73 56 147q1 4 -1 14q0 3 -3 5q-2 2 -6 0q-11 -6 -40 -37q-30 -30 -68 -57q-24 -17 -51 -21q-33 -7 -43 24q-6 22 -4 34q12 59 39 94q60 78 73 91q0 1 1 3.5t1 3.5q-12 3 -13 3q-17 -4 -47 -10t-42 -9zM267 229l-2.5 7.5t-2.5 6.5q-8 -4 -11 -6
q-6 -6 -7 -11q-2 -9 2 -11q8 -5 12 -1q3 3 9 15z" />
    <glyph glyph-name="Auf" unicode="Auf" horiz-adv-x="1272" 
d="M1355 257l1 -1v-1v-1l-1 -2q0 -2 -1 -3q0 -1 -1 -3l-1 -2l-1 -1q-2 -1 -3 -2q-16 -3 -76 -16q-19 -5 -53.5 -12t-61 -13.5t-49.5 -14.5q-4 -2 -7 -2q-27 -2 -40 -9.5t-17.5 -15.5t-13.5 -35q-6 -17 -16.5 -48.5t-19 -57.5t-15.5 -50q-23 -78 -24 -128q-2 -38 10 -67
q3 -7 2 -13q-2 -8 -6 -11q-7 -4 -13 0q-16 7 -19 27q-8 55 -8 61q1 20 13 95q1 6 3 20t3 20q1 4 -3.5 9.5t-8.5 5.5q-36 0 -55 1q-21 0 -33 5q-34 10 -53 31.5t-24 63.5q-1 10 -1.5 29t-0.5 25q0 5 -5.5 7.5t-10.5 -0.5q-42 -27 -130 -77q-49 -26 -87 -39q-22 -7 -39 8
t-12 37q7 27 24 71q4 12 13.5 32t11.5 25q3 6 -2 12t-12 5q-29 -3 -34 -4q-33 -8 -99 -28q-48 -13 -53 -15q-19 -6 -26 -29q-4 -16 -4 -27q-2 -50 -1 -75q0 -8 5 -48q2 -9 12.5 -18.5t12.5 -13.5q7 -13 1 -19q-4 -5 -16 -11h-7q-20 2 -28 17q-21 44 -21 86v110q0 5 -4.5 8.5
t-9.5 2.5t-14 -2.5t-13 -2.5q-37 -6 -57 -35q-11 -16 -25.5 -33.5t-25.5 -30t-28.5 -32t-26.5 -29.5q-40 -48 -54 -80q-2 -3 -5.5 -9t-4.5 -9q-15 -23 -46 -26q-9 0 -15 12q-6 14 3 26q67 90 90 113q15 16 41.5 45.5t36.5 40.5q7 7 -5 17l-6 3q-12 10 -10.5 25t14.5 21
q1 0 8.5 2.5t11.5 3.5q11 4 46 13q21 6 34 22q73 83 122 182q5 10 19 28q4 6 15 3.5t14 -9.5q6 -16 2 -26q-9 -29 -17 -45q-8 -18 -30 -99q-2 -5 4.5 -12t12.5 -6q43 6 127 26q65 15 74 17q16 3 48 5q6 0 11.5 -5.5t6.5 -11.5q3 -19 -5 -34q-4 -8 -12.5 -24t-12.5 -24
q-27 -52 -32 -83q0 -2 4 -5t5 -2q32 8 45 16q21 11 60 33.5t53 30.5q15 8 30.5 19.5t34.5 27t29 22.5q3 2 24 13q4 2 10 0t8 -6q5 -10 4 -12q-1 -13 -8 -26q-3 -7 -11.5 -24t-11.5 -26q-16 -43 -1 -87q11 -33 41 -43q40 -15 88 -7q12 2 15 12q34 71 42 115q1 5 -3 9.5
t-9 2.5q-31 -7 -53 -16l-20 -3q-8 0 -15.5 6.5t-8.5 13.5q-1 8 3.5 17.5t11.5 11.5q15 3 44 9.5t43 10.5q19 3 20 3q14 7 22 16q4 5 9.5 16t7.5 14q6 11 24.5 44t29.5 51q52 81 118 112q13 5 26 -6q9 -8 11 -24q0 -20 -13 -38q-9 -11 -18 -6q-18 11 -36 -7q-19 -17 -24 -25
q-38 -53 -71 -101q-1 -2 -1 -13q0 -4 5.5 -7t10.5 -2q1 0 3 -0.5t3 -0.5q5 1 15 1.5t18 1.5t15 3q44 10 134 28h30q1 0 4 -1t5 -1h1q1 -1 2 -1t2 -0.5t2 -0.5l6 -3q1 0 1 -1h1l1 -1zM258 214q3 3 9 15l-2.5 7.5t-2.5 6.5q-8 -4 -11 -6q-6 -6 -7 -11q-2 -9 2 -11q8 -5 12 -1z
" />
    <glyph glyph-name="Au" unicode="Au" horiz-adv-x="933" 
d="M873 -13q-21 0 -33 5q-34 10 -53 31.5t-24 63.5q-1 10 -1.5 29t-0.5 25q0 5 -5.5 7.5t-10.5 -0.5q-42 -27 -130 -77q-49 -26 -87 -39q-22 -7 -39 8t-12 37q7 27 24 71q4 12 13.5 32t11.5 25q3 6 -2 12t-12 5q-29 -3 -34 -4q-33 -8 -99 -28q-48 -13 -53 -15
q-19 -6 -26 -29q-4 -16 -4 -27q-2 -50 -1 -75q0 -8 5 -48q2 -9 12.5 -18.5t12.5 -13.5q7 -13 1 -19q-4 -5 -16 -11h-7q-20 2 -28 17q-21 44 -21 86v110q0 5 -4.5 8.5t-9.5 2.5t-14 -2.5t-13 -2.5q-37 -6 -57 -35q-11 -16 -25.5 -33.5t-25.5 -30t-28.5 -32t-26.5 -29.5
q-40 -48 -54 -80q-2 -3 -5.5 -9t-4.5 -9q-15 -23 -46 -26q-9 0 -15 12q-6 14 3 26q67 90 90 113q15 16 41.5 45.5t36.5 40.5q7 7 -5 17l-6 3q-12 10 -10.5 25t14.5 21q1 0 8.5 2.5t11.5 3.5q11 4 46 13q21 6 34 22q73 83 122 182q5 10 19 28q4 6 15 3.5t14 -9.5q6 -16 2 -26
q-9 -29 -17 -45q-8 -18 -30 -99q-2 -5 4.5 -12t12.5 -6q43 6 127 26q65 15 74 17q16 3 48 5q6 0 11.5 -5.5t6.5 -11.5q3 -19 -5 -34q-4 -8 -12.5 -24t-12.5 -24q-27 -52 -32 -83q0 -2 4 -5t5 -2q32 8 45 16q21 11 60 33.5t53 30.5q15 8 30.5 19.5t34.5 27t29 22.5q3 2 24 13
q4 2 10 0t8 -6q5 -10 4 -12q-1 -13 -8 -26q-3 -7 -11.5 -24t-11.5 -26q-16 -43 -1 -87q11 -33 41 -43q38 -15 87 -7h1h4q1 -1 4 -1h2q1 -1 2 -1l2 -2l3 -3l1 -1v-2v-2v-2l-1 -1q-1 -2 -2 -2l-2 -2q-2 -2 -7 -5t-6 -4t-3 -1q-1 0 -3.5 -1t-4.5 -2q-1 -1 -3 -1q-35 0 -53 1z
M258 214q3 3 9 15l-2.5 7.5t-2.5 6.5q-8 -4 -11 -6q-6 -6 -7 -11q-2 -9 2 -11q8 -5 12 -1z" />
    <glyph glyph-name="ele" unicode="ele" horiz-adv-x="876" 
d="M201 299q24 -22 16 -50q-8 -30 -31 -46t-71 -46q-3 -2 -7 -4.5t-9 -5l-7 -3.5h-1q-13 -9 -16 -24q-9 -32 10 -69q4 -8 12 -8h5q5 -1 13 -1t11 1q174 63 266 157q15 16 16 32q2 49 13 91l1 4q8 36 17 55q32 83 112 122q6 3 13 3q5 0 13 -2q8 -4 14 -16t4 -19q-2 -5 -4 -13
q-11 -29 -12 -32q-47 -107 -102 -177q-20 -24 -17 -60q1 -21 5 -49v-1q0 -2 1 -4.5t2.5 -5.5l2.5 -5q0 -1 2 -5q7 -14 21 -14h4q45 14 84 36q41 23 52 56q7 18 27 50q33 55 101 83q8 2 12 2q24 0 34 -20q9 -17 1 -31l-6 -9q-15 -22 -19 -26l-4 -5q-50 -54 -85 -75
q-1 -1 -3.5 -3t-4.5 -3l-9 -6q-39 -30 -32 -82q5 -27 30 -37v-1q21 -7 43 -3q8 2 26 6q56 12 84 19q31 9 99 17q12 2 18 2q7 0 7 -8q-1 0 -1 -2v-1q-1 -1 -1 -2q-3 -1 -7 -3l-18 -9q-4 -1 -12.5 -3.5t-13.5 -3.5q-136 -38 -200 -49q-1 0 -4.5 -0.5t-5.5 -0.5q-4 -2 -12 -3
q-52 8 -73 33q-8 9 -11 24q-3 10 -3 21q0 2 -0.5 7t-1.5 7q-2 9 -11 9q-5 0 -7 -2l-45 -21l-9 -3l-7 -2q-7 -3 -11 -4q-6 -1 -17 -1q-44 0 -58 44q-4 10 -6 22l-3 12q-6 16 -17 16q-7 0 -12 -4q-34 -24 -40 -29q-61 -52 -188 -110q-21 -10 -51 -10q-8 0 -32 2q-25 3 -35 28
q-11 22 -16 53q-3 23 -12 42q-12 23 -10 31t23 23q19 12 28 32q10 20 44 63q24 25 60 35q7 3 15 3q16 0 29 -11zM713 225q-4 -4 -4 -7q1 -2 6 -5v0q6 0 8 2q14 12 20 18q3 2 9 8l1 1l-1 1q0 1 -2 3q-3 3 -4 3h-1q-11 -1 -23 -15q-6 -6 -9 -8v-1zM464 300q-2 -2 0 -5
q2 -4 7 -9h2q4 0 6 2v1q2 3 7 9.5t8 10.5q19 24 33 49l1 2q22 39 20 60v0l1 1v1q5 1 5 4q-1 2 -4 2q-1 0 -3 -4h-1l-1 -1v-1q-4 0 -5 -1q-7 0 -13 -3q-40 -37 -63 -115v-1v-2z" />
    <glyph glyph-name="spi" unicode="spi" horiz-adv-x="746" 
d="M339 157q8 2 16 16q10 22 16 31q2 3 15 8q4 1 11 -3.5t8 -8.5q2 -8 5.5 -23.5t5.5 -22.5t9 -5q17 5 28 10q29 14 114 29q30 7 81 -11q7 -2 24 -16q11 -8 11 -20q1 -10 1 -30q-2 -18 8 -33q9 -14 -6 -33q-19 -23 -38 -26q-1 0 -3 -0.5t-3 -0.5q-10 -2 -18.5 6.5t-6.5 18.5
q9 33 25 66q12 26 -18 36q-9 4 -17 5q-44 3 -93 -7q-32 -8 -70 -32q-19 -11 -19 -34q0 -12 -0.5 -36t-0.5 -35l-3 -18q-2 -6 -11.5 -13t-16.5 -6q-7 0 -10 4q-28 25 -23 57q3 33 14 57q6 17 -1 35q0 4 -3 4q-2 2 -5 -1q-8 -5 -9 -7q-58 -99 -78 -165q-47 -144 -68 -195
l-33 -75q-2 -5 -14 -10q-15 -4 -23 3.5t-9 20.5q0 9 3 18q9 35 26 78q37 88 54 118q22 42 39 123q4 16 11 76q1 4 -3 7.5t-9 3.5q-19 0 -23 -1q-42 -14 -99 -11h-6q-5 0 -10.5 -5t-6.5 -9q-4 -37 -5 -53q-1 -18 -9 -25.5t-28 -8.5h-3l-2 1q-4 2 -5 4q-2 3 -13.5 18.5
t-17.5 24.5q-10 16 -12 27q-2 8 -4 17.5t-4.5 21.5t-3.5 18q-1 7 5.5 16t14.5 11q1 0 5 0.5t6 0.5q7 0 12 -0.5t9 0.5t6.5 1t5 2t3.5 3t3 5t2.5 5.5t2 7t2.5 8.5q21 68 45 102q4 4 7 10q7 8 18.5 8t16.5 -9q7 -10 10 -22q6 -19 -11 -24q-22 -6 -28 -27q-16 -43 -19 -68
q-1 -7 4 -13.5t12 -8.5q33 -8 70 0q56 13 99 39q17 9 30 -10q2 -4 2 -5q2 -3 4.5 -8.5t3.5 -8.5q-8 -1 -10 -12q-1 -2 -1 -6t-1 -6q-4 0 -5 -1l-2 -4q5 0 6 7q11 6 11 24zM53 90l2 1q2 1 3 2q10 9 2 20q-1 2 -10 4q-3 0 -3 -4q-5 -11 1 -21q1 -1 2 -1t1.5 -0.5t1.5 -0.5z
M740 364l-4 -4q-9 -9 -21 -2q-11 5 -24 16q-15 13 -2 31q7 9 17.5 9.5t17.5 -8.5q13 -18 17 -36q0 -1 -0.5 -3t-0.5 -3z" />
    <glyph glyph-name="eb" unicode="eb" horiz-adv-x="646" 
d="M130 39q4 1 18.5 2.5t22.5 3.5q109 23 156 41q16 6 19 14q16 42 24 86q5 27 36 138q20 68 69 130q4 5 14 13q10 6 25 1q10 -6 8 -16q-4 -19 -22 -39q-34 -39 -52 -96q-6 -20 -18 -55.5t-16 -48.5q-1 -1 1 -6q3 -6 9 0q5 4 14.5 13t14.5 14q38 33 69 47q35 15 70 8
q28 -6 37 -32q3 -8 10 -44q0 -5 -2 -13q-29 -94 -111 -145q-29 -18 -77 -34q-26 -8 -57 -5q-13 0 -23 10q-9 10 -27 28q-12 11 -24 6q-7 -3 -23.5 -8.5t-24.5 -9.5q-22 -11 -117 -35q-48 -12 -95 9q-38 19 -49 57q-10 36 -9.5 53t11.5 54q22 70 44 100q46 67 121 78
q21 3 40 -13t13 -42q-2 -12 -15 -27q-44 -45 -111 -78l-30 -12q-18 -7 -22 -30q-2 -19 -2 -57q0 -16 13 -36q12 -18 32 -21q2 0 14.5 -1t21.5 -2zM593 215q0 9 -1 13q-1 8 -7.5 14t-14.5 6q-15 0 -19 -2q-72 -28 -104 -82q-8 -13 -15.5 -28.5t-16 -35t-13.5 -29.5
q-2 -3 1.5 -8.5t7.5 -5.5q15 -2 19 -1q104 25 153 116q10 16 10 43zM99 253h7q37 14 74 50l2 5q-9 5 -12 4q-29 -3 -56 -28q-16 -16 -18 -26q-1 -1 1 -3z" />
    <glyph glyph-name="werb" unicode="werb" horiz-adv-x="1318" 
d="M1314 220q4 -38 -7 -80q-22 -74 -81 -139q-17 -17 -36 -24q-24 -9 -60 -16q-33 -6 -55 21l-12 15q-5 7 -16 3q-12 -4 -18 -3q-8 0 -16 8q-11 15 -8 29q19 128 50 199q10 25 17 46q1 4 -1 18q-2 9 -17 5q-27 -8 -29 -9q-19 -6 -55 -12q-78 -13 -108 -92q-23 -62 -22 -115
q0 -6 -0.5 -16t-0.5 -15q0 -19 -17 -31q-21 -13 -32 7q-3 9 -4 11q-2 12 -18 14q-20 1 -43 -7q-34 -13 -71 -21q-4 -1 -61 -15q-34 -9 -72 11q-20 11 -29 31q-16 38 -16 60v50q0 16 -14 18q-37 1 -76 24l-21 12q-17 10 -22 7t-6 -24v-44q-2 -54 -21 -103q-13 -34 -41 -62
q-16 -16 -33 -11q-18 4 -24 26q-4 12 -6 37q-1 8 -1.5 25t-0.5 25q-2 8 -8 8q-8 0 -11 -2q-4 -3 -11 -9t-8 -7q-23 -19 -68 -44q-14 -6 -42 -10q-25 -2 -41.5 14.5t-19.5 36.5q-3 46 4 87q11 67 56 133t93 96q18 11 36 7q13 -3 19 -14q4 -6 1.5 -15.5t-8.5 -11.5l-6 -3
q-40 0 -76 -47q-10 -13 -48 -73q-2 -3 -4 -8.5t-3 -8.5q-7 -16 -14.5 -48t-8.5 -36q-6 -22 1 -49q6 -27 33 -20q45 14 70 39q21 20 61 62q15 13 28 7q16 -6 16 -24q1 -17 1 -50q0 -52 3 -62q0 -1 3 -4q5 0 6 1q15 10 22 30q16 63 15 85v62h2q0 11 -0.5 34t-0.5 35l3 18
q1 6 11 10t15 1q2 -1 7.5 -5t7.5 -6q6 -7 19 -20.5t20 -19.5q39 -39 90 -33q18 2 25 15q22 43 72 66q29 13 55 10q19 -4 27 -13q10 -9 10 -22q-2 -29 -24 -42q-62 -32 -90 -40q-29 -8 -34 -41q-8 -51 11 -91q14 -24 40 -26q18 -2 31 2q34 8 102 26l60 18q39 4 47 48
q12 67 51 126q15 24 38 41q24 19 56 24q54 6 81 10l36 9q32 6 50 34q18 30 54 49q22 11 40 -7q15 -17 3 -35q-2 -2 -8 -8.5t-9 -9.5q-4 -3 -11 -8t-13 -9t-12 -7q-26 -11 -41 -45q-23 -53 -33 -67q-5 -8 -9 -23q-17 -57 -26 -96q-3 -11 -3 -37q0 -5 2 -5q9 0 11 1
q9 9 28.5 27.5t29.5 28.5q17 18 49 56q12 15 42 37q26 18 58 37q5 4 14 2t14 -7q12 -11 15 -27zM559 246q-1 0 -1 -1q-2 -1 0 -3l1 -1h1h1q6 0 14 4q1 0 3 1q10 2 28 16q0 3 -1 3q-3 3 -5 3q-19 0 -32 -13l-1 -1zM1274 180v13q0 7 -6 10.5t-11 -0.5q-50 -28 -72 -57
q-10 -13 -38 -48t-43 -55q-10 -15 -4.5 -27t19.5 -17q2 -1 6 -1h6q51 6 81 42q40 48 62 140z" />
    <glyph glyph-name="et" unicode="et" horiz-adv-x="619" 
d="M729 279q1 -1 -0.5 -4t-5 -6t-5.5 -3q-12 -2 -18 -2t-19 -1t-19 -2q-45 -2 -68 -7q-19 -4 -43 -4q-19 -1 -52 -8t-46 -9q-14 -2 -18 -16q-30 -81 -22 -140q4 -20 5 -31q1 -17 -10.5 -31.5t-28.5 -16.5q-4 0 -9 3t-6 6q0 4 -1 10t-1 9q0 12 0.5 34t0.5 34q0 31 -21 64
q-4 6 -11 4q-13 -5 -21 -13q-42 -37 -161 -117q-12 -8 -68 -30q-14 -6 -37 -2q-16 2 -28 13.5t-13 27.5q-9 73 11 116q13 29 9 92q0 8 -11 11q-2 4 -2 6q-3 18 15 25q5 2 16 2l15 3q2 0 5.5 1t4.5 2q45 2 78 19q17 9 41 16q7 2 24 0q21 -4 25 -25q5 -26 -10 -40
q-64 -64 -137 -83q-16 -4 -23 -19q-16 -27 -23 -77q-3 -19 10 -41q7 -13 22 -11q16 5 17 6q32 12 92 52q63 38 120 89q23 19 24 42q1 7 14 20q7 7 15 10q7 2 14 6t12 7t11 9l9 9t9 11.5t8 11t8.5 12t7.5 11.5q6 8 14.5 24.5t9.5 18.5q15 29 38 49q3 3 11 7q11 8 22 -3
q4 -4 5.5 -11.5t-1.5 -11.5l-25 -35q-26 -33 -40 -63q-4 -12 -4 -18q0 -10 6 -10q80 4 131 7q35 -1 119 -3q3 0 9 -6zM166 276q1 1 1 3q0 -1 -2 -3h1zM152 271q-12 0 -3 -7q3 0 5 2q3 2 7 6q-6 0 -9 -1zM385 188q2 12 -3 17q-3 -1 -3 -2q-1 -5 -1 -17q2 -2 4 -3q0 1 1 2.5
t2 2.5z" />
    <glyph glyph-name="rb" unicode="rb" horiz-adv-x="605" 
d="M382 130l11 3q14 16 28 34q20 28 60 53l23 10q21 10 47.5 0t37.5 -32q6 -12 7 -18q5 -48 -11 -85q-24 -61 -84 -87q-9 -4 -29 -11.5t-29 -11.5q-14 -6 -37 -6q-31 1 -38 33q-1 2 -1.5 6.5t-0.5 6.5q-1 7 -13 7q-15 -1 -18 14q-3 12 -2 24q1 62 23 135l12 48q2 9 -6 9
q-33 5 -37 5q-32 2 -62 0q-70 -1 -124 -51q-10 -8 -16 -19q-34 -72 -40 -104q-2 -13 -14 -48q-7 -23 -13 -29t-32 -17q-8 -4 -16.5 2.5t-7.5 16.5q15 101 26 140q6 24 41 98q9 19 32 10l6 -3q13 -9 22 -3q6 3 17 9.5t20.5 11.5t17.5 8q17 5 68 12q25 2 37 -1q14 -4 41 -7.5
t39 -6.5t19 12q4 9 13 27.5t14 27.5q23 44 67 82q4 3 21 13q6 4 14 0.5t12 -10.5q6 -11 0 -17l-5 -5q-43 -22 -75 -88q-35 -70 -60 -144q-10 -29 -4 -55q-1 -1 -2 -1q-2 0 -2 -1q-1 0 -1 -3q0 1 2 3t2 3zM560 142q0 4 -0.5 10.5t-1.5 9.5q-3 16 -15 25t-31 2
q-28 -10 -42 -26q-30 -30 -72 -102q-2 -3 1 -18q5 -12 10 -16q10 -7 16 -6q60 15 91 37q28 21 37 49q2 5 3 11.5t2 13.5t2 10z" />
    <glyph glyph-name="era" unicode="era" horiz-adv-x="863" 
d="M553 245q-64 -9 -136 -48q-34 -17 -47 -57q-16 -50 -15 -68q0 -5 -2 -19q-2 -20 -18 -32q-2 -2 -6.5 -6t-7.5 -6q-15 -8 -22 6q-2 3 -6 11t-6 11q-2 4 -6 11.5t-6 11.5t-10.5 6.5t-12.5 0.5q-4 -1 -11.5 -4.5t-11.5 -4.5q-12 -5 -46 -20.5t-52 -23.5q-38 -19 -80 -8
q-29 6 -40 36q-29 74 20 157q14 21 42 56q19 25 59 46q18 10 36 -1.5t18 -30.5q0 -16 -6 -24q-5 -7 -17 -19l-60 -57q-10 -9 -27 -13q-17 -5 -23 -11.5t-6 -22.5q0 -17 4 -51q2 -12 13 -20t25 -7q17 2 24 5q18 8 52 24q50 24 74 36q38 18 65 -5q7 -6 10 2q11 37 16 48
q25 65 84 91q90 37 152 39q11 1 32 1q64 2 105 20q5 3 18 5q36 9 48 -28q6 -17 25 -25q9 -4 12.5 -14t-0.5 -18q-6 -14 -20 -40q-11 -21 -13 -48v-57q1 -8 9 -24q4 -11 20 -13q24 -3 43 5q4 1 25.5 9t33.5 12q6 2 11 -5q1 -2 -1 -11q0 -3 -4 -5q-48 -24 -80 -37
q-14 -5 -37 -5q-33 -3 -50 32q-9 21 -9 43l-3 63q0 1 -3 4q-5 0 -7 -2q-21 -16 -24 -19q-10 -11 -21.5 -20t-30.5 -22t-23 -16q-7 -5 -23 -11q-14 -4 -27 4.5t-15 22.5q-4 47 26 103q11 21 33 61q1 1 0 2.5t-2 2.5q-2 2 -5 2q-9 -2 -27.5 -5.5t-28.5 -5.5zM720 227v19
q0 7 -6.5 10t-11.5 0q-15 -8 -17 -9q-48 -34 -66 -82q-2 -5 -7 -14.5t-7.5 -17t-2.5 -15.5q0 -2 8 -7q4 -2 6 0q49 29 93 75q13 12 11 29v12z" />
    <glyph glyph-name="komplett" unicode="komplett" horiz-adv-x="3099" 
d="M2914 322q27 1 30 2q25 4 51.5 6.5t57.5 3.5t50.5 1.5t57 0t52.5 -0.5h28q11 -2 7 -9q-4 -9 -8 -10q-12 -4 -27 -4q-11 0 -30.5 -0.5t-36 -1t-30.5 -1.5q-82 -2 -110 -10q-14 -2 -21 -2q-39 2 -109.5 -6.5t-97.5 -9.5q-4 -1 -11 -1t-10 -1q-34 -10 -40 -33
q-3 -12 -17 -53q-26 -88 -65 -190q-9 -28 -22 -43q-5 -7 -21 -17q-5 -3 -12 1t-7 11q-1 7 3 20q33 77 83 257q1 2 1 6.5v6.5q1 7 -5 13t-12 5q-47 -6 -86 -25q-6 -3 -10 -9q-8 -12 -11 -18q-63 -161 -75 -201q-14 -46 4 -72q2 -3 -1.5 -8.5t-8.5 -7.5q-17 -3 -26 7
q-16 19 -12 38q1 7 4.5 23t4 22.5t-1.5 22.5q-2 5 -10 7q-4 1 -14 -1q-36 -14 -132 -42q-57 -17 -144 -8q-16 1 -28 18q-4 6 -19 37q-8 17 -30 12q-38 -7 -94 -20q-36 -9 -83 -4q-47 6 -68 52q-6 15 -12 47q-1 5 -1.5 10.5t-1 12.5t-0.5 11q-1 8 -6.5 12t-12.5 1
q-49 -20 -92 -48q-22 -15 -23 -41q0 -17 -3 -34q-1 -16 -20 -26t-37 -4.5t-29 22.5q-16 23 -2 45q6 10 16 23q1 2 7 11q5 9 0 20q-5 16 -11 26q-4 8 -13.5 9.5t-14.5 -5.5q-31 -42 -40 -57q-110 -172 -192 -391q-1 -2 -4.5 -11.5t-4.5 -14.5q-4 -19 -35 -29q-7 -2 -13.5 2.5
t-6.5 11.5q0 11 1 13q31 89 42 110q13 26 35 75.5t32 69.5q9 17 5.5 23t-20.5 8q-4 0 -16.5 0.5t-18.5 1.5q-31 3 -55 27q-17 15 -21 35q-7 30 -10 40q-1 2 -5.5 3.5t-5.5 0.5q-36 -20 -53 -32q-47 -32 -97 -54q-13 -7 -34 -5q-14 2 -18 18q-4 23 9 54q6 17 1 27q-3 5 -4 5
l-25 -10q-23 -15 -114 -52q-18 -7 -40 -4q-14 2 -21.5 11t-5.5 22l12 54q2 6 4 20q1 4 -2 10.5t-6 7.5q-42 17 -88 15q-19 -1 -24 -20q-1 -3 -5.5 -20.5t-8.5 -25.5q-37 -93 -139 -126q-37 -11 -59 10q-12 11 -38 15q-55 6 -156 30q-45 11 -91 48q-1 0 -31 37q-7 7 -12 0
q-12 -14 -35.5 -42.5t-35.5 -42.5q-35 -38 -43 -45q-6 -6 -25 -10q-11 -3 -19.5 4t-7.5 18l12 60q27 129 71 217q28 55 74 108l10 10q17 14 32 3q5 -5 7 -15t-2 -17q-7 -14 -11 -18q-67 -64 -103 -169q-24 -66 -23 -87q0 -4 6 -10q0 -1 2 0l4 2q8 6 11 9l18 21
q58 72 162 138q91 59 167 83q1 0 14 3q4 2 9.5 -2t5.5 -8q0 -7 -5 -12q-4 -5 -12 -7q-53 -19 -133 -72q-12 -9 -35 -23.5t-29 -18.5q-16 -10 -17 -36t12 -38q22 -22 45 -33q61 -25 110 -40q8 -2 23.5 -6.5t23.5 -6.5q27 -8 30 18q2 29 20 87q23 65 69 102q9 7 17.5 15.5
t19.5 21.5t15 18q8 10 20.5 10.5t21.5 -9.5q10 -10 14 -16q2 -5 7 -15.5t8 -15.5q9 -21 31 -24q24 -3 49 -3q28 -1 82 -11q14 -3 23 -14.5t8 -26.5q0 -2 -6 -40q0 -2 -2.5 -17.5t-3.5 -23.5q0 -1 8 -9q2 -2 7 1q112 45 168 95q15 13 49 37q7 6 19 0q7 -3 10 -11t0 -13
q-9 -18 -29 -54q-25 -48 -29 -63q-3 -8 4 -11q4 -2 7 -1q11 2 19 6q66 33 113 80q28 29 51 46q14 12 32 4q5 -2 8 -7.5t2 -9.5q-12 -30 -17 -45q-15 -39 -7 -82q6 -34 39 -45q19 -6 47 -8q7 -2 10 7q10 22 29.5 66.5t29.5 66.5q12 26 30 55q13 19 36 10q14 -4 18 -2.5
t9 12.5q1 3 4 9.5t5 9.5q1 2 9 10q7 8 19.5 7t17.5 -10t14.5 -27.5t14.5 -27.5q8 -16 14 -23q3 -5 12 -5q5 0 13 4q4 2 32.5 15t43.5 20q51 24 61 32q8 6 14 15.5t12 23t10 19.5q33 62 77 107q41 41 99 60q16 5 29.5 -5.5t12.5 -27.5q-2 -38 -25 -63q-6 -6 -21.5 -22.5
t-24 -25.5t-22.5 -21t-27 -21q-25 -17 -73 -53q-12 -9 -14 -23l-6 -48q-2 -15 6 -41q15 -43 57 -43q28 -2 48 2q21 3 58 11t51 11q22 5 32 23q5 9 46 77q19 29 52 56q45 38 99 47q25 4 42 -16q17 -17 9 -38q-11 -31 -36 -49q-23 -17 -83 -49q-34 -18 -59 -11q-1 1 -4.5 -3
t-2.5 -6q6 -24 -13 -43q-14 -14 -10 -31t22 -25q23 -10 40 -8q102 16 209 50q2 0 6 2q38 11 49 45q5 15 15.5 45.5t15.5 45.5q3 8 -5 11h-7q-31 -9 -35 -38q-2 -10 -14.5 -12.5t-19.5 5.5q-6 7 -16 23q-9 16 2 25q13 13 26 23q19 13 71 26q30 8 41 34q16 38 75 116
q8 12 20 19q7 4 20 2q7 -1 10.5 -8t-0.5 -12q-37 -55 -42 -64q-8 -12 -26 -48q-3 -5 0.5 -9.5t8.5 -4.5q12 -1 18 -0.5t18 3t18 3.5q33 3 42 29q8 24 48 68q5 6 17 12q9 3 20 3q3 1 8.5 -4t5.5 -9q2 -9 -1 -12q-3 -4 -9.5 -11.5t-10 -12.5t-8.5 -11.5t-8.5 -13.5t-5.5 -14
q-2 -4 0 -7q8 -8 10 -7q19 4 40 5.5t50 1.5t41 1h2h1h2h2h1h2h2h2h2h2h8zM1996 405q-15 3 -25 -5q-36 -24 -69 -73q0 -1 -3 -19q-4 0 -6 -1l-2 -5q3 -1 5 1t2 6q1 0 6 0.5t7 1.5q47 27 82 76q2 3 2 10.5v8.5q11 2 4 5zM663 176l-5 14q-9 8 -27 22q-13 10 -21.5 9.5
t-20.5 -11.5q-29 -28 -42 -71q-11 -33 -19 -73q-3 -14 10 -24q7 -6 19 -2q36 11 73 50q31 31 33 86zM2213 202q10 0 13 2q9 6 26 17t25 17t1 10q-5 2 -6 2q-36 -8 -58 -33l-6 -12q4 -2 5 -3z" />
    <glyph glyph-name="ko" unicode="ko" horiz-adv-x="813" 
d="M821 179q-6 -6 -9 -8q-39 13 -81 12q-19 -1 -24 -20q-1 -3 -5.5 -20.5t-8.5 -25.5q-37 -93 -139 -126q-37 -11 -59 10q-12 11 -38 15q-55 6 -156 30q-45 11 -91 48q-1 0 -31 37q-7 7 -12 0q-12 -14 -35.5 -42.5t-35.5 -42.5q-35 -38 -43 -45q-6 -6 -25 -10
q-11 -3 -19.5 4t-7.5 18l12 60q27 129 71 217q28 55 74 108l10 10q17 14 32 3q5 -5 7 -15t-2 -17q-7 -14 -11 -18q-67 -64 -103 -169q-24 -66 -23 -87q0 -4 6 -10q0 -1 2 0l4 2q8 6 11 9l18 21q58 72 162 138q91 59 167 83q1 0 14 3q4 2 9.5 -2t5.5 -8q0 -7 -5 -12
q-4 -5 -12 -7q-53 -19 -133 -72q-12 -9 -35 -23.5t-29 -18.5q-16 -10 -17 -36t12 -38q22 -22 45 -33q61 -25 110 -40q8 -2 23.5 -6.5t23.5 -6.5q27 -8 30 18q2 29 20 87q23 65 69 102q9 7 17.5 15.5t19.5 21.5t15 18q8 10 20.5 10.5t21.5 -9.5q10 -10 14 -16q2 -5 7 -15.5
t8 -15.5q9 -21 31 -24q24 -3 49 -3q7 0 10 -1q22 -9 36 -27q12 -17 3 -30zM630 90q31 31 33 86l-5 14q-9 8 -27 22q-13 10 -21.5 9.5t-20.5 -11.5q-29 -28 -42 -71q-11 -33 -19 -73q-3 -14 10 -24q7 -6 19 -2q36 11 73 50z" />
    <glyph glyph-name="kom" unicode="kom" horiz-adv-x="1360" 
d="M1255 17q-17 15 -21 35q-7 30 -10 40q-1 2 -5.5 3.5t-5.5 0.5q-36 -20 -53 -32q-47 -32 -97 -54q-13 -7 -34 -5q-14 2 -18 18q-4 23 9 54q6 17 1 27q-3 5 -4 5l-25 -10q-23 -15 -114 -52q-18 -7 -40 -4q-14 2 -21.5 11t-5.5 22l12 54q2 6 4 20q1 4 -2 10.5t-6 7.5
q-42 17 -88 15q-19 -1 -24 -20q-1 -3 -5.5 -20.5t-8.5 -25.5q-37 -93 -139 -126q-37 -11 -59 10q-12 11 -38 15q-55 6 -156 30q-45 11 -91 48q-1 0 -31 37q-7 7 -12 0q-12 -14 -35.5 -42.5t-35.5 -42.5q-35 -38 -43 -45q-6 -6 -25 -10q-11 -3 -19.5 4t-7.5 18l12 60
q27 129 71 217q28 55 74 108l10 10q17 14 32 3q5 -5 7 -15t-2 -17q-7 -14 -11 -18q-67 -64 -103 -169q-24 -66 -23 -87q0 -4 6 -10q0 -1 2 0l4 2q8 6 11 9l18 21q58 72 162 138q91 59 167 83q1 0 14 3q4 2 9.5 -2t5.5 -8q0 -7 -5 -12q-4 -5 -12 -7q-53 -19 -133 -72
q-12 -9 -35 -23.5t-29 -18.5q-16 -10 -17 -36t12 -38q22 -22 45 -33q61 -25 110 -40q8 -2 23.5 -6.5t23.5 -6.5q27 -8 30 18q2 29 20 87q23 65 69 102q9 7 17.5 15.5t19.5 21.5t15 18q8 10 20.5 10.5t21.5 -9.5q10 -10 14 -16q2 -5 7 -15.5t8 -15.5q9 -21 31 -24
q24 -3 49 -3q28 -1 82 -11q14 -3 23 -14.5t8 -26.5q0 -2 -6 -40q0 -2 -2.5 -17.5t-3.5 -23.5q0 -1 8 -9q2 -2 7 1q112 45 168 95q15 13 49 37q7 6 19 0q7 -3 10 -11t0 -13q-9 -18 -29 -54q-25 -48 -29 -63q-3 -8 4 -11q4 -2 7 -1q11 2 19 6q66 33 113 80q28 29 51 46
q14 12 32 4q5 -2 8 -7.5t2 -9.5q-12 -30 -17 -45q-15 -39 -7 -82q6 -34 39 -45q15 -5 35 -7q4 -4 5 -7q6 -15 -8 -20q-4 -1 -10 0h-4q-4 0 -16.5 0.5t-18.5 1.5q-31 3 -55 27zM630 90q31 31 33 86l-5 14q-9 8 -27 22q-13 10 -21.5 9.5t-20.5 -11.5q-29 -28 -42 -71
q-11 -33 -19 -73q-3 -14 10 -24q7 -6 19 -2q36 11 73 50z" />
    <glyph glyph-name="komp" unicode="komp" horiz-adv-x="1667" 
d="M1651 95q0 -17 1 -26q0 -2 -1 -6t-1 -6q-1 -16 -20 -26t-37 -4.5t-29 22.5q-16 23 -2 45q6 10 16 23q1 2 7 11q5 9 0 20q-5 16 -11 26q-4 8 -13.5 9.5t-14.5 -5.5q-31 -42 -40 -57q-110 -172 -192 -391q-1 -2 -4.5 -11.5t-4.5 -14.5q-4 -19 -35 -29q-7 -2 -13.5 2.5
t-6.5 11.5q0 11 1 13q31 89 42 110q13 26 35 75.5t32 69.5q9 17 5.5 23t-20.5 8q-4 0 -16.5 0.5t-18.5 1.5q-31 3 -55 27q-17 15 -21 35q-7 30 -10 40q-1 2 -5.5 3.5t-5.5 0.5q-36 -20 -53 -32q-47 -32 -97 -54q-13 -7 -34 -5q-14 2 -18 18q-4 23 9 54q6 17 1 27q-3 5 -4 5
l-25 -10q-23 -15 -114 -52q-18 -7 -40 -4q-14 2 -21.5 11t-5.5 22l12 54q2 6 4 20q1 4 -2 10.5t-6 7.5q-42 17 -88 15q-19 -1 -24 -20q-1 -3 -5.5 -20.5t-8.5 -25.5q-37 -93 -139 -126q-37 -11 -59 10q-12 11 -38 15q-55 6 -156 30q-45 11 -91 48q-1 0 -31 37q-7 7 -12 0
q-12 -14 -35.5 -42.5t-35.5 -42.5q-35 -38 -43 -45q-6 -6 -25 -10q-11 -3 -19.5 4t-7.5 18l12 60q27 129 71 217q28 55 74 108l10 10q17 14 32 3q5 -5 7 -15t-2 -17q-7 -14 -11 -18q-67 -64 -103 -169q-24 -66 -23 -87q0 -4 6 -10q0 -1 2 0l4 2q8 6 11 9l18 21
q58 72 162 138q91 59 167 83q1 0 14 3q4 2 9.5 -2t5.5 -8q0 -7 -5 -12q-4 -5 -12 -7q-53 -19 -133 -72q-12 -9 -35 -23.5t-29 -18.5q-16 -10 -17 -36t12 -38q22 -22 45 -33q61 -25 110 -40q8 -2 23.5 -6.5t23.5 -6.5q27 -8 30 18q2 29 20 87q23 65 69 102q9 7 17.5 15.5
t19.5 21.5t15 18q8 10 20.5 10.5t21.5 -9.5q10 -10 14 -16q2 -5 7 -15.5t8 -15.5q9 -21 31 -24q24 -3 49 -3q28 -1 82 -11q14 -3 23 -14.5t8 -26.5q0 -2 -6 -40q0 -2 -2.5 -17.5t-3.5 -23.5q0 -1 8 -9q2 -2 7 1q112 45 168 95q15 13 49 37q7 6 19 0q7 -3 10 -11t0 -13
q-9 -18 -29 -54q-25 -48 -29 -63q-3 -8 4 -11q4 -2 7 -1q11 2 19 6q66 33 113 80q28 29 51 46q14 12 32 4q5 -2 8 -7.5t2 -9.5q-12 -30 -17 -45q-15 -39 -7 -82q6 -34 39 -45q19 -6 47 -8q7 -2 10 7q10 22 29.5 66.5t29.5 66.5q12 26 30 55q13 19 36 10q14 -4 18 -2.5
t9 12.5q1 3 4 9.5t5 9.5q1 2 9 10q10 10 24 6q1 -1 3 -1l6 -3l1 -1q1 -2 2 -2l1 -2q4 -7 11.5 -21.5t11.5 -21.5q2 -4 5 -11.5t4 -11.5q10 -25 17 -46q10 -26 11 -48zM630 90q31 31 33 86l-5 14q-9 8 -27 22q-13 10 -21.5 9.5t-20.5 -11.5q-29 -28 -42 -71q-11 -33 -19 -73
q-3 -14 10 -24q7 -6 19 -2q36 11 73 50z" />
    <glyph glyph-name="tt" unicode="tt" horiz-adv-x="450" 
d="M554 377q-6 -2 -9 -2q-20 -2 -72.5 -8.5t-80.5 -7.5q-14 0 -21 -2q-34 -7 -41 -32q-2 -10 -8 -28t-8 -25q-26 -88 -65 -190q-12 -30 -22 -43q-5 -7 -21 -17q-5 -4 -12 1q-6 3 -8 11q0 7 4 19q13 29 25.5 66t19 58t21 71.5t17.5 61.5q1 2 1 7v7q0 6 -5.5 12.5t-11.5 5.5
q-42 -6 -86 -25q-6 -3 -10 -9q-8 -12 -11 -18q-60 -148 -75 -201q-14 -46 4 -72q2 -4 -2 -9t-9 -7q-17 -4 -25 7q-16 17 -13 38q10 43 9 55q4 23 7 37q1 5 18 47q1 2 2.5 6t2.5 6q6 18 17 50t14 42q3 8 -6 10q-3 1 -6 0q-30 -8 -36 -37q-1 -11 -13.5 -13t-19.5 6
q-1 1 -16 22q-9 15 2 26q16 16 26 23q21 14 71 26q31 9 41 34q4 10 10 21.5t10.5 19t13 20t13 18t15 19.5l13.5 18q9 12 20 18q8 5 19 3q7 -1 11 -8t0 -13q-5 -7 -13.5 -19.5t-15.5 -23t-13 -20.5q-10 -15 -26 -49q-3 -5 0 -9t8 -5q11 -1 30 2.5t25 3.5q32 3 42 30
q8 25 48 67q7 9 17 12q3 2 20 4q3 0 8 -4.5t6 -8.5q2 -8 -1 -13q-36 -42 -43 -62q0 -6 1 -7q8 -8 10 -7q19 4 40.5 5t49 1t41.5 1h9h8h6h3h1q1 1 2 1q11 -2 20 -6t12 -9t-9 -9z" />
    <glyph glyph-name="di" unicode="di" horiz-adv-x="717" 
d="M661 38q-17 0 -23 17q-10 29 -6 51q0 2 0.5 4t0.5 4q5 35 5 45q0 7 -5 39q-1 2 -1 5q-1 7 -8.5 12t-15.5 5q-4 0 -10 -2l-9 -6q-24 -14 -35 -23q-34 -26 -50 -39q-74 -55 -113 -94q-30 -28 -54 -39q-17 -5 -29 -8h-3q-18 0 -24 17q0 1 -0.5 3t-0.5 3q-3 8 -3 16
q-1 22 -1 65v22l1 19q2 52 2 74q0 2 -3 8q-2 2 -5 2q-6 0 -9 -6q-9 -15 -17 -31q-4 -7 -11.5 -20.5t-11.5 -20.5q-7 -14 -22 -16q-22 -1 -39 -23q-46 -58 -96 -94q-14 -8 -26 -14q-4 -2 -8 -2q-8 0 -15 5.5t-9 12.5q-15 118 62 225q11 17 51 61q16 16 23 24q2 1 5.5 4t4.5 5
h1q20 13 35 13q26 0 45 -31q2 -3 10 -19l3.5 -7l3.5 -7q1 -1 4 -1q4 0 5 1l4 2q12 10 14 12q42 52 63 102q7 17 34 62q9 15 10 17q6 8 10 12q1 2 4 5q7 9 19 9q6 0 12 -4q12 -12 6 -25q-2 -4 -8.5 -15.5t-9.5 -17.5l-24 -39q-7 -12 -23 -38q-42 -71 -52 -172q-1 -13 -5 -39
q-1 -6 -2.5 -18t-2.5 -18q-2 -35 8 -52q5 -10 15 -10q2 0 6 2q2 0 4 2t4 2q1 1 5 3.5t6 4.5q8 5 24 19q34 32 116 93q45 34 49 37q21 15 45 27q5 4 13 7q9 6 19 6q14 0 26 -13q14 -14 18 -23q12 -27 14 -57v-18q0 -4 0.5 -13t0.5 -14q-2 -30 11 -59q5 -15 -1 -24
q-8 -12 -28 -14h-3zM201 269q1 3 1 16q0 1 -0.5 3.5t-0.5 3.5q0 6 -6 10.5t-13 4.5h-6q-14 -5 -38 -29l-9 -9q-48 -48 -61 -102q-4 -18 -7 -26q-1 -4 -3.5 -12.5t-3.5 -12.5q-2 -10 0 -21v-2q2 -9 10 -9q3 0 4 1h2q1 1 3 1t3 1l3 4q33 34 99 106q6 7 10 21q9 30 13 51z
M724 448q1 -1 1 -7q0 -1 1 -3v-2q-2 -11 -12 -11h-1q-38 4 -84 29q-6 4 -15 15q-9 12 -3 27q9 19 25 19q1 0 2 -1q6 0 14 -3q1 0 5 -4q34 -42 67 -59z" />
    <glyph glyph-name="Stu" unicode="Stu" horiz-adv-x="1118" 
d="M1046 -34q-12 10 -13 24q-10 67 5 133q8 34 10 52v17q-1 2 -1 6q-2 14 -20 14q-4 0 -8 -2q-43 -27 -100 -81q-17 -16 -51 -49t-52 -50q-22 -20 -59 -23q-10 0 -16 9q-5 6 -3 12v2l1 2q1 3 3.5 11t4.5 12q2 5 7.5 16t8.5 16q5 9 15 29q21 45 11 97q-5 24 -26 29
q-38 7 -61 7q-64 0 -114 -37q-56 -40 -61 -110v-20q0 -4 -0.5 -12.5t-0.5 -12.5q-3 -41 -51 -52q-3 0 -8 4t-6 6q0 1 -0.5 3t-0.5 3q-3 7 -3 15q-3 61 15 118q31 91 72 172q5 7 -2 17q-4 4 -12 4q-1 0 -2 -1h-2q-2 0 -16 -6l-6 -3q-5 -3 -16.5 -8t-17.5 -7q-64 -28 -96 -43
q-39 -18 -60 -29q-14 -8 -24 -12q-18 -9 -25.5 -13t-16 -11.5t-11 -11.5t-5 -16t-3 -21.5t-0.5 -31.5q0 -3 -0.5 -10.5t-0.5 -12.5q-1 -23 -1 -70q0 -28 -1 -42v-6q0 -16 -1 -24q-9 -49 -44 -72q-36 -26 -75 -26q-28 0 -57 13q-32 13 -48 32q-33 39 -19 89q17 50 42 77
q2 3 8 9q48 53 85 76q20 12 48 36q2 2 6 5t6 5q21 17 22 41q3 33 21 97l1 5q18 63 63 108q26 27 61 37q9 4 20 4q24 0 45 -22q13 -13 35 -43q2 -2 5.5 -7t5.5 -8q7 -8 13 -34l3 -15q3 -10 16 -10q3 0 7 2q15 7 48.5 23.5t52.5 25.5q7 4 15 4q12 0 23 -10q8 -8 5 -16l-3 -6
q-3 -5 -9 -17t-9 -17t-9.5 -15.5t-9.5 -15.5q-2 -4 -16 -26q-6 -11 -3 -19q2 -4 6 -5l1 -1h2q6 -2 9 -2t4 1q16 8 50 14q22 5 29 7q18 5 35 5q31 0 66 -14q29 -10 50 -41q9 -14 10 -26q0 -7 1 -22t2 -22q0 -15 1 -23q0 -5 5 -8q2 -1 4 -1q3 0 7 2q11 8 33 25t33 25
q23 18 71 54l3 3q23 15 27 17q9 5 21 5q21 0 35 -20q12 -21 12 -33v-2q0 -30 -1 -35q0 -2 -1 -5t-1 -4q-8 -48 -15 -71q-11 -42 -8 -91q2 -14 10 -21q3 -3 16 -5h3v-1q0 -2 0.5 -5.5t0.5 -4.5q0 -12 -7 -19q-6 -6 -13 -6q-4 0 -10 2q-12 6 -25 16zM187 31v41v15h2v3
q0 4 -0.5 11t-0.5 10q0 18 -2 54q0 10 -10 10q-3 0 -5 -1q-1 0 -2 -0.5t-2 -0.5q-6 -2 -10 -4q-82 -54 -124 -118q-9 -12 -14 -27q-17 -37 -5 -74q7 -17 25 -29q22 -14 63 -14h10q23 0 38.5 13t20.5 30q17 48 16 81zM440 363v6q-15 49 -46 77q-11 10 -29 10q-25 0 -42 -17
q-52 -54 -64 -109q-1 -8 -7 -24q-2 -5 -4 -11q0 -1 -1 -2.5t-1 -2.5t-1 -2q-4 -13 2 -22q1 -3 4 -3h3q1 0 3 -0.5t3 -0.5t3 0.5t3 0.5q104 48 156 71q5 3 11 12l5 10v2q1 1 1 2v1q1 1 1 2z" />
    <glyph glyph-name="hrten" unicode="hrten" horiz-adv-x="1961" 
d="M1914 -46q-46 7 -62 58q-9 31 -5 60l3 27q5 53 14 87q1 4 -4 9q-1 1 -3 1q-3 0 -5 -2q-28 -22 -46 -38q-12 -10 -36.5 -30.5t-36.5 -30.5q-19 -15 -46 -35q-6 -3 -10 -7q-48 -34 -107 -40h-2q-10 0 -18 8q-7 7 -7 18v1q0 20 3 29q2 8 6.5 23.5t6.5 23.5q9 28 14 49
q2 6 0 17v4h1v1q0 1 2 1t2 1q2 1 2 4q0 1 1 2v2h-2q-1 0 -1 0.5t-1 0.5q-5 0 -6 -7h-1v0h-1v-2v-1h-3l-1 -1q-12 -5 -15 -7l-20 -20q-16 -16 -24 -23q-74 -64 -186 -110q-2 -2 -5 -2q-1 0 -1 -0.5t-1 -0.5q-10 -2 -14 -2q-15 0 -27.5 9.5t-17.5 23.5q-8 32 -1 61q9 33 13 43
q2 5 5 15.5t4 15.5q1 6 -1 16q-1 3 -7 7l-2 1h-4h-2q-41 -9 -87 -9q-13 0 -43 2h-12q-23 0 -31 -26l-1 -2q-13 -42 -14 -51q-11 -66 -13 -92q-3 -32 -35 -42q-3 -1 -7 -1q-6 0 -13 5q-5 5 -5 12v7q0 11 2 31v2q11 77 24 152q4 24 1 46q-9 43 33 59q30 10 32 50q0 1 -0.5 3
t-0.5 3q-1 1 -1 2q-2 7 -8 7q-3 0 -7 -2q-3 -2 -8 -4.5l-7 -3.5q-8 -4 -13 -6q-4 -2 -17 -9t-20 -10q-7 -4 -20 -10.5l-19 -9.5q-67 -34 -125 -34q-16 0 -31 -3q-56 -14 -79 -48l-1 -1q-34 -50 -49 -78q-10 -21 -24 -42q-30 -52 -41 -81q-4 -11 -20 -31q-8 -10 -14 -20
q-13 -21 -51 -29q-15 -3 -19 14q-1 5 -1 14q0 2 -1 5t-1 4q0 8 -8 8h-5q-19 -4 -44 -20q-2 -1 -6.5 -3.5t-6.5 -3.5q-31 -17 -64 -24h-10q-21 0 -38 12t-24 31q-6 24 -6 30q-4 61 9 99q2 5 4 29q0 1 0.5 4t0.5 5q0 4 -5 9l-2 1h-3q-3 0 -4 -1q-10 -5 -14 -8q-30 -16 -39 -23
q-22 -18 -50 -36q-69 -50 -87 -66q-28 -26 -69 -27h-4q-22 0 -30 10q-8 11 -2 36q2 10 5 21t7 24.5t6 20.5q7 22 11 38q14 47 53 145l3 8q21 52 88 148l3 4q5 9 19 9q8 0 13 -4q8 -6 12.5 -15.5t2.5 -14.5q-1 -2 -2.5 -6t-2.5 -6q-4 -8 -16.5 -36.5t-19.5 -43.5
q-9 -17 -20 -22q-30 -16 -40 -57q-9 -41 -25 -72q-15 -29 -31 -91l-3 -12q-1 -5 5 -13l1 -1q1 -1 3 -1q3 0 7 2q4 3 12 7q30 19 34 22q103 75 188 124q3 2 9.5 5t9.5 4l8 4h3q5 0 12 -3.5t8 -7.5q0 -1 0.5 -3t0.5 -3q5 -14 4 -23q-2 -5 -10 -47q-6 -41 -15 -66
q-9 -23 -5 -63q1 -7 7 -21l1 -1q9 -18 29 -18q1 0 3 0.5t3 0.5q67 22 81 28q28 13 34 16q14 8 21 11q20 8 29 27q3 7 11 23q53 107 66 171q3 21 26 21q6 0 14 -3q9 -2 13 -6q12 -7 23 2q4 3 11 10l6 6q33 31 83 36q40 3 77 9q87 17 148 55q69 43 112 113q3 5 12 14q2 2 3 4
q3 4 13 4q19 0 23 -12q8 -18 1 -28q-28 -45 -50 -135q-1 -2 -2 -5.5t-1 -5.5q-1 -6 -5 -17.5t-5 -16.5q-4 -12 -6 -17q-1 -2 2 -10q5 -11 11 -12q2 0 3 -1h2l2 -1q24 -5 56 -5q46 0 91 14q28 9 46 29l14 14l30 30q25 23 44 29q6 3 13 3q14 0 25 -14q8 -12 5 -20
q-6 -23 -22 -39q-19 -19 -57 -38q-35 -17 -54 -56q-20 -42 -28 -73q-2 -11 -2 -33v-13q0 -5 4 -7q8 -8 14 -8h2q6 2 9 2q14 4 21 7q50 23 138 94l3 3q40 32 101 84q6 5 16.5 15.5l15.5 15.5q11 12 23 23q3 3 13 3q8 1 18 -10q5 -6 3 -13q-5 -13 -17 -43q-39 -82 -40 -83
q-14 -27 -22 -76q-1 -1 -1 -3t-1 -3q0 -7 4 -9q1 0 1 -0.5t1 -0.5q6 -4 11 -4h2q6 1 22 9q126 82 195 153q1 1 28 31q12 14 19 21q2 3 15 13l2 1q5 3 10 3q8 0 15 -5.5t8 -12.5l1 -2v-20l-1 -5q-15 -61 -23 -85q-19 -57 -19 -138q0 -48 40 -63q9 -3 18 -12q3 -7 0 -12
q-2 -7 -9 -7q-1 0 -22 3q-1 0 -4 1t-5 1z" />
    <glyph glyph-name="wa" unicode="wa" horiz-adv-x="715" 
d="M576 100q-1 5 -1.5 14.5t-0.5 14.5q0 2 -5 2q-11 -1 -26 -14q-30 -25 -62 -36q-16 -6 -35 -9q-8 -1 -16 5.5t-9 14.5q-5 28 6 54q18 40 32 58q12 16 17 25q3 4 1.5 9t-5.5 5q-2 0 -5.5 1t-6.5 1.5t-6 0.5q-45 2 -84 10q-7 2 -24 0q-6 0 -8 -8q-4 -18 -4 -30
q1 -37 -10 -95q-13 -69 -77 -111q-12 -8 -25 -3t-19 19q-11 26 -13 46q-4 30 -13 46q-4 7 -11 3q-5 -4 -16.5 -12t-17.5 -12q-43 -32 -73 -43q-7 -3 -23 -5q-17 -2 -26 12q-14 21 -8 40q7 30 45 84q40 55 90 89q4 4 11 6q11 4 22 -4q4 -3 6.5 -10.5t0.5 -11.5
q-15 -28 -17 -33q-8 -26 -41 -28q-9 0 -16 -7q-26 -25 -46 -63l-3 -12q-4 -7 4 -10q3 -3 5 -1q16 5 17 6q32 21 92 69q14 11 27.5 6t18.5 -23q7 -21 7 -47q0 -7 1.5 -21t2.5 -21q2 -13 11 -13q9 -1 16 7q27 27 33 69q12 87 11 151q0 11 8.5 18t19.5 6h6q1 0 3.5 -0.5t4.5 -1
t4 -1.5q13 -6 38.5 -10t31.5 -6q61 -15 138 -3q10 2 24 -3q15 -7 11 -19q-3 -21 -20 -29q-3 -1 -11 -3t-12 -4q-62 -36 -77 -96q-1 -2 5 -10q0 -1 2 -1t3 1q74 40 132 104q6 6 18 16q4 3 12 0t9 -8q6 -18 0 -35q-3 -9 -15 -33q-24 -47 -19 -106l3 -12q2 -6 10 -11.5t14 -4.5
q55 8 98 29q4 1 11 -3q4 -2 4 -8t-3 -8q-7 -7 -9 -8q-30 -17 -73 -29q-13 -4 -42 -4q-31 0 -47 33q-14 30 -6 65z" />
    <glyph glyph-name="wadieresis" unicode="w&#xe4;" horiz-adv-x="752" 
d="M577 97q0 10 -2 30q-3 2 -4 2q-12 -1 -26 -15q-32 -25 -63 -36q-2 -1 -35 -9q-8 -1 -16 5.5t-9 15.5q-5 27 6 53q17 40 32 58q8 11 17 25q3 4 1.5 9t-5.5 6q-2 0 -5.5 1t-6.5 1.5t-6 0.5q-44 0 -84 10q-11 2 -24 0q-6 -2 -8 -8q-4 -20 -4 -30q1 -37 -10 -96
q-12 -67 -77 -111q-13 -8 -26 -3t-19 19q-9 23 -12 46q-3 27 -14 47q-3 7 -10 2q-13 -8 -35 -24q-40 -31 -73 -43q-13 -4 -23 -5q-17 -2 -26 12q-14 21 -8 40q8 30 46 85q38 54 89 89q3 2 11 6q13 3 23 -5q4 -3 6 -10.5t0 -11.5q-2 -3 -5.5 -9.5t-6.5 -12t-4 -10.5
q-9 -26 -42 -28q-10 -2 -16 -8q-30 -30 -45 -63q-1 -2 -2 -6t-2 -6q-4 -7 4 -10q1 -1 6 -1q13 5 16 7q37 22 92 68q14 12 27.5 7t18.5 -23q8 -26 8 -48q0 -14 4 -42q0 -5 3.5 -9t7.5 -4q9 0 16 7q27 27 33 69q12 100 11 151q0 11 8.5 19t19.5 6h6l5 -1q5 -1 7 -2
q10 -5 21.5 -7.5t26.5 -4.5t22 -4q63 -15 139 -3q12 2 23 -3q14 -6 12 -20q-5 -22 -20 -28q-3 -2 -11 -4t-12 -4q-61 -33 -78 -96q0 -2 5 -10q3 -2 5 0q73 39 133 104q3 3 18 16q4 3 11 0.5t9 -7.5q6 -18 0 -36q-4 -11 -14 -33q-25 -49 -19 -106l3 -12q2 -5 10 -11t14 -5
q55 8 98 29q4 1 11 -3q4 -2 4 -8t-3 -8q-6 -6 -9 -8q-30 -17 -73 -29q-13 -4 -42 -4q-32 0 -47 33q-15 29 -7 65zM708 476h102q4 0 9 -7q2 -2 -1.5 -7.5t-7.5 -6.5q-2 0 -6 -0.5t-6 -0.5q-24 -2 -36 -2q-54 0 -156 -18q-3 -1 -9.5 -2.5t-11.5 -2.5t-9 -1q-30 -2 -50 -19
q-13 -11 -40 -5q-14 4 -16 16q-1 7 2.5 16t8.5 11q50 15 52 15q83 15 132 13h43v1z" />
    <glyph glyph-name="des" unicode="des" horiz-adv-x="908" 
d="M886 136q-1 -54 -35 -100q-2 -5 -14 -14q-34 -28 -89 -41q-19 -4 -31 4q-5 3 -7 10q-2 5 0 10t7 6l18 6q29 1 66 27q31 23 38 59q8 40 -10 116l-6 12q-10 19 -33 14q-22 -4 -46 -24q-14 -11 -39 -36q-49 -52 -161 -134q-33 -25 -69 -38q-15 -4 -25 -5q-34 -5 -53 21
q-3 4 -6.5 9.5t-8 12.5t-6.5 11q-7 10 -16 3q-15 -12 -47 -23q-17 -6 -31.5 1t-21.5 24q-15 42 -17 70q0 10 -4 26q-1 5 -9 8t-13 -1l-18 -18q-12 -12 -40.5 -40t-44.5 -42q-16 -15 -43 -31q-18 -10 -38 -7q-19 3 -25 18q-11 29 -6 57q8 40 34 77q45 61 86 90q24 16 52 28
q38 18 67 -7q11 -7 16 5q9 18 11 24q2 7 7 21.5t7 21.5q19 54 76 106q11 9 18 1q5 -5 11 -15q1 -2 1 -13q0 -2 -1 -6.5t-2 -6.5l-18 -42q-33 -71 -57 -111q-16 -28 -21 -55q-12 -55 1 -110q0 -2 2 -6l3 -6q9 -21 26 -12q27 17 33 22q18 13 22 31q8 26 10 38q20 102 116 160
q6 5 24 9q12 1 22 -7t10 -19q2 -24 -7 -38q-31 -55 -40 -68q-42 -59 -67 -81q-8 -7 -17 -19q-12 -15 -6 -31q5 -14 14 -29q2 -5 10 -8t13 -1q44 14 87 45q26 18 57 44q14 12 53 42.5t58 49.5q25 25 71 48q9 5 25 5q15 2 25 -7q39 -39 43 -79q1 -12 9 -62zM223 251
q-1 7 -9.5 12.5t-15.5 3.5q-55 -15 -83 -50q-4 -5 -18 -20t-21 -24q-22 -27 -27 -73q0 -8 5 -11q6 -4 13 0q4 2 11 6t12.5 7.5t9.5 7.5q22 21 60.5 60.5t50.5 51.5q7 9 10 17q2 4 2 12zM514 285q5 7 -3 9t-12 -2q-42 -32 -54 -72q-1 -2 1 -6q3 -8 10 -2q36 30 58 73z" />
    <glyph glyph-name="flag" unicode="flag" horiz-adv-x="1388" 
d="M1373 214q3 -37 1 -111q-4 -97 -49 -196q-48 -105 -125 -177q-48 -44 -119 -73q-21 -8 -48 -3q-8 2 -12 7q-7 7 -6 11q0 2 3 5t6 3q30 0 72 22q108 54 172 179q26 50 35 84q27 105 17 166q0 1 3 41q1 7 -4 28q-1 3 -11 8l-5 -2q-3 -4 -9 -11t-9 -11q-9 -14 -13 -16
q-24 -15 -64 -50.5t-62 -49.5q-31 -21 -35 -23q-4 -3 -12 -7q-41 -17 -63 12q-11 12 -25 6q-78 -34 -118 -47q-28 -8 -55 -5q-32 5 -46 29q-6 11 -14.5 31t-11.5 27q-5 9 -12 4q-11 -8 -33.5 -24.5t-34.5 -24.5q-19 -13 -46 -15q-34 -3 -47 22q-7 14 -24 8q-17 -7 -49.5 -20
t-48.5 -20q-62 -22 -96 -18q-14 2 -20 4q-12 6 -17 12q-22 29 -21 58q2 42 5 63q3 20 10 56t9 48q1 4 -4 8.5t-10 2.5q-2 -1 -7 -1q-60 -28 -174 -53q-11 -2 -20 -6q-12 -10 -14 -15q-2 -4 -10 -33q-32 -105 -42 -199q-1 -10 -5.5 -40t-5.5 -48.5t0 -34.5v-22v-21v-16
q0 -12 -4 -20t-14 -14q-4 -2 -11.5 3t-9.5 11q0 1 -1 3.5t-1 3.5q1 27 0 49t1 49t7 49q9 41 14 97t35 164q1 3 1 21q0 4 -5 4q-23 2 -34 0q-13 -3 -67 -23q-17 -6 -27 15q-4 8 -1.5 18.5t9.5 12.5q26 13 45 18q41 10 76 14q33 3 44 38q15 45 51 100q29 42 72 76
q26 21 60 14.5t49 -35.5q10 -22 5 -48q0 -1 -8 -9q-3 0 -7 2q-5 6 -15.5 18.5t-15.5 18.5q-13 13 -27 5q-52 -27 -74 -62q-40 -65 -47 -86q-2 -4 2 -9.5t8 -6.5q48 -4 109 19q9 3 26 11t26 11q47 14 76 58q25 40 76 72q3 2 6 3.5t7 3t6 2.5q8 4 18 1.5t14 -8.5q5 -7 5 -18
t-4 -16q-12 -14 -19 -20q-54 -46 -64 -54q-31 -25 -43 -63q-8 -22 -13 -32q-15 -29 -13 -61q0 -7 -5 -42q0 -2 -2 -9.5t-2 -11.5q0 -31 13.5 -47.5t44.5 -8.5q21 5 44.5 12t52 16t44.5 14q44 13 52 51q39 86 145 169q4 3 12.5 6.5t12.5 5.5q9 4 23 -3.5t15 -18.5
q3 -16 2 -28q-2 -31 10 -47q15 -22 3 -46q-10 -22 -13 -33q-8 -33 1 -62q5 -17 22 -27.5t33 -6.5q10 2 46 14q11 4 53 20q49 21 53.5 26t17.5 49q11 43 46 86q43 56 121 80q27 9 48 -1q29 -15 53 1q1 1 3.5 1.5t3.5 0.5q13 3 27 -6t15 -22q2 -8 2 -14q3 -58 4 -70zM768 195
q4 30 -3 47q-9 2 -12 0q-72 -43 -98 -140q0 -2 2 -6q4 -9 12 -4q44 25 89 77q8 10 10 26zM1258 247q5 15 -7 25t-26 7q-3 0 -7 -2q-70 -31 -101 -82q-15 -25 -19 -52q0 -2 3.5 -5t4.5 -2q7 1 28 7l2 1h4q41 -5 77 39q13 16 33 45q2 3 4.5 10t3.5 9z" />
    <glyph glyph-name="fla" unicode="fla" horiz-adv-x="929" 
d="M943 28l-6 -3q-20 -8 -44 -16q-28 -8 -55 -5q-32 5 -46 29q-6 11 -14.5 31t-11.5 27q-5 9 -12 4q-11 -8 -33.5 -24.5t-34.5 -24.5q-19 -13 -46 -15q-34 -3 -47 22q-7 14 -24 8q-17 -7 -49.5 -20t-48.5 -20q-62 -22 -96 -18q-14 2 -20 4q-12 6 -17 12q-22 29 -21 58
q2 42 5 63q3 20 10 56t9 48q1 4 -4 8.5t-10 2.5q-2 -1 -7 -1q-60 -28 -174 -53q-11 -2 -20 -6q-12 -10 -14 -15q-2 -4 -10 -33q-32 -105 -42 -199q-1 -10 -5.5 -40t-5.5 -48.5t0 -34.5v-22v-21v-16q0 -12 -4 -20t-14 -14q-4 -2 -11.5 3t-9.5 11q0 1 -1 3.5t-1 3.5q1 27 0 49
t1 49t7 49q9 41 14 97t35 164q1 3 1 21q0 4 -5 4q-23 2 -34 0q-13 -3 -67 -23q-17 -6 -27 15q-4 8 -1.5 18.5t9.5 12.5q26 13 45 18q41 10 76 14q33 3 44 38q15 45 51 100q29 42 72 76q26 21 60 14.5t49 -35.5q10 -22 5 -48q0 -1 -8 -9q-3 0 -7 2q-5 6 -15.5 18.5
t-15.5 18.5q-13 13 -27 5q-52 -27 -74 -62q-40 -65 -47 -86q-2 -4 2 -9.5t8 -6.5q48 -4 109 19q9 3 26 11t26 11q47 14 76 58q25 40 76 72q3 2 6 3.5t7 3t6 2.5q8 4 18 1.5t14 -8.5q5 -7 5 -18t-4 -16q-12 -14 -19 -20q-54 -46 -64 -54q-31 -25 -43 -63q-8 -22 -13 -32
q-15 -29 -13 -61q0 -7 -5 -42q0 -2 -2 -9.5t-2 -11.5q0 -31 13.5 -47.5t44.5 -8.5q21 5 44.5 12t52 16t44.5 14q44 13 52 51q39 86 145 169q4 3 12.5 6.5t12.5 5.5q9 4 23 -3.5t15 -18.5q3 -16 2 -28q-2 -31 10 -47q15 -22 3 -46q-10 -22 -13 -33q-8 -33 1 -62
q5 -17 22 -27.5t33 -6.5q6 1 20 5h2q28 8 32 8q24 5 25 -12q1 -8 -16 -22zM768 195q4 30 -3 47q-9 2 -12 0q-72 -43 -98 -140q0 -2 2 -6q4 -9 12 -4q44 25 89 77q8 10 10 26z" />
    <glyph glyph-name="Die" unicode="Die" horiz-adv-x="964" 
d="M597 184q1 -8 2 -24t2 -24q5 -27 37 -39q13 -4 33 6q24 9 28 29q4 24 11 61q18 86 111 124q6 3 21 3q25 1 40 -16t12 -43q-3 -42 -47 -91q-18 -21 -42 -36q-5 -3 -39 -29q-18 -16 1 -36q14 -16 30 -17q43 -3 75 8q29 11 85 31q8 3 12 -4q1 -2 1 -6t-2 -6
q-59 -43 -132 -61q-20 -5 -55 -3q-43 2 -65 35q-14 22 -41 13q-15 -4 -48 -6q-23 -2 -51 18q-14 12 -17 22q-18 52 -12 81q1 5 1 14q1 10 -7 19.5t-17 10.5q-45 6 -90 -3q-26 -5 -35.5 -12t-21.5 -32q-22 -48 -57.5 -86t-87.5 -80q-33 -25 -90 -36q-40 -7 -61.5 17.5
t-10.5 62.5q1 9 8 19q14 23 20 28q33 30 24 68v7q-9 138 63 267q2 5 5.5 14t5.5 12q0 4 -4 4q-10 5 -13 5q-81 4 -123 -13q-18 -8 -41 -2q-10 4 -13.5 14.5t1.5 20.5q9 15 21 16q11 2 34.5 6.5t41 7.5t34.5 3q56 3 117 -17q124 -39 149 -176q2 -8 3 -17.5t1.5 -20.5t1.5 -17
q0 -6 7 -11t13 -4q12 2 34 6q26 7 70 5q13 0 39 -11q27 -13 30 -44v-35h-2zM164 214v-19v-7q2 -8 2 -13q1 -4 7 -7.5t9 -2.5q136 62 145 66q34 13 34 46q0 23 -1 35q-8 73 -57 115q-10 9 -24 14q-6 4 -12 -2q-2 -3 -9.5 -15.5t-11.5 -17t-12.5 -11.5t-18.5 -9q-4 -1 -12 -16
q-7 -15 -13 -30t-10 -34l-6 -28.5t-5.5 -34t-4.5 -29.5zM324 183q-84 -19 -179 -102q-21 -21 -24 -25q-3 -3 -10 -18q-4 -10 2.5 -19.5t17.5 -10.5q31 -1 60 14q103 60 140 150q0 5 -1 7q-2 2 -6 4zM850 256q0 10 -6.5 15.5t-13.5 3.5q-17 -6 -19 -7q-52 -33 -57 -99
q0 -2 5 -12q2 -2 7 1q53 26 81 83q3 6 3 15zM825 598q20 -1 31 -15t5 -31q-1 -5 -7 -11q-8 -8 -19 -3q-21 11 -30 27q-6 11 -1 19q6 14 21 14z" />
    <glyph glyph-name="lag" unicode="lag" horiz-adv-x="1033" 
d="M527 39q4 0 12.5 0.5t15.5 1t13 1.5q27 7 68 11q6 1 39 11q13 3 13 15q3 67 41 129q47 76 104 109q32 18 48 28q22 12 59 14q38 2 51 -27q3 -7 12.5 -18t12.5 -15q9 -14 3 -26q-4 -8 -12.5 -24t-12.5 -25q-7 -14 -7 -26q-1 -45 -14 -109q-10 -50 -33 -105
q-39 -91 -84 -142q-44 -51 -79 -77q-71 -53 -98 -63q-38 -16 -58 -21q-11 -3 -34 -3q-7 0 -13.5 7.5t-6.5 16.5q0 6 3.5 10.5t8.5 3.5q3 0 8.5 -1t9.5 -1.5t8 -0.5q12 1 34 9q176 75 248 245q20 50 35 112q1 4 1 27q-1 3 -8 10q-2 2 -7 0q-20 -14 -22 -16q-59 -47 -126 -70
q-5 -2 -34 -4q-18 10 -59 2q-43 -10 -129 -26q-26 -4 -41 -3q-33 0 -57 21q-23 20 -27 47q-1 7 -7 19q-1 1 -6 1q-10 -2 -13 -4q-66 -42 -119 -51q-22 -4 -79 -26q-25 -9 -75 -9q-17 0 -39 11q-21 10 -27 30q-7 16 -18 59q-5 16 -11 25q-15 22 -15 29.5t16 22.5
q18 16 72.5 87.5t63.5 91.5q28 59 55 96q44 60 95 88q13 7 26 -0.5t15 -21.5q5 -19 -3 -34q-27 -56 -51 -82q-7 -8 -45 -54t-73 -85.5t-49 -50.5q-10 -7 -20 -19q-17 -16 -22 -42q-6 -36 1 -68q1 -4 8 -19q11 -20 32 -23q44 -6 102 13q19 8 19 26q2 50 45 121q51 87 153 145
q2 1 6.5 2.5t6.5 2.5q11 5 23.5 -2t13.5 -18q1 -6 4 -41q2 -10 9 -8q3 1 12.5 3.5t14.5 3.5q10 1 17.5 -8t5.5 -19q-3 -16 -15 -30q-9 -11 -26.5 -32t-26.5 -32q-23 -27 -30 -76q-2 -13 8.5 -28t24.5 -19q1 0 3.5 -0.5t3.5 -0.5q18 -2 28 -2zM265 432q2 4 2 5l-3 -3l-14 -14
q0 -1 -1 -2.5t-2 -2.5l4 4q6 12 14 13zM760 80q10 0 16 2q71 25 127 92q4 5 9 25q1 3 -1 7q-5 33 24 61q11 11 24 33q2 4 0 13q-1 4 -7 8t-9 3q-58 -17 -88 -38q-47 -35 -80 -85q-27 -39 -37 -102q-1 -5 7 -12t15 -7zM464 236q-7 24 -15 43q-1 2 -5 3.5t-6 0.5
q-24 -7 -47 -28q-31 -31 -79 -103q-5 -8 -10 -39q-2 -9 5.5 -15.5t15.5 -3.5q87 37 119 97l18 30q1 1 1.5 3.5t1 5.5t1.5 6z" />
    <glyph glyph-name="la" unicode="la" horiz-adv-x="612" 
d="M620 20q-3 -1 -9.5 -3t-9.5 -3l-63 -12q-26 -4 -41 -3q-33 0 -57 21q-23 20 -27 47q-1 7 -7 19q-1 1 -6 1q-10 -2 -13 -4q-66 -42 -119 -51q-22 -4 -79 -26q-25 -9 -75 -9q-17 0 -39 11q-21 10 -27 30q-7 16 -18 59q-5 16 -11 25q-15 22 -15 29.5t16 22.5
q18 16 72.5 87.5t63.5 91.5q28 59 55 96q44 60 95 88q13 7 26 -0.5t15 -21.5q5 -19 -3 -34q-27 -56 -51 -82q-7 -8 -45 -54t-73 -85.5t-49 -50.5q-10 -7 -20 -19q-17 -16 -22 -42q-6 -36 1 -68q1 -4 8 -19q11 -20 32 -23q44 -6 102 13q19 8 19 26q2 50 45 121q51 87 153 145
q2 1 6.5 2.5t6.5 2.5q11 5 23.5 -2t13.5 -18q1 -6 4 -41q2 -10 9 -8q3 1 12.5 3.5t14.5 3.5q10 1 17.5 -8t5.5 -19q-3 -16 -15 -30q-9 -11 -26.5 -32t-26.5 -32q-23 -27 -30 -76q-2 -13 8.5 -28t24.5 -19q1 0 3.5 -0.5t3.5 -0.5q18 -2 28 -2q4 0 12.5 0.5t15.5 1t13 1.5
q6 2 10 3q7 0 23 4q14 2 22 3q8 -2 11 -5q7 -7 6 -13q-1 -8 -20 -14zM261 431q-3 -1 -7 -7zM323 94q87 37 119 97l18 30q1 1 1.5 3.5t1 5.5t1.5 6q-7 24 -15 43q-1 2 -5 3.5t-6 0.5q-24 -7 -47 -28q-31 -31 -79 -103q-5 -8 -10 -39q-2 -9 5.5 -15.5t15.5 -3.5z" />
    <glyph glyph-name="ru" unicode="ru" horiz-adv-x="573" 
d="M503 64q7 52 11 93q2 2 -3 5q-3 2 -5 0q-30 -20 -43 -31q-57 -47 -151 -86q-21 -9 -47 -6q-6 2 -13 8t-8 12q-8 27 0 54q2 11 8 31.5t7 26.5q2 7 6 23q2 8 -2.5 15t-11.5 8q-45 3 -54 2q-38 -4 -70 -32q-63 -59 -69 -143q0 -8 -1 -24t-1 -24q0 -11 -14 -18q-3 -1 -11 -3
q-13 -5 -22 1.5t-9 20.5q0 17 2 24q6 32 23 119q9 42 22 68q2 5 11 14q10 10 16 3q20 -17 42 0q11 8 37 20q10 5 22 9q72 12 126 -1q2 -1 5.5 -3t5.5 -3q19 -9 15 -29q-4 -16 -7 -23q-16 -42 -24 -62q-7 -18 -5 -42q2 -11 12 -9q31 6 72 32q99 64 131 95q1 2 9 7
q12 9 26 2.5t14 -21.5q2 -33 -1 -60q-1 -10 -8 -47q-9 -51 15 -80q3 -5 0 -11t-9 -8q-14 -4 -27.5 2.5t-15.5 19.5q-1 8 -6 51z" />
    <glyph glyph-name="narg" unicode="narg" horiz-adv-x="1316" 
d="M1303 259q2 -20 -1 -36q-4 -24 -4 -71q-1 -39 -16 -100q-12 -50 -50 -102q-12 -16 -20 -22q-82 -74 -174 -102q-28 -9 -53 -4q-8 1 -15 10q-6 7 1 16q4 5 10 4q2 0 6 -1t6 -1q15 -6 29 0q53 20 108 53q76 45 102 128q5 16 10.5 46t6.5 35q1 4 -1 12q-2 0 -5.5 -2t-5.5 -2
q-9 -4 -11 -5q-5 -2 -11 3t-5 10q1 9 8 40q-9 0 -19 -10q-10 -11 -31 -32.5t-32 -31.5q-26 -26 -71 -43q-7 -3 -16 3t-11 14q-5 39 9 70q30 72 93 124q1 1 3 2q4 2 5 4t-1 6q-4 4 -17 2q-11 -2 -34 -8t-36 -9q-19 -5 -68 -22q-36 -12 -92 -55q-60 -45 -66 -122q0 -3 -0.5 -9
t-0.5 -9q-1 -25 -34 -38q-4 -1 -11 3q-11 7 -11 20q1 5 3 14.5t2 14.5l3 42q-1 5 -8 22q-2 5 -8.5 8t-11.5 1q-28 -12 -41 -23q-62 -46 -136 -75q-20 -6 -29 -7q-27 -3 -40 21q-9 16 -15 51q0 10 -8 4q-54 -42 -66 -52q-4 -4 -10.5 -12t-9.5 -11q-10 -10 -13 -11
q-52 -25 -103 -28q-56 -3 -73 58q-1 5 -4 30v54q-1 4 -7 8q-2 2 -5 -1q-13 -9 -39 -27.5t-39 -27.5q-8 -6 -37 -21q-25 -14 -58 -9q-13 2 -18 14q-6 18 -6 29q3 77 36 138q2 5 10 15t22 6q13 -5 17 -16q2 -6 0 -11q-2 -6 -8 -16q-24 -40 -32 -90q-1 -3 0 -9.5t1 -8.5
q1 -5 7 -8.5t11 -1.5q38 14 106 68q11 9 30 27t28 25q6 5 20 13q4 3 11 0t8 -8q5 -15 0 -36q-8 -26 -13 -40q-8 -21 -8 -65q0 -8 1 -12q7 -31 21 -43t46 -6q16 4 40 13q8 2 1 9q-9 12 -6 28q11 45 46 111q5 9 15.5 26t15.5 25q2 3 5 8t4 8q44 56 112 87q13 6 26.5 -0.5
t16.5 -20.5q6 -29 -13 -51q-2 -2 -8 -1.5t-7 4.5q-1 2 -3 7.5t-3 8.5q-3 8 -10 4q-14 -5 -17 -7q-26 -18 -37 -29q-45 -44 -89 -141q-2 -7 2 -11q1 -2 5 -2t5 2q65 47 91 86q4 7 33 43q1 2 5 4t5 2q4 2 11 -0.5t9 -7.5q5 -15 0 -30l-15 -39q-10 -23 -8 -59q0 -11 9.5 -17
t20.5 -2q4 0 6 1q63 30 90 47l60 39q41 24 74 1q12 -8 21 4q32 38 77 66q22 15 42 22q113 41 167 44q8 0 47 11q22 6 35 -2q8 -6 23 -4l30 3q28 0 50 -29q5 -7 5 -16zM1124 138q35 35 105 107l6 9q2 4 2 6q-1 0 -2.5 1.5t-2.5 1.5q-4 2 -5 1q-17 -2 -49 -21q-16 -9 -20 -14
q-40 -46 -57 -69q-3 -3 -13 -32q-2 -6 3 -11q4 -2 10 2q16 12 23 19z" />
    <glyph glyph-name="na" unicode="na" horiz-adv-x="645" 
d="M674 110q19 -14 -15 -41q-38 -21 -79 -38q-20 -6 -29 -7q-27 -3 -40 21q-9 16 -15 51q0 10 -8 4q-54 -42 -66 -52q-4 -4 -10.5 -12t-9.5 -11q-10 -10 -13 -11q-52 -25 -103 -28q-56 -3 -73 58q-1 5 -4 30v54q-1 4 -7 8q-2 2 -5 -1q-13 -9 -39 -27.5t-39 -27.5
q-8 -6 -37 -21q-25 -14 -58 -9q-13 2 -18 14q-6 18 -6 29q3 77 36 138q2 5 10 15t22 6q13 -5 17 -16q2 -6 0 -11q-2 -6 -8 -16q-24 -40 -32 -90q-1 -3 0 -9.5t1 -8.5q1 -5 7 -8.5t11 -1.5q38 14 106 68q11 9 30 27t28 25q6 5 20 13q4 3 11 0t8 -8q5 -15 0 -36
q-8 -26 -13 -40q-8 -21 -8 -65q0 -8 1 -12q7 -31 21 -43t46 -6q16 4 40 13q8 2 1 9q-9 12 -6 28q11 45 46 111q5 9 15.5 26t15.5 25q2 3 5 8t4 8q44 56 112 87q13 6 26.5 -0.5t16.5 -20.5q6 -29 -13 -51q-2 -2 -8 -1.5t-7 4.5q-1 2 -3 7.5t-3 8.5q-3 8 -10 4q-14 -5 -17 -7
q-26 -18 -37 -29q-45 -44 -89 -141q-2 -7 2 -11q1 -2 5 -2t5 2q65 47 91 86q4 7 33 43q1 2 5 4t5 2q4 2 11 -0.5t9 -7.5q5 -15 0 -30l-15 -39q-10 -23 -8 -59q0 -11 9.5 -17t20.5 -2q4 0 6 1q61 30 80 41q8 0 12 -4z" />
    <glyph glyph-name="arg" unicode="arg" horiz-adv-x="962" 
d="M955 246q2 -20 -1 -36q-4 -24 -4 -71q-1 -29 -16 -100q-12 -50 -50 -102q-12 -16 -20 -22q-82 -74 -174 -102q-28 -9 -53 -4q-8 1 -15 10q-6 7 1 16q4 5 10 4q2 -1 6 -1t6 -1q15 -6 29 0q55 21 107 53q77 44 103 128q5 16 10.5 46t6.5 35q1 2 0 6.5t-1 5.5q-2 -1 -5.5 -2
t-5.5 -2q-9 -5 -11 -5q-5 -2 -11 3t-5 10q1 9 8 40q-9 0 -19 -10q-10 -11 -31 -32.5t-32 -31.5q-26 -26 -71 -43q-7 -3 -16 3t-11 14q-5 39 9 70q30 72 93 124q1 1 3 2q8 5 4 10q-4 4 -17 2q-11 -2 -34 -8t-36 -9q-19 -5 -68 -22q-36 -12 -92 -55q-60 -45 -66 -122
q0 -6 -2 -18q0 -25 -33 -38q-4 -1 -11 3q-12 8 -11 20q1 5 3 14.5t2 14.5l3 42q-1 5 -8 22q-2 5 -8.5 8t-11.5 1q-27 -12 -42 -23q-60 -46 -136 -75q-17 -6 -28 -7q-27 -3 -40 21q-9 16 -15 51q-1 9 -9 4q-44 -34 -65 -52q-5 -5 -7 -8l-12 -6q-11 -5 -22 -6q-13 0 -24 6
l-2 2q-9 12 -6 28q11 45 46 111q20 34 31 51q2 3 5 8.5t4 7.5q44 56 112 87q13 6 26.5 -0.5t16.5 -20.5q6 -29 -13 -51q-2 -2 -8 -1.5t-7 4.5q-5 13 -7 16q-2 8 -9 4q-14 -5 -17 -7q-26 -18 -37 -29q-45 -44 -89 -141q-2 -7 2 -11q1 -1 5 -1t5 1q62 46 91 86q4 7 33 43
q1 2 10 6q4 2 11 -0.5t9 -7.5q5 -15 0 -30l-15 -39q-10 -23 -8 -59q0 -11 9.5 -17t20.5 -2q4 0 5 1q62 28 91 47l60 39q41 24 74 1q12 -8 21 4q32 38 77 66q22 15 42 22q113 41 167 44q4 0 47 11q22 6 35 -2q8 -6 23 -4q20 2 29 3q29 0 51 -29q5 -7 5 -16zM887 241q2 4 2 6
q-1 0 -2.5 1.5t-2.5 1.5q-4 2 -5 1q-17 -2 -49 -21q-16 -9 -20 -14q-40 -46 -57 -69q-3 -3 -13 -32q-2 -6 3 -11q4 -2 10 2q16 12 23 19q35 35 105 107z" />
    <glyph glyph-name="Semi" unicode="Semi" horiz-adv-x="1560" 
d="M1496 230q8 -37 1 -59q-13 -47 -11 -112q0 -10 -10.5 -18.5t-21.5 -6.5q-4 0 -10.5 6.5t-7.5 11.5q-6 40 6 79q9 33 5 66q0 5 -4.5 8t-8.5 2q-29 -11 -68 -40q-25 -20 -182 -135q-16 -13 -35 -17q-9 -2 -19 4t-11 15v20q14 74 20 111q2 11 0 20q0 9 -5 11q-10 3 -19 2
q-9 -3 -16 -10q-21 -19 -62 -56.5t-61 -56.5q-11 -11 -19 -27q-9 -21 -44 -38q-7 -3 -15.5 3.5t-7.5 13.5q2 17 5 25q28 69 20 130q0 3 -7 10q-2 2 -7 -1l-6 -3q-40 -32 -64 -58q-28 -30 -106 -99q-12 -11 -52 -29q-5 -2 -13 2.5t-9 9.5l-3 33q0 18 0.5 53.5t0.5 52.5
q0 9 -5 12q-3 3 -11 -2q-30 -24 -88 -72q-15 -13 -46 -34t-40 -28q-8 -5 -17 -9t-20.5 -7.5t-17.5 -5.5q-7 -3 -14.5 -5.5t-16.5 -5t-14 -4.5q-26 -8 -47 17q-21 24 -18 55q1 4 2.5 10.5t2.5 12t1 10.5q1 24 17 56q36 67 51 86q50 66 112 90q15 6 33 -4t21 -23q2 -10 2 -13
q-2 -43 -33 -70q-37 -33 -72 -69q-15 -16 -41 -2q-2 1 -6 3.5t-6 3.5q-5 3 -10 -5q-9 -13 -10 -17q-7 -36 -11 -59q-1 -5 4 -19q2 -6 9 -9.5t13 -1.5q46 13 102 46q30 20 44 30q10 8 28 22t33 25.5t29 21.5q9 7 23 22.5t19 19.5q14 13 31 -2q15 -14 17 -35q1 -12 1 -36.5
t1 -36.5q0 -18 1 -27q0 -4 5.5 -7t9.5 -1q3 2 14.5 10t17.5 13q22 19 46.5 40t53 46.5t45.5 40.5q3 2 8 6t8 6q7 5 18.5 3t17.5 -10q18 -22 18 -42q1 -10 0 -28.5t-1 -24.5q0 -3 8 -8q1 -1 3 -0.5t3 1.5q23 23 70.5 57.5t60.5 44.5q14 10 22 15q17 9 32.5 0.5t19.5 -24.5
q8 -27 5 -53q-4 -28 -6 -59q-1 -9 1 -25q15 0 18 2q18 13 54 38.5t54 38.5q14 10 127 85q19 11 38 2t23 -31zM477 268h-1v1q0 -1 1 -1zM463 267q-29 -10 -57 -58q4 -3 5 -2q32 17 60 48q0 1 3 11q-6 2 -11 1zM1179 90q1 1 1 3l-3 -2zM3 131q0 -2 2.5 -8t2.5 -9q0 -7 -6 -11
q-12 -10 -28 -19q-29 -16 -41 -57q-8 -25 10 -43q21 -21 39 -24q37 -7 46 -8q33 -3 62 18q24 18 27 44q10 77 13 132q5 121 41 215q16 41 44 89q17 32 52 49q42 22 69 -19q3 -6 7 -16.5t6 -14.5q13 -34 -14 -68q-4 -4 -5 -4q-16 0 -19 1q-5 0 -7 10q-1 9 -2 26.5t-2 26.5
q0 5 -8 8t-13 1q-15 -7 -28 -27q-41 -61 -59 -147q-18 -87 -23 -204q-3 -46 -3 -47q-4 -47 -36.5 -74.5t-73.5 -31.5q-15 -1 -66 1q-17 3 -39 11q-26 9 -39 34q-11 23 -14 30q-8 19 -2 38q18 61 68 86l30 12h9zM1524 506q1 0 6 -0.5t7 -1.5q24 -13 32 -47q1 -5 -5 -11
t-11 -7q-28 -1 -49 27q-5 7 -2.5 19t10.5 17q2 2 12 4z" />
    <glyph glyph-name="emi" unicode="emi" horiz-adv-x="1199" 
d="M845 82q15 0 18 2q21 14 58 41t45 32q55 39 122 81q17 11 35 2.5t23 -29.5q6 -38 0 -57q-12 -45 -10 -106q0 -10 -10 -18t-21 -7q-4 1 -10 7t-7 11q-6 37 5 75q9 32 6 63q-1 5 -5 8t-8 2q-29 -11 -65 -38q-24 -19 -173 -129q-19 -14 -33 -17q-9 -2 -18.5 4.5t-10.5 14.5
v19q3 17 9.5 52.5t9.5 53.5q1 6 1 19q-2 8 -6 11q-10 4 -18 1q-6 -1 -15 -10q-77 -69 -117 -107q-12 -12 -18 -26q-10 -21 -43 -36q-6 -3 -14 3t-7 13q2 17 5 24q26 65 19 124q-2 6 -7 9h-6l-6 -3q-33 -25 -61 -55q-19 -21 -101 -95q-12 -11 -50 -27q-5 -2 -12.5 2t-7.5 9
q-3 15 -3 31q0 17 0.5 51t0.5 51q0 8 -5 11t-11 -3q-56 -44 -83 -68q-12 -10 -26 -19.5t-31 -21t-26 -17.5q-7 -5 -15.5 -9t-20 -7.5t-16.5 -5.5q-8 -3 -23 -7.5t-20 -6.5q-23 -8 -45 16q-20 23 -17 52q5 28 5 32q3 27 17 54q33 61 48 82q49 63 108 85q14 6 31 -3.5
t20 -22.5q2 -8 2 -12q-2 -41 -32 -67q-44 -38 -68 -66q-15 -15 -40 -1q-2 1 -5.5 3t-5.5 3q-5 3 -10 -4q-1 -2 -4.5 -8t-4.5 -9q-8 -35 -10 -56q-1 -4 4 -18q1 -5 8 -9t12 -2q46 13 98 45q28 18 42 28q72 57 85 66q9 6 22.5 20.5t18.5 18.5q13 13 28 -1q15 -13 17 -34
q1 -23 1 -69q1 -4 1 -12.5t1 -13.5q0 -4 5 -6.5t9 -0.5q30 21 31 22l138 120l15 12q7 5 18 3t16 -10q17 -18 18 -40q1 -9 0 -26.5t-1 -23.5q0 -3 7 -8q1 -1 3 -0.5t3 1.5q23 22 71 57.5t54 39.5q10 8 20 14q16 9 31 1t19 -23q8 -26 5 -51q-4 -27 -6 -56q-1 -5 0 -13.5
t1 -11.5q-7 -3 -3 -4q1 3 2 5zM173 245q-1 0 -5.5 1t-6.5 0q-29 -11 -54 -55q3 -3 4 -2q29 14 58 46l3 11q1 0 2.5 0.5t2.5 1.5q1 0 1 2v2q-5 0 -5 -7zM1172 474q1 0 3 -0.5t3.5 -0.5t3 -0.5t2.5 -1.5q22 -11 31 -44q1 -5 -5 -11t-11 -6q-26 -3 -46 26q-5 6 -2.5 17t9.5 16
q2 2 6.5 3t5.5 2z" />
    <glyph glyph-name="eten" unicode="eten" horiz-adv-x="1301" 
d="M1214 50q-1 10 -1 30v32q0 11 -13 11q-1 0 -5 -2q-17 -11 -20 -13q-38 -26 -47 -34q-31 -25 -101 -57q-12 -4 -25 -11q-1 -1 -4 -1l-2 -1q-8 -2 -11 -2q-14 0 -24 10t-11 25q0 6 0.5 19.5t0.5 20.5q0 3 0.5 10t0.5 11t-4 7q-4 6 -11 6q-2 0 -3 -1h-3l-4 -2
q-37 -20 -132 -57q-36 -12 -64 -24q-27 -11 -72 -20q-5 -2 -16 -2q-28 0 -51 23q-25 24 -22 61q2 22 6 41q0 6 2 20q1 2 -3 10q-6 6 -11 6h-19q-20 0 -29 1h-18q-21 0 -28 -7q-8 -8 -7 -50q0 -8 0.5 -28.5t0.5 -33.5q0 -12 -13 -19q-19 -9 -25 -10q-1 -1 -3 -1q-4 0 -9 4
t-6 9q0 1 -0.5 2t-0.5 2t-0.5 4t-0.5 5q5 35 6 43q1 3 1 9v27v58q0 10 -10 10h-2h-2q-3 0 -4 -1l-4 -2q-6 -5 -19 -16t-19 -17q-95 -84 -247 -146q-15 -7 -37 -7q-5 0 -23 2q-15 2 -28 15t-14 29q-4 36 2 53q7 25 28 85q8 22 40 56q2 2 3 4q25 25 70 55l5 4q18 12 41 12
q11 0 24 -3q10 -2 15.5 -10t4.5 -17q-1 -5 -3 -13q0 -2 -0.5 -4t-0.5 -3q-3 -13 -14 -21q-7 -5 -21 -13q-62 -42 -98 -55q-32 -12 -39 -46q-2 -8 -3 -11q-3 -12 -7 -36q-1 -5 1 -17q0 -3 1 -4q1 -8 8 -14.5t15 -6.5h4q4 2 14 4q30 8 45 14q157 69 269 177q32 31 48 67
q6 17 18 45q26 57 74 106q3 3 10.5 9t10.5 8l6 3q2 2 5 2q15 0 19 -14q3 -15 -3 -24q-32 -48 -50 -74q-41 -54 -58 -93q-5 -10 -7 -25v-2q-4 -18 13 -25q21 -11 40 -11q9 0 14 1l24 6q6 1 16 3q18 4 29 20q3 3 9 11q1 2 3.5 5.5t3.5 5.5q34 41 88 62q9 4 28 4h5q22 0 34 -26
q0 -1 1 -1q0 -1 0.5 -2t0.5 -2q-12 -39 -32 -49q-22 -12 -66 -34l-7 -3q-2 -1 -14 -6q-2 -1 -6 -2.5t-6 -2.5q-21 -11 -27 -31q-1 -2 -2.5 -6t-1.5 -6q-2 -6 -5.5 -17.5t-4.5 -17.5q-6 -26 1 -48q2 -7 9 -13t13 -6h9h13q18 0 26 1q25 4 53 14q92 35 154 60t105 77
q15 19 33 35q5 5 14 5q2 0 10 -2q7 -2 8 -7q2 -2 1 -5q-1 -1 -1 -3t-1 -3q-4 -15 -7 -19q-8 -12 -13 -17l-12 -15q-34 -52 -30 -105q0 -3 4 -6t7 -3h1q36 9 92 46q7 4 19 12q78 51 107 83q2 3 12 9q1 1 5 3l2 1h2q6 0 12.5 -4t8.5 -9q0 -2 1 -3q2 -8 2 -9q-1 -5 0 -11
q0 -21 -3 -30q-8 -23 -10 -62q-2 -18 -3 -26q-6 -57 26 -99q1 -1 0 -4.5t-3 -4.5q-2 -3 -10 -5h-2q-7 0 -10 3h-1l-2 1q-16 13 -17 15q-29 42 -29 82z" />
    <glyph glyph-name="ete" unicode="ete" horiz-adv-x="798" 
d="M611 2q-27 0 -49 22q-25 23 -20 58q1 13 5 39q1 3 1 9.5t1 9.5t-3 9q-6 6 -11 6h-17q-4 0 -14 0.5t-14 0.5h-17q-20 0 -27 -7t-6 -47v-59q0 -12 -12 -18q-8 -4 -24 -10h-2q-5 0 -9.5 4t-5.5 8v4q-1 3 -1 8q4 30 5 41q1 2 1 5t1 4v25q0 38 -1 55q0 10 -10 10h-1h-2
q-3 0 -4 -1l-3 -2q-6 -5 -18.5 -15.5t-18.5 -15.5q-91 -81 -234 -139q-15 -6 -36 -6q-13 0 -21 1q-14 2 -26.5 14t-13.5 28q-4 31 2 51q9 30 26 80q8 21 38 53l4 4q20 21 66 53l5 3q16 12 38 12q11 0 23 -3q9 -2 14.5 -10t4.5 -16q-1 -2 -2 -6.5t-1 -6.5q0 -1 -0.5 -3
t-0.5 -3q-3 -14 -13 -20q-4 -2 -10 -6.5t-10 -6.5q-60 -39 -93 -51q-31 -12 -37 -44q-2 -8 -3 -11q-1 -5 -3.5 -16.5t-3.5 -17.5q0 -11 1 -16q1 -1 1 -4q1 -7 8 -13.5t14 -6.5q3 0 4 1q2 1 6.5 2t6.5 1q31 9 43 14q149 65 256 167q32 32 45 64q10 27 17 43q24 53 70 100
q4 4 21 16q3 3 5 4q1 1 5 1q14 0 18 -13q3 -14 -3 -23q-25 -40 -48 -70q-38 -51 -55 -89q-4 -10 -6 -23l-1 -2q-2 -17 13 -24q20 -10 38 -10q9 0 13 1q16 4 24 5q10 2 15 4q15 3 27 18q5 5 8 11q1 2 3.5 5t3.5 5q32 40 84 59q12 4 26 4h5q21 -2 33 -25v-1q1 -1 1 -4
q-10 -35 -30 -46q-42 -22 -63 -32l-7 -3q-2 -2 -13 -6q-2 -1 -5.5 -2.5t-5.5 -2.5q-20 -9 -26 -29l-3 -12q-4 -10 -10 -32q-6 -23 1 -46q2 -6 8 -12t12 -6t9 -1h13q10 0 24 2q28 5 51 13q48 18 90 35h7q20 0 26 -13q3 -6 0 -11q-19 -9 -73 -29q-28 -10 -61 -23
q-22 -9 -68 -19q-10 -2 -15 -2z" />
    <glyph glyph-name="eei" unicode="eei" horiz-adv-x="804" 
d="M178 290q26 -23 21 -53q-8 -43 -35 -63q-31 -22 -49 -37q-12 -9 -23 -9q-10 0 -19 5q-4 2 -7 2q-11 0 -13 -15q0 -8 -2 -24l-1 -11q0 -2 0.5 -4.5t0.5 -3.5q0 -6 2 -18q2 -17 16 -31t30 -15h9q9 -1 27 -1q19 0 32 3q47 8 101 23q4 1 12.5 3t12.5 3q16 3 18 20q1 6 1 17
t1 17q5 24 8 33q15 41 31 66.5t47 57.5q32 32 79 51q7 2 19 4h3q12 0 21 -9q10 -10 10 -23q-2 -29 -18 -41q-21 -17 -76 -56q-10 -5 -26 -5q-19 0 -32 -23q-14 -30 -16 -59q0 -19 10 -29q9 -9 22 -9q6 0 8 1l10 2q108 31 155 59q5 2 15.5 7.5t15.5 8.5q36 19 46 27l9 6
q36 25 46 44l6 6q2 1 4 3q6 4 13 4t10 -3q14 -10 13 -21q-2 -13 -8 -39q-12 -49 -4 -88q3 -16 19 -16q5 0 8 1q3 0 7 2t6 2q5 2 11 -4q3 -5 3 -10q-3 -18 -18 -26q-1 -1 -14 -6q-1 0 -5 -1.5t-6 -2.5q-7 -4 -14 -4q-12 0 -22 9.5t-13 22.5q-9 44 -10 60q-5 32 -14 32
q-4 0 -25 -12q-2 -2 -4 -3q-79 -53 -221 -99q-2 0 -5 -0.5t-5 -1.5q-4 0 -10 -2q-12 -4 -24 -4q-16 0 -34 8l-4 2q-2 2 -9 4q-14 6 -27 0q-38 -19 -126 -40q-17 -4 -23 -5q-16 -5 -41 -5q-18 0 -39 3q-29 5 -50.5 29.5t-22.5 54.5q-6 110 71 190q26 27 74 45q6 2 10 2
q11 0 21 -8zM154 238l1 1h-2l-1 1q-2 0 -2 1q-1 0 -4 1.5t-4 1.5t-2 -1q-32 -14 -48 -36q-4 -6 -3 -9q0 -2 4 -4q2 -2 6 -2h1q34 13 51 33q1 1 1.5 2.5t1 3.5t0.5 3v4zM922 328q5 -10 -2 -17q0 -2 -3 -2t-5 2q-23 35 -70 63q-7 5 -21 13q-34 22 -61 35q-3 1 -14 10l-2 2
q-9 7 -9 18q-2 13 6 22q1 1 7 5q1 0 3 2h3h2q2 0 4 -0.5t3 -0.5q12 -5 18 -10l9 -7q8 -7 33.5 -28.5t39.5 -34.5q40 -34 59 -72z" />
    <glyph glyph-name="ee" unicode="ee" horiz-adv-x="577" 
d="M584 84q-2 -2 -4 -3q-59 -31 -158 -63q-2 0 -5 -0.5t-5 -1.5q-4 0 -10 -2q-12 -4 -24 -4q-16 0 -34 8l-4 2q-2 2 -9 4q-14 6 -27 0q-38 -19 -126 -40q-17 -4 -23 -5q-16 -5 -41 -5q-18 0 -39 3q-29 5 -50.5 29.5t-22.5 54.5q-6 110 71 190q26 27 74 45q6 2 10 2
q11 0 21 -8q26 -23 21 -53q-8 -43 -35 -63q-31 -22 -49 -37q-12 -9 -23 -9q-10 0 -19 5q-4 2 -7 2q-11 0 -13 -15q0 -8 -2 -24l-1 -11q0 -2 0.5 -4.5t0.5 -3.5q0 -6 2 -18q2 -17 16 -31t30 -15h9q9 -1 27 -1q19 0 32 3q47 8 101 23q4 1 12.5 3t12.5 3q16 3 18 20q1 6 1 17
t1 17q5 24 8 33q15 41 31 66.5t47 57.5q32 32 79 51q7 2 19 4h3q12 0 21 -9q10 -10 10 -23q-2 -29 -18 -41q-21 -17 -76 -56q-10 -5 -26 -5q-19 0 -32 -23q-14 -30 -16 -59q0 -19 10 -29q9 -9 22 -9q6 0 8 1l10 2q88 25 128 44q2 1 7.5 3t8.5 3q20 10 29 2q6 -6 6 -13
q0 -6 -8 -14zM92 207q-4 -6 -3 -9q0 -2 4 -4q2 -2 6 -2h1q34 13 51 33q1 1 1.5 2.5t1 3.5t0.5 3v4l1 1h-2l-1 1q-2 0 -2 1q-1 0 -4 1.5t-4 1.5t-2 -1q-32 -14 -48 -36z" />
    <glyph glyph-name="zur" unicode="zur" horiz-adv-x="1104" 
d="M262 162q-37 -5 -111 -17q-35 -7 -51 -33q-5 -9 -16 -24.5t-19 -29t-12 -27.5q-7 -26 -4 -43q4 -26 28 -28q21 -1 44 5q44 18 51 23q9 7 15 -6q4 -10 -3 -17q-38 -28 -84 -40q-33 -7 -56 2q-26 10 -38 35t-2 52q7 20 25 58q1 2 3 5t3 5q7 13 -3 23q-2 2 -7 6t-7 6
q-7 8 -5 21t12 18q23 13 52 19q4 1 8.5 3.5t10 6t8.5 5.5q1 0 1 1.5t-1 2.5q-3 6 -20 13q-22 9 -28 15q-8 7 -9.5 19.5t4.5 20.5q52 60 118 63q16 0 29 -10q11 -11 9 -22q-6 -40 -27 -69q-6 -7 -9 -17q-4 -8 6 -8q29 0 37 3q17 6 50 9t48 7q6 2 18 -3q20 -8 22 -28
q3 -34 -7 -75q-1 -2 -4 -11.5t-2.5 -12t0.5 -12.5q0 -5 6 -9q2 -2 6 0q2 1 5.5 2.5t5.5 2.5l141 93q16 10 44 30t38 27q7 3 18 -1q10 -4 8 -15q-3 -15 -9 -30q-4 -10 -30 -61q-15 -32 -8 -74q2 -8 9 -12.5t14 -1.5q8 4 25 13t25 13q21 11 62.5 34.5t62.5 35.5q5 3 14.5 7
t13.5 7q20 7 34 -7l6.5 -6.5t7.5 -6.5q7 -5 10 3q2 5 6 17q33 63 86 87q62 29 118 40q48 9 130 7l6 -3q-6 -9 -7 -10q-9 -7 -16 -8q-50 -5 -128 -25q-45 -12 -82 -31q-61 -32 -78 -93q-15 -55 -16 -67q-4 -36 -43 -56q-3 -1 -8.5 1t-7.5 6q-6 8 -6 10q-14 54 -12 74
q0 9 -7 12.5t-16 -0.5q-34 -16 -50 -25q-53 -29 -110 -61q-25 -13 -54 -12q-18 2 -26 14q-13 20 -13 35q-2 32 6 55q3 10 5 31q0 2 -5 10q-1 1 -6 -1q-42 -28 -124 -84q-30 -19 -62 -31q-7 -3 -17 1.5t-15 11.5q-10 14 -8 30q0 17 5 37q1 3 12 61q1 4 -3.5 8.5t-8.5 4.5h-6
q-5 -1 -13 -2.5t-12 -1.5zM143 267q-28 -10 -32 -16q-7 -9 2 -15q22 -15 33 9q1 3 1 17q0 1 -2 2.5t-2 2.5z" />
    <glyph glyph-name="Bu" unicode="Bu" horiz-adv-x="769" 
d="M210 91q2 -38 2 -56q0 -19 -17 -36q-17 -18 -47 -28q-3 -1 -12.5 -3t-14.5 -4q-36 -14 -87 5q-27 11 -32 41q-5 28 6 47q7 13 1 26q-10 25 -1 54q13 54 43 160q2 6 6 16.5t6.5 19.5t2.5 17t-1.5 17t-4 20t-3.5 17t-4.5 19t-5.5 21l-3 27q0 10 7 19.5t16 11.5q37 11 68 0
q17 -7 89 -38q9 -4 14 -14.5t1 -20.5q-13 -32 -17 -37q-15 -20 -30 -62q-8 -26 -8 -40q0 -4 -0.5 -41t2.5 -41q1 -7 8 -10.5t13 -0.5q9 5 27.5 15t27.5 15q76 42 175 80q22 8 41 5q9 -2 17 -11t8 -18q0 -18 -1 -21q-14 -44 -24 -64q-17 -36 -23 -79q-2 -7 5 -12q6 -4 13 0
q15 6 31 15q132 86 187 141q6 6 10 9q12 12 25 3q14 -9 13 -22q-3 -41 -5 -48q-5 -18 -10 -50.5t-8 -44.5q-1 -4 -1 -27q2 -42 33 -65q3 -3 1 -9t-7 -8q-3 -1 -13 -4q-7 0 -14 3q-25 9 -35 21.5t-12 37.5q-3 37 5 76q3 13 5 41q0 3 -3 6q-9 2 -12 1q-5 -4 -37.5 -29
t-50.5 -38q-35 -26 -113 -66q-4 -2 -19 -7q-11 -4 -22.5 2t-15.5 19q-7 20 -5 33q3 33 27 93q6 14 18 44q2 5 0.5 11t-5.5 8q-10 3 -12 2q-76 -23 -157 -71q-14 -8 -64 -41q-6 -4 -4 -12q1 -14 7 -40zM59 120h14q40 19 53 31q18 17 13 37q-13 45 -3 102q4 18 4 27
q-1 43 28 84l6 12q2 4 0.5 10t-5.5 8q-34 17 -37 18t-27 1q-4 0 -9 -4.5t-5 -8.5q-2 -26 -2 -41q0 -6 8 -10q3 -2 10 -4.5t9 -3.5q16 -8 12 -22q-1 -3 -3.5 -9.5t-3.5 -10.5q-26 -59 -56 -162q-10 -37 -5 -54q-1 0 -3 -0.5t-3 -1.5q-1 0 -1 -5q4 -1 5.5 1t0.5 6zM84 -1
q38 7 61 13q4 1 10 9q15 24 9 45q-2 7 -5.5 20t-5.5 19q-3 9 -10 3q-37 -26 -77 -56q-4 -3 -14 -15q-5 -6 -3 -15.5t10 -13.5q4 -1 12.5 -4t12.5 -5z" />
    <glyph glyph-name="eses" unicode="eses" horiz-adv-x="968" 
d="M454 197q-6 -42 -8 -67v-31q0 -3 5.5 -7t8.5 -3l18 3q50 20 88 55q14 11 22 29q12 30 19 45q18 36 48 71q9 9 19 16q7 6 17 2t11 -14q5 -18 -6 -35q-6 -10 -25.5 -41t-30.5 -47q-25 -35 -34 -91q0 -3 2 -25q0 -4 6.5 -9t11.5 -4q3 1 7.5 2t8.5 2l8 2q77 33 159 93
q22 18 35 42l18 39q5 12 18.5 13.5t21.5 -9.5q8 -10 10 -16q27 -64 47 -113q6 -15 -4 -29t-17 -18q-50 -36 -105 -49q-9 -2 -18 2q-6 0 -8 7q-2 6 3 11q4 3 16 8q43 13 71 37q11 9 7 22q-14 42 -22 63q-1 5 -7 6t-8 -3q-10 -13 -21 -24.5t-27 -23.5t-24.5 -17.5t-30.5 -19.5
t-27 -17q-21 -13 -88 -44q-24 -13 -60 -4q-8 1 -19 14q-12 17 -9 35q0 4 0.5 12t0.5 12t-6.5 6.5t-8.5 0.5q-12 -9 -26 -17t-32.5 -17t-27.5 -14q-14 -7 -12 -26q2 -12 1 -18q-4 -10 -10 -15q-11 -11 -33 -15q-49 -5 -87 22q-10 7 -19 24q-3 7 1 17q9 18 27 24q10 3 30 8
t30 8q11 5 13 11l6 42t6.5 50t1.5 43q-2 7 -8 7h-6q-4 -2 -5 -3q-60 -55 -72 -67q-66 -64 -128 -106q-5 -3 -28.5 -20t-38.5 -23q-43 -17 -51 -20q-19 -5 -36.5 3t-25.5 26q-18 37 -17 71q3 78 37 128q2 2 11 15.5t14 19.5q13 15 37 19t43 -6q15 -8 18 -24q9 -39 -15 -63
q-27 -28 -67 -63q-3 -3 -11 -5.5t-11 -4.5q-5 -4 -7 -10q-6 -34 12 -58q4 -6 10 -6q21 2 30 6q38 16 55 28q95 70 122 93q11 10 59 52.5t73 66.5q6 6 17.5 4t15.5 -10q7 -17 8 -23q0 -2 3 -43zM119 210q0 4 -1 5q-4 5 -11 2q-28 -12 -39 -42q0 -5 1 -5q8 -3 10 -2
q19 11 39 36q1 2 1 6zM395 12q-1 0 -2.5 1.5t-2.5 1.5q-10 2 -17 -5q1 0 2.5 -2t2.5 -2q9 -3 17 2v4z" />
    <glyph glyph-name="ese" unicode="ese" horiz-adv-x="799" 
d="M824 112l-1 -1q-23 -18 -86 -57q-21 -13 -88 -44q-24 -13 -60 -4q-8 1 -19 14q-12 17 -9 35q0 4 0.5 12t0.5 12t-6.5 6.5t-8.5 0.5q-12 -9 -26 -17t-32.5 -17t-27.5 -14q-14 -7 -12 -26q2 -12 1 -18q-4 -10 -10 -15q-11 -11 -33 -15q-49 -5 -87 22q-10 7 -19 24
q-3 7 1 17q9 18 27 24q10 3 30 8t30 8q11 5 13 11l6 42t6.5 50t1.5 43q-2 7 -8 7h-6q-4 -2 -5 -3q-60 -55 -72 -67q-66 -64 -128 -106q-5 -3 -28.5 -20t-38.5 -23q-43 -17 -51 -20q-19 -5 -36.5 3t-25.5 26q-18 37 -17 71q3 78 37 128q2 2 11 15.5t14 19.5q13 15 37 19
t43 -6q15 -8 18 -24q9 -39 -15 -63q-27 -28 -67 -63q-3 -3 -11 -5.5t-11 -4.5q-5 -4 -7 -10q-6 -34 12 -58q4 -6 10 -6q21 2 30 6q38 16 55 28q95 70 122 93q11 10 59 52.5t73 66.5q6 6 17.5 4t15.5 -10q7 -17 8 -23q0 -2 3 -43q-6 -42 -8 -67v-31q0 -3 5.5 -7t8.5 -3l18 3
q50 20 88 55q14 11 22 29q12 30 19 45q18 36 48 71q9 9 19 16q7 6 17 2t11 -14q5 -18 -6 -35q-6 -10 -25.5 -41t-30.5 -47q-25 -35 -34 -91q0 -3 2 -25q0 -4 6.5 -9t11.5 -4q3 1 7.5 2t8.5 2l8 2q77 33 159 93q2 2 4 3q10 2 15 -2q15 -7 -4 -32zM68 175q0 -5 1 -5
q8 -3 10 -2q19 11 39 36q1 2 1 6t-1 5q-4 5 -11 2q-28 -12 -39 -42zM395 8v4q-1 0 -2.5 1.5t-2.5 1.5q-10 2 -17 -5q1 0 2.5 -2t2.5 -2q9 -3 17 2z" />
    <glyph glyph-name="ten" unicode="ten" horiz-adv-x="1078" 
d="M921 86q-48 -36 -131 -73q-20 -9 -42 -9h-2q-16 0 -26.5 10.5t-12.5 27.5q0 15 3 36q1 6 5 20t5 22q2 10 0 19v7v0h1v2q5 1 5 3q0 1 -3 3v0l-3 -4v-1h-2h-1v-1v0q-16 -1 -36 -19q-51 -45 -146 -89q-35 -16 -81 -31q-18 -5 -42 -5h-2q-24 0 -41.5 14.5t-21.5 38.5
q-9 51 4 99q7 26 11 34q7 15 -1 44q-4 12 -4 20q-2 7 -13 7h-11h-12q-23 0 -35 -2q-31 -6 -100 -11q-7 0 -37 -5q-1 0 -3 -1h-2q-24 -4 -34 -25q-34 -74 -41 -130q-2 -22 -18 -77l-1 -6q-3 -11 1 -36q3 -12 -6 -18q-8 -5 -18 -5q-7 0 -14 5q-10 10 -9 17q1 8 3.5 24t3.5 24
q24 143 42 198q3 5 -1 13q-5 6 -13 6h-2q-5 0 -13 -2q-10 -2 -15 -2q-7 -1 -14 7t-8 16q0 19 12 23q2 0 8 1.5t8 2.5q26 8 40 9q33 2 55 41q8 15 26.5 44t26.5 43q5 7 15 23q3 6 14 6q6 0 10 -3q17 -11 13 -22q-1 -1 -1 -3t-1 -3q-1 -7 -5 -14q-3 -5 -9.5 -15t-9.5 -15
q-3 -4 -20 -31q-3 -6 -9 -20q0 -1 -1 -3t-1 -3q-2 -3 2 -10q5 -7 10 -7q5 -1 15 -1q28 -2 41 -2h1h44q16 1 48 1q45 0 80 -3h5q17 0 30 10q29 24 67 41q20 10 44 10q13 0 25 -3q14 -3 32 -15q15 -11 17 -32q3 -21 -12 -36q-5 -5 -23 -17q-28 -19 -98 -42q-23 -7 -28 -8
q-2 0 -5.5 -1t-5.5 -1q-28 -7 -34.5 -15t-17.5 -47l-1 -1q-10 -36 14 -75q4 -6 13 -7q2 -1 7 -1t8 1q4 1 11 3.5t11 3.5q35 9 60 20q164 71 256 169q4 4 7 6l4 4q4 2 10 2q7 0 9 -2q17 -11 13 -22l-2 -4t-1 -4q-4 -14 -9 -25q-15 -27 -38 -94q-3 -8 -3 -26v-9q0 -3 3 -6
q5 -7 13 -7h1q3 0 5 1q6 0 9 1q63 25 143 83q26 19 43 48l16 24q5 8 17 8q3 0 7 -2q17 -9 15 -21v-4q0 -24 -5 -38q-13 -33 -13 -78q-3 -62 44 -84q3 -3 6 -9q0 -1 0.5 -1t0.5 -1q1 -2 1 -6q-3 -3 -5 -4q-6 -3 -12 -3q-7 0 -15 4q-14 7 -29 17l-8 4q-13 8 -23 27
q-8 18 -14 46q0 1 -2 9.5t-4 12.5q0 2 -4 4.5t-7 2.5q-1 0 -1 -1q-9 -3 -25 -14zM468 262q-4 -4 -4 -6q1 -3 4 -4q2 0 2 -1h1q53 5 91 34q1 1 4 6q2 5 1 8q-2 4 -6 4q-1 1 -5 1q-6 2 -11 2q-3 0 -5 -1q-50 -15 -72 -42v-1z" />
    <glyph glyph-name="ek" unicode="ek" horiz-adv-x="671" 
d="M758 312q4 -8 -3 -12q-12 -6 -18 -8q-114 -38 -258 -134q-1 0 -1 -1q-4 -5 -11 -16t-11 -17q-12 -19 -5.5 -39t26.5 -29q32 -15 59 -15q11 -1 33.5 -1t33.5 -1q12 -1 34 -5q8 -2 5 -11l-7 -10q-49 -10 -105 -13q-26 -2 -82 14q-21 7 -36.5 27t-19.5 44q-3 -3 -8 -8.5
t-7 -8.5q-20 -20 -31 -36q-14 -23 -57 -32q-3 -1 -8 4t-5 9t2 13t2 14q1 6 -2.5 9t-9.5 1l-135 -45q-18 -6 -54 -6q-25 2 -44 15q-12 9 -18 20q-20 31 -17 64q0 27 20 100q4 12 11 16q9 6 53 53q27 27 55 39q16 6 34 3q11 -2 20 -11.5t10 -20.5v-27q-2 -16 -13 -23
q-21 -14 -47 -27q-9 -5 -27 -14t-27 -14q-37 -18 -37 -60q3 -40 3 -41q2 -13 13.5 -22.5t25.5 -8.5q19 0 27 3q98 24 130 39q7 3 22 8t22 8q11 5 16 13q17 28 29 53q8 15 46 91q37 75 98 146q21 26 46 40q2 1 19 4q6 0 11 -7.5t2 -12.5q-9 -18 -14 -23q-88 -84 -161 -241
q-3 -8 5 -11q5 0 7 1q4 2 29 17q111 68 127 78q68 40 174 75q7 2 20 0q4 -1 9 -9z" />
    <glyph glyph-name="Asp" unicode="Asp" horiz-adv-x="1460" 
d="M1455 139q2 -37 -29 -64q-49 -41 -100 -41h-8h-10h-12q-33 2 -43 20q-1 3 -6 3t-9 -4t-5 -6q-92 -142 -151 -264q-2 -3 -15 -35q-1 -2 -3.5 -9t-3.5 -11q-4 -11 -12.5 -30t-9.5 -23q-6 -14 -17.5 -42t-16.5 -42t-27 -22l-2 -1h-3q-14 0 -14 13q-4 40 11 71q3 5 8 15.5
t7 15.5q3 5 6 11t6.5 13.5t5.5 11.5q96 186 146 419q3 18 3 37q1 5 1 15q0 6 -4 10q-5 5 -10 5h-1q-65 -8 -101 -22q-24 -9 -72 -23q-6 -2 -17.5 -5.5t-16.5 -5.5q-21 -5 -21 -29q-1 -6 -1 -17q0 -19 -1 -28q-2 -17 -8 -43q-7 -29 -39 -51q-38 -25 -85 -25q-9 0 -27 2
q-15 3 -28 9q-27 12 -29 38q-1 2 -1 6q0 6 -1 9q-7 52 41 87q10 7 43 26q6 2 8 4q17 9 35 16l12 6q26 13 25 44q-1 3 -1 8q-2 24 -4 36q0 4 -8 8q0 1 -1 1t-2 1q-3 3 -8 2q-22 0 -32 -1q-47 0 -79 -5q-39 -8 -118 -10q-38 -1 -73 -12q-21 -7 -30.5 -17t-10.5 -29
q-1 -5 -1 -16q-4 -59 5 -88q2 -8 2 -14q1 -69 46 -115q1 -1 1 -8q-3 -9 -12 -13q-3 -1 -10 -1q-9 0 -17 5q-11 8 -20 20q-18 24 -24 54q-2 12 -4 20q-13 73 -12 104v48q0 4 -0.5 10t-0.5 9q0 6 -4.5 12t-9.5 6q-4 0 -12 -1t-12 -1q-68 -4 -101 -15q-23 -8 -32 -20
q-13 -17 -34 -38q-27 -27 -35 -39q-17 -22 -46 -51l-8 -8q-45 -47 -63 -75q-15 -24 -55 -47q-2 -1 -5 -1q-12 0 -17 12q-8 15 0 26v1q6 9 14 17q73 73 108 109q43 43 64 65q1 1 13 16l1 1q4 6 4 22h-1q-2 18 1.5 26t16.5 15l4 2q2 0 5 2t4 2q50 14 92 72q17 24 79 107h1
q3 5 10.5 15t11.5 15q3 4 9.5 11.5t9.5 11.5q7 5 15 5q16 0 21 -11v-1q7 -21 7 -27v-60v-44q0 -22 3 -44q2 -10 10 -12q25 -5 33 -5q9 0 20 3q30 8 62 8h11h16q48 0 116 9q44 6 75 8q11 1 40 14q14 8 22 10q8 3 14 3q9 0 21 -5t15 -16q2 -11 -4 -17q-14 -19 -25 -27
q-10 -9 -16 -25q-10 -31 2 -36q7 -4 15 -4q3 0 15 2q4 2 12 4q31 10 37 12q38 14 128 38l57 15q19 5 36 -1q4 -1 8.5 -6t4.5 -8q-2 -6 0 -11q0 -17 -2 -26q-1 -4 -12 -46q-2 -7 -5 -20.5t-4 -19.5q-9 -41 -6 -63q4 -2 6 -4q10 1 16 9q50 76 100 156q4 6 16 30q5 11 11 22
q8 13 18 23q4 4 10 4h2q19 -3 37 -22q25 -30 35 -72q10 -43 10 -73zM453 351v0q0 7 -1 10l-3 27q0 7 -4 7h-1h-2q-9 0 -12 -4l-5 -6q-52 -62 -71 -102q-2 -6 -1 -9q3 -3 7 -5q12 -3 25 -3q9 0 25 2q6 0 9 1q23 2 27 23q4 28 5 42q2 10 2 17zM855 70l-1 6q0 2 -0.5 7t-0.5 8
q-1 6 -7.5 11.5t-12.5 5.5h-3q-46 -14 -80 -39q-23 -15 -18 -47q4 -12 6 -14q19 -17 38 -17q7 0 10 1q16 4 41 18q19 12 25 36q1 3 1.5 8t0.5 8q0 5 1 8zM1350 75q26 6 40.5 26.5t10.5 45.5q-1 7 -12 53q-1 3 -2.5 9.5t-2.5 9.5l-2 4q-2 0 -2 2q-5 8 -14 8q-4 0 -7 -3
q-13 -18 -35.5 -49t-27.5 -38l-17 -23q-3 -6 -9 -15q-1 -2 -2 -5l-1 -2q-5 -7 -3 -12q1 -4 14 -9q20 -8 36 -8q13 0 22 4q2 1 8 1q2 1 6 1zM452 361z" />
    <glyph glyph-name="sp" unicode="sp" horiz-adv-x="771" 
d="M770 139q0 -39 -30 -64q-47 -41 -100 -41h-8h-9h-12q-32 2 -44 20q-1 3 -5 3q-5 0 -9 -4h-1q-1 -2 -5 -6q-92 -142 -151 -264q-9 -19 -14 -35q-2 -3 -4.5 -10t-3.5 -10q-14 -36 -21 -53q-12 -28 -34 -84q-6 -14 -27 -22q-1 0 -3 -1h-2q-13 0 -15 13q-3 41 12 71
q2 5 7 15.5t8 15.5t6 11t6.5 13.5t5.5 11.5q97 187 145 419q1 6 4 37q0 10 1 15q0 6 -4 10q-5 5 -10 5h-1q-65 -8 -102 -22q-20 -8 -72 -23l-18 -6t-16 -5q-19 -5 -21 -29v-17q0 -19 -1 -28q-2 -17 -8 -43q-7 -29 -39 -51q-38 -25 -85 -25q-8 0 -28 2q-12 3 -28 9
q-26 12 -29 38v6q-1 3 -1 9q-9 51 41 87q13 10 43 26q4 1 8 4q6 3 34 16q2 1 6.5 3t6.5 3q27 14 24 44v8q-2 20 -3 29q1 13 7 33q4 14 25 41l21 9q7 3 15 3t20 -5q12 -4 15 -16q3 -11 -3 -17q-14 -19 -25 -27q-10 -9 -16 -25q-11 -30 1 -36q7 -4 16 -4q4 0 14 2q5 2 13 4
q2 1 16 5t21 7q39 15 128 38l57 15q18 5 36 -1q3 -1 7.5 -6t4.5 -8v-11q0 -17 -1 -26q-2 -8 -6 -23.5t-6 -22.5q-2 -6 -5.5 -20t-4.5 -20q-9 -41 -5 -63q1 0 2 -2l1 -2v0v0q14 0 18 9q73 111 100 156q4 6 16 30q2 4 6 11.5t6 10.5q6 12 17 23q4 4 11 4h2q20 -3 36 -22
q25 -28 35 -72q9 -35 11 -73zM169 70v6q-1 2 -1 7t-1 8q-1 6 -7 11.5t-13 5.5h-3q-46 -15 -79 -39q-23 -15 -18 -47q0 -8 6 -14q17 -17 37 -17q7 0 11 1q17 4 40 18q21 13 25 36q2 10 2 16q0 2 0.5 4t0.5 4zM665 75q26 6 40.5 26.5t10.5 45.5q-3 20 -13 53q0 3 -1.5 9
l-2.5 10q-2 2 -3 4l-2 2q-3 8 -13 8q-5 0 -7 -3q-9 -12 -31 -42.5t-33 -44.5l-17 -23q-6 -12 -8 -15q-2 -5 -4 -7q-4 -8 -3 -12q2 -5 14 -9q22 -8 36 -8q13 0 22 4q3 1 8 1q2 1 7 1zM-234 361z" />
    <glyph glyph-name="su" unicode="su" horiz-adv-x="758" 
d="M749 236q2 -13 -8 -33q-33 -72 -42 -116q-4 -24 -5 -36q0 -23 14 -34l1 -2q3 -2 9 -8q11 -13 2 -23q-5 -7 -17 -7q-1 0 -3 0.5t-3 0.5q-28 9 -42.5 31.5t-8.5 49.5q5 27 12 49q2 6 5 17.5t4 16.5q1 4 -5 12v1l-1 1h-1q-1 1 -2 1q-4 0 -7 -3q-53 -44 -162 -112l-4 -2
q-22 -14 -79 -33h-1q-2 -1 -7 -1q-11 0 -20.5 8.5t-10.5 19.5q-2 24 2 35q5 16 41 95h1q2 5 5 10q2 5 -1 11q-5 6 -13 6h-6h-4q-8 0 -12 -1q-58 -11 -91 -20q-22 -5 -84 -22q-19 -7 -34 -15q-8 -5 -14 -17q-11 -22 -11 -43q0 -14 -1 -21q0 -6 -0.5 -18.5t-0.5 -18.5
q1 -21 -11 -35q-17 -17 -44 -17h-3q-49 2 -75 46q-16 26 -3 61q12 37 35 51q2 2 6.5 5.5t6.5 4.5q8 7 17 11q7 5 14 8q22 10 27 22q6 13 18 57l1 5q1 3 1 21v7h1q6 4 8 8l15 33q1 2 3 6.5t3 6.5q15 34 56 62l8 3q4 2 5 2q8 4 18 -3q46 -35 37 -85q0 -3 -6 -11h-1
q-11 0 -14 7q-3 3 -5 8q-6 9 -7 10q-7 9 -12 10q-4 2 -7 2q-4 0 -8 -2q-7 -2 -12 -10q-31 -45 -40 -108q0 -1 2 -5q4 -6 10 -6h11q14 0 19 2q47 15 152 36q10 2 29.5 6t28.5 6q2 1 5 1q2 0 2 1h7q18 0 30 -15q10 -15 4 -31q-16 -39 -29 -58q-11 -17 -18 -44q-5 -14 -5 -16
q-1 -2 2 -9q3 -3 7 -3h1q1 1 3 1q15 4 18 6q159 81 230 150q16 16 40 30q4 2 9 2q4 0 8 -2q5 -4 7 -17zM103 72v11q-2 13 -7 15q-6 2 -15 -3q-22 -10 -36 -45q-7 -23 17 -39q10 -5 16 -5q17 0 20 20l4 28v1q0 1 0.5 2.5t0.5 2.5v12z" />
    <glyph glyph-name="bi" unicode="bi" horiz-adv-x="584" 
d="M509 168v26q0 4 -4.5 8.5t-8.5 3.5q-31 0 -40 -2q-51 -11 -98 -14q-16 -1 -23 -20q-2 -4 -4.5 -12.5t-3.5 -12.5q-2 -6 -5.5 -19t-5.5 -19q-21 -66 -91 -99q-39 -19 -77 -13q-57 8 -80 52q-2 5 -6.5 15t-7.5 15q-6 13 -10 14.5t-20 -0.5q-2 -1 -6 -1q-4 -1 -9 2.5t-6 7.5
q-4 14 -3 20q25 117 67 200q6 12 19.5 40.5t21 44t20.5 38t25 40.5q33 48 68 71q6 4 15.5 -1t10.5 -12q6 -27 -15 -48q-4 -4 -12 -9t-10 -6q-19 -13 -31 -34q-2 -3 -17.5 -28.5t-21.5 -39.5q-23 -51 -63 -153q-1 -1 2 -12l11 3q15 12 24 23q14 17 32 33t41.5 35t34.5 29
q15 12 41 21q36 16 56 -17q16 -24 19 -49q2 -26 4 -39q0 -7 5 -12.5t11 -5.5q54 -2 85 7q32 9 96 25q9 2 25 -6q8 -4 10 -15q2 -9 1 -13q-17 -57 -13 -111q1 -7 -7.5 -12.5t-16.5 -3.5q-23 7 -28 26q-2 8 -2 13v26h1zM163 33q63 2 95 50q20 32 27 67q0 9 -1 13q-4 9 -8 9
q-40 -4 -123 -26q-17 -5 -39 -23q-15 -14 -14.5 -35.5t15.5 -35.5q22 -19 48 -19zM297 241q2 41 -16 62q-4 6 -11 4q-38 -11 -77 -47q-8 -6 -46 -55l-2 -6q9 -5 12 -4q28 7 84 13q12 2 38 10q18 6 18 23zM615 393q-8 2 -11 4q-10 9 -29.5 26.5t-29.5 26.5q-1 1 -3 5
q-6 9 -4.5 22t11.5 18q8 5 20 3t16 -9q9 -15 24 -43.5t20 -36.5v-6l-3 -6q-4 -7 -11 -4z" />
    <glyph glyph-name="zu" unicode="zu" horiz-adv-x="679" 
d="M84 101q-21 4 -55 -7q-11 -4 -36 -6q-7 0 -16 9q-4 4 -4 11.5t4 11.5q13 13 20 15q56 14 73 16q10 1 28 6t26 6q21 3 36 23q18 24 30 61q2 6 -1.5 15t-9.5 12q-39 18 -66 5q-20 -8 -29 -12q-19 -10 -24.5 -19.5t-3.5 -30.5q3 -27 2 -30t-6.5 -5.5t-9.5 -1.5q-3 1 -11 5
q-26 22 -25 54t29 54q36 28 86 34q7 1 44 1q29 -2 50 -23q25 -25 14 -57q-3 -9 -7 -18.5t-9 -21t-8 -17.5l-2 -6q10 -5 11 -5q39 6 55 11q13 4 43.5 10t46.5 13q2 1 6.5 1.5t6.5 0.5q15 2 25 -8.5t8 -26.5q-6 -34 -8 -55q0 -8 6 -24q2 -9 15 -9q1 1 3 1t3 1q87 34 136 74
q8 7 23.5 20.5t23.5 20.5q4 3 11.5 3t12.5 -3q12 -8 12 -20q0 -1 -3 -25q-7 -28 5 -68q11 -35 43 -51q3 -2 11 -5t11 -4q4 -2 4 -7.5t-5 -7.5q-14 -6 -17 -5q-35 9 -48 14q-28 13 -44 50q-5 12 -11 36q-6 19 -11.5 20.5t-22.5 -11.5q-35 -27 -106 -65q-20 -11 -40 -18
q-13 -5 -27.5 0.5t-20.5 17.5q-16 31 -15 54q1 8 1 25q0 32 -32 22t-103 -22q-26 -4 -48 -15q-8 -3 -15 -10q-44 -50 -65 -76q-1 -1 -2 -3t-1.5 -4.5t-1.5 -3.5q-2 -6 2.5 -14.5t11.5 -9.5q27 -8 75 0q5 1 17 4t19 4q8 2 16 -6q4 -2 1.5 -11t-6.5 -11q-1 0 -2.5 -2t-2.5 -2
q-51 -18 -103 -24q-57 -6 -80 47q-6 13 0 24q11 16 33 46q1 2 23 29q1 1 5 3v3q-5 0 -4 -7z" />
    <glyph glyph-name="reg" unicode="reg" horiz-adv-x="901" 
d="M28 63q0 11 -2 32.5t-2 32.5q-2 22 -16 33q-7 7 -7 17q-1 15 -1 46q1 15 12 21t25 -2q7 -5 15 -12q7 -7 10 2q1 2 4 5q9 17 20.5 21.5t27.5 -2.5q20 -7 60 -23l15 -6t18 -7t15 -5q32 -11 66 16q12 10 25 30q14 19 62 56q12 10 31 8t27 -15q10 -19 -1 -37q-9 -14 -23 -23
q-11 -7 -35 -22t-35 -23q-11 -9 -13 -14q-23 -56 -13 -108q2 -8 4 -12q15 -35 51 -29q16 4 37 11q112 44 169 65q27 11 35 34q14 44 42 80q42 54 96 96q19 14 47 22q14 4 28 -3.5t18 -21.5q7 -26 21 -39q23 -18 15 -46q-3 -6 -1 -19q1 -9 5 -32q19 -66 2 -172
q-17 -114 -95 -194q-43 -44 -90 -73q-41 -26 -87 -19q-20 4 -32 21t-6 36q10 37 25 52q7 5 12 2q6 -4 6 -9q0 -2 -5 -19q-2 -9 -4 -25q-1 -10 6.5 -18.5t16.5 -6.5q44 6 66 24q49 38 65 53q30 29 50 75q30 69 31 131q0 89 -15 127q-3 9 -10 2q-13 -11 -28 -27
q-16 -16 -49.5 -50t-50.5 -51q-14 -13 -30 -24q-18 -14 -43 -8q-19 4 -27 25q-4 13 0 39q1 6 -4 10t-12 3q-21 -5 -25 -7q-22 -15 -48 -27t-59 -25.5t-51 -21.5q-16 -8 -50 -10q-27 -1 -45.5 18t-20.5 41q-1 11 -1.5 32.5t-0.5 32.5q0 10 -2 32q0 4 -4 8t-8 5q-1 0 -6 1
t-7 0q-32 -3 -69 14q-9 4 -27.5 9t-21.5 6q-30 7 -35 -26q-12 -94 -11 -116q0 -6 -0.5 -16.5t-0.5 -15.5q-1 -26 -32 -36q-6 -2 -12.5 2.5t-6.5 10.5q0 3 -0.5 9.5t-0.5 9.5v39h1zM794 310q-1 0 -6 -0.5t-7 -1.5q-48 -30 -74 -61q-43 -53 -68 -124q-1 -3 -4 -38q0 -9 5 -12
q6 -2 12 2q28 17 76 69q6 8 7 11q2 12 7.5 23.5t14.5 25t13 20.5l30 57q3 8 1 19q0 2 -1 3.5t-3 3.5z" />
    <glyph glyph-name="re" unicode="re" horiz-adv-x="614" 
d="M614 123q9 1 12 -6t2 -17q-6 -10 -10 -14q-48 -25 -173 -74q-48 -18 -116 -9q-13 1 -25.5 14t-15.5 28q-9 42 6 81q20 51 50 91q2 4 7 11.5t8 11.5q5 9 2 17t-12 10q-57 14 -95 1q-97 -11 -148 -112q-20 -42 -28 -78q-2 -14 -9.5 -38.5t-8.5 -28.5q-4 -11 -17 -20t-26 -8
q-3 0 -11 8q-8 11 -5 26q1 6 4.5 17.5t5.5 16.5l1 1q1 3 11.5 32.5t17.5 43.5q6 15 18 36q6 14 11 20l2 2q2 2 18 20q32 40 40 48q47 50 116 55q94 6 151 -13q31 -9 61 6q27 15 64 25q26 8 54 -3q26 -10 30.5 -35t-14.5 -44q-10 -10 -16 -13q-39 -22 -109 -45q-15 -5 -41 1
q-21 7 -27 7q-12 0 -18 -8q-19 -23 -27 -39q-13 -25 -23 -58q-5 -14 3 -27q8 -19 25 -20q37 -6 76 7q104 38 170 70zM453 248l-5 -5l6 -3q36 -3 85 23q1 1 4 6q2 2 2 6q-1 1 -2.5 2t-2.5 2q-31 8 -52 -11q-15 -16 -35 -20z" />
    <glyph glyph-name="An" unicode="An" horiz-adv-x="980" 
d="M354 138q0 -40 11 -84q10 -36 35 -50q11 -8 8 -18q-8 -26 -30 -24q-17 0 -25 11q-8 12 -10 18q-26 68 -30 131q-1 18 -3 56q-1 8 -7 12.5t-12 2.5q-55 -21 -89 -23q-36 -3 -59 -34q-20 -26 -58 -80q-23 -32 -39 -67q-2 -4 -13 -17q-3 -4 -9 -5.5t-10 1.5q-11 9 -13 15
q-4 11 1 21q8 20 20 37q7 10 51 67q17 21 34 46q5 8 3 27q-1 29 18 33q37 6 67 48q42 61 100 170q3 5 12 23t15 27q0 1 23 26q5 4 13 1.5t10 -8.5q10 -32 7 -49q-12 -102 -18 -154q-1 -5 2 -27q0 -4 4 -6q3 -1 6 0q86 13 194 40q33 9 69 7q16 -1 26.5 -11t9.5 -25
q0 -38 -9 -77q-6 -24 -17 -82q0 -4 7 -11q2 -2 7 0q15 7 18 10q18 16 52 48q16 17 48.5 51t49.5 51l40 40q13 12 29.5 7t21.5 -22q0 -2 1 -4t1 -3q13 -68 15 -90q7 -86 40 -133q2 -4 -2 -9t-9 -6q-11 -1 -20 5q-22 16 -35 52q-27 86 -29 138q0 8 -9 8q-1 0 -3.5 -0.5
t-3.5 -1.5q-13 -10 -16 -14q-10 -10 -27.5 -29t-32 -34.5t-27.5 -29.5q-11 -11 -34.5 -34t-35.5 -35t-60 -37q-5 -2 -13.5 1t-11.5 8q-9 20 -9 26q-3 52 7 98q3 14 8.5 39.5t7.5 36.5t-3.5 17.5t-15.5 4.5q-30 -7 -89.5 -20t-89.5 -20q-5 -1 -16.5 -5t-17.5 -6
q-17 -6 -24 -15t-7 -26v-35zM313 383q-13 1 -21 -14q-11 -23 -57 -97q-3 -4 -15 -31q-2 -4 2 -8.5t9 -5.5q36 -2 67 16q11 7 11 16q1 9 3 30.5t2.5 33t0 29t-2.5 32.5l4 4q4 3 5 5q5 8 -4 8q-1 0 -3 -5q0 -9 -1 -13z" />
    <glyph glyph-name="ann" unicode="ann" horiz-adv-x="1389" 
d="M1371 171q-4 -12 -5 -18q-4 -18 -8 -26q-17 -47 3 -83q1 -1 -1 -6q-2 -7 -7 -9l-2 -1h-3l-1 -1h-3q-5 0 -17 2q-22 5 -25 30q-2 26 5 53q2 9 8 27q11 37 11 55q0 5 -3 8q-2 2 -6 2h-1q-5 -3 -23 -16q-22 -19 -32 -27q-64 -57 -111 -88q-11 -9 -35 -30q-28 -24 -41 -33
q-17 -9 -31 -8q-10 0 -18 11q-5 8 -5 18q1 1 1 4q2 18 5 26q11 30 26 64q10 28 16 42q2 3 -3 8q-2 2 -5 2q-1 0 -2 -1q-10 -8 -32 -24q-34 -24 -51 -40q-16 -14 -50 -40l-39 -30q-14 -12 -52 -25h-3q-5 -2 -10 5q-5 5 -5 12v3q0 3 0.5 8.5t1 10t1.5 8.5q5 15 14.5 42
t13.5 37q16 40 22 89q1 3 -3 6.5t-7 3.5q-6 1 -13 -4q-40 -30 -61 -48q-5 -4 -17 -13t-17 -14q-48 -40 -71 -56q-64 -48 -115 -57h-1q-3 0 -7.5 4t-4.5 8q0 1 -0.5 3t-0.5 3q0 4 -0.5 12t-0.5 12q0 25 8 69q0 4 2 11.5t2 11.5q1 2 -2 13q-1 1 -1 3q-1 3 -6 3h-1l-2 -1
l-15 -10q-116 -99 -248 -151q-1 -1 -2 -1q-2 0 -2 -1l-27 -9q-12 -3 -19 -3q-11 0 -17 7q-7 9 -6 37q0 13 6 41q2 7 4 19q2 5 -2 8q-1 4 -5 4t-8 -3q-16 -11 -52 -35q-17 -11 -20 -13q-10 -6 -15 -10q-36 -22 -41 -25q-12 -7 -31 -13q-2 0 -5.5 -0.5t-4.5 -0.5q-18 0 -31 18
q-12 20 -6 42q9 30 15 42q13 24 39 70q8 14 12 22q6 8 9 11q55 61 114 94q25 14 57 14q42 1 68 -39q5 -7 11 -7q4 0 9 3q2 2 8 6l9 6l12 6h1q6 0 11 -7t5 -10q-2 -21 -12 -34q-5 -6 -33 -37v-1q-49 -52 -69 -140q0 -2 2 -6q4 -6 7 -6q2 -1 6 -1q8 0 14 3l8 4q102 51 150 81
q98 60 151 128q0 2 3 2l2 2q3 3 9 3q5 0 7 -3q9 -11 10 -18q2 -10 -3 -21q-20 -56 -31 -104q-2 -14 -2 -22v-9q0 -4 2 -7q4 -6 12 -6h2q40 15 78 45q45 35 90 66q76 55 97 71l8 3q1 1 4 1q1 0 1 0.5t1 0.5q7 0 13.5 -6t8.5 -13q5 -24 -2 -53q-13 -60 -31 -118q0 -4 4 -8
q2 -3 6 -3h2q2 0 6 2q36 28 54 41q103 79 134 107q4 4 7 5q1 1 4 3q2 2 7 2q9 0 15 -8q15 -18 10 -41q-1 -7 -11 -34l-1 -2q-7 -19 -17 -44q-2 -5 -6.5 -17t-6.5 -17t0 -7l1 -1v-1h3q4 -2 7 -2h1q1 1 2 1l3 2q100 69 144 107q14 11 34 26q31 22 49 40q2 2 8 4q1 0 1 1l2 1
q1 0 3 0.5t3 0.5q8 0 14.5 -6.5t7.5 -15.5q6 -49 -5 -84zM239 235q24 19 33 37q2 6 2 10q0 1 0.5 2.5t0.5 2.5v0q-1 12 -12.5 22t-23.5 10q-5 0 -7 -2q-69 -32 -100 -77l-12 -15q-10 -10 -15 -19q-8 -12 -12 -17q-29 -47 -34 -69q0 -8 1 -8q1 -1 2 -1q6 -4 9 -4h2
q58 28 118 74q9 6 14 16q7 16 33 37z" />
    <glyph glyph-name="am" unicode="am" horiz-adv-x="1231" 
d="M1200 77q-31 -21 -35 -23q-12 -7 -36 -27q-31 -25 -42 -31q-17 -9 -31 -8q-10 0 -18 10q-6 10 -5 17q0 3 1 4q2 17 5 24q8 20 26 60q1 2 7 16t9 22q1 5 -2 8q-4 2 -5 2q-2 0 -2 -1q-5 -3 -16 -11t-17 -11q-47 -33 -52 -37q-21 -17 -50 -37q-6 -5 -20 -14.5t-20 -14.5
q-17 -12 -53 -22l-2 -1q-6 -2 -11 5q-5 5 -5 11l1 2q0 18 3 25q10 33 28 74q16 38 22 83q2 7 -10 10q-9 0 -14 -4q-38 -27 -61 -45q-7 -5 -19.5 -14t-14.5 -11q-48 -36 -72 -52q-68 -45 -117 -53h-1q-3 0 -7.5 3.5t-4.5 7.5q0 1 -0.5 3t-0.5 3q-1 7 -1 22q0 24 8 64
q1 3 2.5 10t1.5 11q1 3 -2 13q-1 1 -1 2q-2 4 -6 4l-1 -1l-2 -1q-9 -4 -16 -9q-113 -91 -250 -141q-1 0 -2.5 -0.5t-2.5 -0.5q-14 -6 -27 -9q-8 -2 -19 -2q-12 0 -17 6q-7 8 -7 34q1 14 7 38q1 3 2 9t2 9q1 4 -2 8q-1 3 -6 3q-1 0 -7 -2q-9 -6 -27 -17t-26 -16
q-9 -6 -21 -12q-4 -3 -14 -9q-6 -3 -13 -7t-15.5 -9t-13.5 -8q-17 -8 -32 -11q-6 -2 -10 -2q-19 0 -31 17q-12 19 -6 39q8 26 15 40q8 13 22.5 35.5t17.5 28.5q8 14 12 20q6 8 9 11q57 57 115 88q23 11 59 13q43 0 68 -37q5 -6 11 -6q4 0 9 3q1 0 8 5l9 6q2 1 6 2.5t6 2.5h1
h1q6 0 11 -6q5 -7 5 -9q-2 -20 -12 -32q-22 -24 -34 -35q-51 -51 -69 -131q-1 -3 1 -5q4 -6 7 -6q2 -1 7 -1q8 0 14 3l8 4q98 44 152 75q99 55 152 119l1 1q1 1 2 1t1 1l2 1q3 3 9 3q5 0 7 -3q9 -9 10 -17q2 -9 -3 -20q-18 -44 -31 -96q-2 -7 -2 -21q0 -1 -0.5 -3.5
t-0.5 -4.5q0 -3 3 -6q4 -6 11 -6h3q44 16 79 42q10 7 91 61q71 47 98 66q0 1 8 3h2l2 1h3q6 0 13.5 -5t8.5 -12q4 -18 -2 -49q-10 -47 -32 -110q0 -4 4 -8q4 -2 7 -2h1q5 0 6 1q9 7 27.5 20t27.5 19q87 60 136 100q1 1 3 2t3 2q4 2 5 3q4 2 7 2q9 0 15 -8q16 -17 10 -38
q-1 -8 -11 -32l-1 -2q-7 -19 -17 -40q-2 -6 -14 -32q0 -5 1 -7l1 -1q2 0 3 -1q1 0 3 -0.5t3 -0.5q3 0 4 1l3 2q36 22 54 34l1 1h2q26 10 28 -5q2 -13 -9 -30zM242 205q25 18 33 34q1 1 2 5t1 5q0 3 1 4v0q-1 11 -13 20.5t-24 9.5q-5 0 -7 -1q-71 -33 -101 -72q-4 -5 -13 -14
l-15 -18q-6 -7 -11 -16q-29 -40 -35 -64q-4 -4 1 -8q1 0 2 -1l9 -3h2q51 22 119 68q10 9 14 16q11 18 34 34z" />
    <glyph glyph-name="an" unicode="an" horiz-adv-x="776" 
d="M760 83q0 -21 -2 -38q0 -1 -8 -9q-3 -2 -9.5 -1t-8.5 4l-3 4q-3 4 -4 6q-14 53 -13 70q0 5 -5 32q-1 3 -6.5 5.5t-9.5 1.5q-19 -5 -34 -17q-44 -37 -73 -73q-26 -30 -53 -47q-21 -15 -39 -22q-9 -4 -31 -4q-7 -1 -13.5 5.5t-8.5 14.5q-3 29 5 51q7 27 6 45q0 5 -3 5
q-8 2 -11 0q-19 -13 -53 -37.5t-47 -33.5q-49 -34 -86 -43q-10 -3 -20.5 4t-11.5 18q-4 30 4 65q2 11 7 32t7 31q0 5 -3 5h-11q-85 -66 -92 -71q-29 -22 -48 -33q-11 -7 -35 -15q-22 -7 -36 6.5t-10 36.5q1 11 7 24q59 129 178 190q25 11 42 16q22 8 44 1t36 -26
q18 -24 22 -39q13 -46 -20 -69q-24 -17 -30 -48q-1 -4 -6.5 -24.5t-4.5 -32.5q1 -6 7 -9.5t12 -1.5q8 4 11 6q8 4 22 14q107 70 160 129q11 11 24 3q10 -7 10 -16q3 -22 -5 -44q-6 -18 -9.5 -51.5t-5.5 -43.5q0 -4 3 -4q10 2 13 4q30 22 45 36q26 23 60 58q27 26 73 54
q1 1 5 2.5t6 2.5q12 4 25.5 0t20.5 -15q14 -26 14 -43v-71zM267 255q1 6 -5 11q-15 8 -37 1q-60 -18 -107 -69q-38 -43 -57 -85q-5 -9 -6 -18q-1 -1 1 -3t3 -1q12 2 17 5q21 13 43 29t49.5 39t40.5 33q14 10 53 47q1 1 2 2.5t1.5 4.5t1.5 4z" />
    <glyph glyph-name="sowi" unicode="sowi" horiz-adv-x="1407" 
d="M315 156q-18 -4 -53 -11.5t-52 -11.5q-9 -2 -15 -10.5t-4 -17.5q1 -7 4.5 -21t4.5 -21q3 -13 3 -25q1 -9 -8 -16q-23 -15 -48 -15t-37 4q-63 18 -99 40q-17 11 -20 31q-3 21 13 33q19 12 34 17q32 9 68 15q25 5 29 11q4 8 5 30q2 42 13 81q13 40 48 80q16 19 50 24
q17 1 30 -9q33 -24 44 -67q2 -5 -2 -11q-8 -8 -11 -5q-6 6 -17.5 18t-17.5 18q-11 10 -26 8t-25 -13q-1 -2 -4 -5q-41 -57 -41 -130q0 -7 5.5 -11t12.5 -3q142 29 190 43q31 9 56 28q14 11 13 26q-1 9 -1 25q1 5 7 10.5t11 4.5q9 0 13 -1q6 0 12 -3q46 -29 127 -33
q32 -1 96.5 -8.5t97.5 -8.5q1 0 94 -12q6 -1 16 -9q13 -8 6 -22q-7 -18 -20 -24q-5 -3 -16.5 -7.5t-17.5 -7.5q-48 -20 -71 -69q-10 -17 -11 -22q-2 -9 -4 -31q0 -10 8.5 -16t18.5 -4h3t3 1q83 29 118 80q6 8 20 24q3 4 10.5 3.5t11.5 -5.5q8 -10 11 -15l18 -33
q16 -23 44 -17q13 1 21 13q14 21 14 41q2 46 2 69q1 43 30 95q9 17 34 28q10 4 18 2q34 -11 47 -18q66 -38 97 -59q16 -11 32 -30q21 -29 11 -60l-3 -12q-14 -35 -13 -67q0 -10 -11 -14q-17 -4 -23 7q-13 21 -10 35q1 4 15 61q3 12 -6 24q-12 15 -17 18q-52 38 -104 59
q-18 8 -35 -7q-29 -27 -29 -67q0 -30 5 -63q4 -32 -20 -72q-13 -21 -42.5 -28.5t-53.5 2.5q-12 5 -44 35q-10 10 -23 2q-20 -16 -30 -23q-34 -25 -72 -38q-24 -9 -49 -12q-56 -6 -56 51q0 23 6 37q15 31 22.5 45.5t24 36.5t35.5 35q8 5 3 10l-4 4q-41 11 -100 13
q-55 0 -88 8q-34 7 -63 0q-8 -2 -5 -9q5 -16 6 -17q15 -23 13 -61q0 -35 -25 -62q-36 -36 -79 -52q-33 -13 -79 -20q-15 -2 -29.5 7.5t-19.5 24.5q-10 28 -4 49q3 13 9 37.5t9 36.5q1 6 -4 10.5t-12 2.5q-8 -2 -24.5 -6t-24.5 -6zM404 66q0 -6 3 -15q1 -5 7.5 -9.5
t11.5 -3.5q69 16 118 54q13 11 19 30t0 38t-15 35q-11 25 -35 15q-26 -8 -47 -18q-21 -11 -36 -34q-26 -41 -26 -92zM152 52v15q-2 8 -11 35q-2 10 -14 10q-47 -1 -89 -25q-2 -1 -4 -5q-4 -5 4 -9q44 -21 52 -23q33 -11 48 -7q3 0 14 9zM1460 357q2 -4 -3 -11
q-5 -4 -8.5 -10.5t-7 -15t-5.5 -12.5q0 -2 -5 -2q-6 -3 -10 4q-18 38 -26 57q-8 18 7 35q12 15 27 2q7 -5 12 -13t10.5 -18.5t8.5 -15.5z" />
    <glyph glyph-name="sow" unicode="sow" horiz-adv-x="1206" 
d="M1240 258q-2 -14 -26 -14q-9 5 -17 8q-18 8 -35 -7q-29 -27 -29 -67q0 -30 5 -63q4 -32 -20 -72q-13 -21 -42.5 -28.5t-53.5 2.5q-12 5 -44 35q-10 10 -23 2q-20 -16 -30 -23q-34 -25 -72 -38q-24 -9 -49 -12q-56 -6 -56 51q0 23 6 37q15 31 22.5 45.5t24 36.5t35.5 35
q8 5 3 10l-4 4q-41 11 -100 13q-55 0 -88 8q-34 7 -63 0q-8 -2 -5 -9q5 -16 6 -17q15 -23 13 -61q0 -35 -25 -62q-36 -36 -79 -52q-33 -13 -79 -20q-15 -2 -29.5 7.5t-19.5 24.5q-10 28 -4 49q3 13 9 37.5t9 36.5q1 6 -4 10.5t-12 2.5q-8 -2 -24.5 -6t-24.5 -6
q-18 -4 -53 -11.5t-52 -11.5q-9 -2 -15 -10.5t-4 -17.5q1 -7 4.5 -21t4.5 -21q3 -13 3 -25q1 -9 -8 -16q-23 -15 -48 -15t-37 4q-63 18 -99 40q-17 11 -20 31q-3 21 13 33q19 12 34 17q32 9 68 15q25 5 29 11q4 8 5 30q2 42 13 81q13 40 48 80q16 19 50 24q17 1 30 -9
q33 -24 44 -67q2 -5 -2 -11q-8 -8 -11 -5q-6 6 -17.5 18t-17.5 18q-11 10 -26 8t-25 -13q-1 -2 -4 -5q-41 -57 -41 -130q0 -7 5.5 -11t12.5 -3q142 29 190 43q31 9 56 28q14 11 13 26q-1 9 -1 25q1 5 7 10.5t11 4.5q9 0 13 -1q6 0 12 -3q46 -29 127 -33q32 -1 96.5 -8.5
t97.5 -8.5q1 0 94 -12q6 -1 16 -9q13 -8 6 -22q-7 -18 -20 -24q-5 -3 -16.5 -7.5t-17.5 -7.5q-48 -20 -71 -69q-10 -17 -11 -22q-2 -9 -4 -31q0 -10 8.5 -16t18.5 -4h3t3 1q83 29 118 80q6 8 20 24q3 4 10.5 3.5t11.5 -5.5q8 -10 11 -15l18 -33q16 -23 44 -17q13 1 21 13
q14 21 14 41q2 46 2 69q1 43 30 95q9 17 34 28q10 4 18 2q29 -10 34 -12q26 -20 24 -38zM152 52v15q-2 8 -11 35q-2 10 -14 10q-47 -1 -89 -25q-2 -1 -4 -5q-4 -5 4 -9q44 -21 52 -23q33 -11 48 -7q3 0 14 9zM544 92q13 11 19 30t0 38t-15 35q-11 25 -35 15q-26 -8 -47 -18
q-21 -11 -36 -34q-26 -41 -26 -92q0 -6 3 -15q1 -5 7.5 -9.5t11.5 -3.5q69 16 118 54z" />
    <glyph glyph-name="so" unicode="so" horiz-adv-x="668" 
d="M584 221q-8 -2 -5 -9q5 -16 6 -17q15 -23 13 -61q0 -35 -25 -62q-36 -36 -79 -52q-33 -13 -79 -20q-15 -2 -29.5 7.5t-19.5 24.5q-10 28 -4 49q3 13 9 37.5t9 36.5q1 6 -4 10.5t-12 2.5q-8 -2 -24.5 -6t-24.5 -6q-18 -4 -53 -11.5t-52 -11.5q-9 -2 -15 -10.5t-4 -17.5
q1 -7 4.5 -21t4.5 -21q3 -13 3 -25q1 -9 -8 -16q-23 -15 -48 -15t-37 4q-63 18 -99 40q-17 11 -20 31q-3 21 13 33q19 12 34 17q32 9 68 15q25 5 29 11q4 8 5 30q2 42 13 81q13 40 48 80q16 19 50 24q17 1 30 -9q33 -24 44 -67q2 -5 -2 -11q-8 -8 -11 -5q-6 6 -17.5 18
t-17.5 18q-11 10 -26 8t-25 -13q-1 -2 -4 -5q-41 -57 -41 -130q0 -7 5.5 -11t12.5 -3q142 29 190 43q31 9 56 28q14 11 13 26q-1 9 -1 25q1 5 7 10.5t11 4.5q9 0 13 -1q6 0 12 -3q46 -29 127 -33q20 0 29 -1q1 0 3 -1t3 -1q27 -9 28 -25q1 -7 -5 -10t-16 -4q-3 -1 -8 -1
t-7 -1q-1 0 -3.5 0.5t-3.5 1.5q-34 7 -63 0zM152 52v15q-2 8 -11 35q-2 10 -14 10q-47 -1 -89 -25q-2 -1 -4 -5q-4 -5 4 -9q44 -21 52 -23q33 -11 48 -7q3 0 14 9zM544 92q13 11 19 30t0 38t-15 35q-11 25 -35 15q-26 -8 -47 -18q-21 -11 -36 -34q-26 -41 -26 -92
q0 -6 3 -15q1 -5 7.5 -9.5t11.5 -3.5q69 16 118 54z" />
    <glyph glyph-name="owi" unicode="owi" horiz-adv-x="1040" 
d="M998 201q22 -30 12 -60q-2 -8 -4 -12q-13 -36 -13 -67q0 -11 -11 -14q-15 -4 -23 7q-12 19 -10 35q1 6 7 27.5t8 33.5q4 12 -6 24q-13 16 -17 18q-51 38 -104 59q-17 8 -34 -7q-29 -26 -29 -67q0 -23 4 -63q5 -33 -20 -72q-13 -21 -42.5 -28.5t-52.5 2.5q-12 5 -44 35
q-12 10 -23 2q-20 -16 -30 -23q-36 -25 -72 -38q-24 -9 -49 -12q-56 -6 -56 51q0 23 6 37q13 29 21 45t24.5 37t36.5 35q6 5 3 10q-1 2 -5 4q-40 11 -100 13q-54 0 -87 8q-35 7 -63 0q-7 -1 -6 -9q4 -12 7 -17q13 -22 13 -61q0 -36 -26 -62q-34 -36 -78 -52q-35 -13 -79 -20
q-16 -1 -30 8t-19 24q-11 25 -5 49q13 53 17 71q3 5 5 10q2 8 4 14q1 2 3.5 6t3.5 6q11 19 25 30q11 5 26 16q13 10 12 26v25q0 5 6.5 10.5t11.5 4.5q8 0 12 -1q8 0 12 -3q46 -29 127 -33q33 -1 98 -8.5t97 -8.5q14 0 29.5 -2t34.5 -5.5t30 -4.5q6 -1 16 -9q4 -3 6 -10.5
t0 -11.5q-7 -17 -20 -24q-6 -3 -17.5 -7.5t-17.5 -7.5q-47 -20 -71 -69q-1 -1 -5 -9t-5 -13q-4 -13 -4 -31q0 -10 8 -16t18 -4h3.5t3.5 1q83 29 118 80q3 4 9.5 12t9.5 12q4 4 11.5 3.5t11.5 -5.5q8 -10 11 -15q2 -3 7.5 -15t9.5 -18q17 -23 45 -17q12 1 20 13q13 18 15 41
q2 46 2 69q0 41 30 95q9 18 34 28q9 4 18 2q32 -10 47 -18q58 -33 97 -59q18 -12 31 -30zM184 92q13 10 19.5 30.5t0.5 37.5q-10 24 -15 35q-12 24 -36 15q-26 -9 -46 -18q-23 -12 -36 -34q-25 -38 -27 -92q1 -3 3 -15q2 -5 8.5 -9.5t10.5 -3.5q71 16 118 54zM1101 357
q2 -5 -4 -11q-5 -4 -8 -10.5t-6.5 -15t-5.5 -12.5q-2 -2 -5 -2q-7 -3 -11 4q-18 38 -26 57q-7 18 7 35q12 14 28 2q9 -7 19 -25.5t12 -21.5z" />
    <glyph glyph-name="ow" unicode="ow" horiz-adv-x="863" 
d="M856 244q-12 6 -19 8q-17 8 -34 -7q-29 -26 -29 -67q0 -23 4 -63q5 -33 -20 -72q-13 -21 -42.5 -28.5t-52.5 2.5q-12 5 -44 35q-12 10 -23 2q-20 -16 -30 -23q-36 -25 -72 -38q-24 -9 -49 -12q-56 -6 -56 51q0 23 6 37q13 29 21 45t24.5 37t36.5 35q6 5 3 10q-1 2 -5 4
q-40 11 -100 13q-54 0 -87 8q-35 7 -63 0q-7 -1 -6 -9q4 -12 7 -17q13 -22 13 -61q0 -36 -26 -62q-34 -36 -78 -52q-35 -13 -79 -20q-16 -1 -30 8t-19 24q-11 25 -5 49q13 53 17 71q3 5 5 10q2 8 4 14q1 2 3.5 6t3.5 6q11 19 25 30q11 5 26 16q13 10 12 26v25q0 5 6.5 10.5
t11.5 4.5q8 0 12 -1q8 0 12 -3q46 -29 127 -33q33 -1 98 -8.5t97 -8.5q14 0 29.5 -2t34.5 -5.5t30 -4.5q6 -1 16 -9q4 -3 6 -10.5t0 -11.5q-7 -17 -20 -24q-6 -3 -17.5 -7.5t-17.5 -7.5q-47 -20 -71 -69q-1 -1 -5 -9t-5 -13q-4 -13 -4 -31q0 -10 8 -16t18 -4h3.5t3.5 1
q83 29 118 80q3 4 9.5 12t9.5 12q4 4 11.5 3.5t11.5 -5.5q8 -10 11 -15q2 -3 7.5 -15t9.5 -18q17 -23 45 -17q12 1 20 13q13 18 15 41q2 46 2 69q0 41 30 95q9 18 34 28q9 4 18 2q26 -8 38 -14q1 0 4 -2t5 -2q2 -2 3 -2q6 -6 9 -12q10 -17 5 -27q-4 -9 -22 -5h-9zM184 92
q13 10 19.5 30.5t0.5 37.5q-10 24 -15 35q-12 24 -36 15q-26 -9 -46 -18q-23 -12 -36 -34q-25 -38 -27 -92q1 -3 3 -15q2 -5 8.5 -9.5t10.5 -3.5q71 16 118 54z" />
    <glyph glyph-name="wi" unicode="wi" horiz-adv-x="691" 
d="M0 53q4 30 4 31q33 128 125 219q2 2 18 10q8 3 17.5 -2t10.5 -13q4 -23 -8 -31q-34 -28 -59 -60q-37 -46 -51 -104q-1 -5 -2.5 -10.5t-3.5 -12t-3 -10.5q-1 -6 0.5 -12.5t4.5 -6.5q15 2 20 5q45 27 77 52q14 12 40.5 34t30.5 25q2 2 6 4.5t6 3.5q13 8 31.5 2t22.5 -20
q2 -6 3.5 -12.5t3 -14.5t2.5 -12q4 -25 7 -33q2 -7 10 -9q5 -2 10 5q13 23 15 73q1 23 10.5 70t18.5 69q5 15 7 19q25 50 83 41q40 -8 63 -18q66 -26 106 -81q34 -47 22 -96q-18 -70 -32 -104q-4 -10 -19 -12t-24 7q-8 6 -6 11q3 23 10 39q2 5 10 20.5t10 23.5q19 54 -20 94
q-30 32 -61 48q-25 13 -48 16q-33 5 -47 -3t-24 -37q-20 -57 -17 -114q1 -35 -17 -86q-12 -33 -42 -54q-9 -7 -24 -4.5t-21 12.5q-18 26 -23 63q-4 21 -5 34q-1 4 -7 6t-11 -1q-24 -15 -30 -19q-7 -6 -29.5 -25t-35.5 -29q-37 -27 -61 -37l-21 -6q-17 -4 -32.5 4.5
t-17.5 24.5t-3 23zM726 499v-7q-22 -26 -29 -45q0 -1 -4.5 -1t-7.5 1q-3 0 -5 4q-21 31 -43 70q-3 5 0 12t10 10q18 9 34 -2q15 -11 42 -36z" />
    <glyph glyph-name="onsfra" unicode="onsfra" horiz-adv-x="2176" 
d="M2193 -5q5 0 10 -5q0 -2 -3.5 -7t-6.5 -6t-7 -2.5t-6 -1.5q-21 -8 -34 -10q-39 -9 -77 -15q-10 -2 -14 -2q-26 0 -52 17q-28 20 -29 52q-1 9 1 25q0 33 -2 42v1l1 1q4 2 4 5q0 2 -4 2q-2 0 -3 -4h-1h-2v-1h-3h-3q-8 0 -12 -2t-29 -17q-8 -6 -26 -16q-41 -23 -64 -32
q-14 -4 -21 -4q-11 0 -19 4q-8 2 -14 15q-2 8 0 10l3 6q5 12 15 25q4 4 11 13.5t10 14.5q36 51 63 78q1 1 7 10q4 6 5 7q3 6 3 9q-2 3 -6 6q-45 23 -114 42q-21 7 -46 7q-58 0 -110 -41q-9 -7 -15 -16l-6 -9q-36 -51 -45 -85q-1 -3 -4 -11t-5 -11q-10 -20 -11 -31
q-2 -12 -10 -20.5t-14 -11t-20 -7.5h-2q-5 0 -9.5 4t-4.5 10v3q0 17 2 25q3 9 11 27q1 2 4.5 11.5t5.5 14.5q6 15 10 42q7 36 -27 47q-75 25 -155 26q-21 0 -31 -18q-6 -12 -9 -17q-18 -30 -26 -46q-9 -20 -20 -40q-38 -80 -54 -122q-46 -120 -60 -198q-5 -31 -15 -69
q-11 -47 -6 -71q0 -2 -7 -8q-4 -2 -5 -2q-4 0 -5 3l-3 3q-8 10 -8 13q-4 48 6 85q4 16 12 50q8 36 13 54q28 103 60 175l21 48q40 94 58 127q1 2 7 19v1q1 2 -1 8q-4 4 -8 4q-9 2 -26 2q-35 0 -66 -16q-3 -1 -9 -5q-18 -10 -29 -12q-3 0 -9 -6q-4 -9 -1 -13q9 -26 8 -63
q-3 -42 -36 -63q-30 -18 -51 -24q-16 -3 -46 -13q-5 -2 -14.5 -5.5t-14.5 -4.5q-1 0 -4.5 -0.5t-5.5 -0.5q-7 0 -10 1q-4 1 -8 9q-4 6 2 10l1 1q1 1 1 2q1 1 6 4.5t8 4.5q5 2 15.5 5t15.5 4q6 2 18.5 6t18.5 6q12 4 31 17q17 12 20 31q6 34 -1 64q-2 9 -10 18l-1 2
q-7 12 -26 12q-4 0 -8 -2q-2 -1 -4 -3q-18 -10 -32 -21q-14 -13 -40 -41t-82 -74q-18 -15 -19 -16q-32 -26 -85 -52q-8 -4 -27 -6q-1 -1 -4 -1q-22 0 -34 23q-11 24 -7 47q2 9 6 29q15 79 30 115q2 6 2 20v6q0 1 -0.5 1t-0.5 1q-2 0 -6 2h-2q-9 0 -13 -3q-6 -3 -17 -14
q-3 -3 -5 -4l-45 -45q-44 -42 -67 -65q-41 -37 -72 -57q-11 -7 -27 -7h-6q-7 0 -14 10q-6 8 -5 14q2 4 5 14t4 14l9 33q10 38 1 55t-44 28q-22 9 -42 10q-44 4 -84 15q-3 1 -7 1q-18 0 -20 -20v-2q-1 -4 -1 -13q0 -56 -47 -106q-49 -50 -132 -81q-8 -3 -27 -3h-1
q-17 0 -31 13t-15 29q-4 48 12 97q24 72 95 130q13 10 27 10q22 0 39 -20q9 -11 2 -25q-6 -15 -19 -16h-1q-6 0 -11 3h-1q-16 5 -28 -7l-9 -9q-20 -20 -25 -27q-38 -49 -31 -108q1 -8 8 -14.5t16 -6.5q1 0 2 0.5t2 0.5q14 3 27 8q39 14 81 58q21 23 26 52q12 69 -16 112
q-3 5 -5 10l-1 2q-2 7 1.5 15.5t10.5 12.5q8 2 13 2q13 0 18 -6q1 -2 3 -5t3 -5q6 -10 10 -14q15 -15 22 -18q54 -23 83 -23h1q27 0 67 -11q5 -1 15 -3.5t15 -3.5q25 -4 45 -31q8 -11 11 -24q1 -11 1 -32q0 -3 0.5 -9t0.5 -9q0 -5 5 -7q0 -1 2 -1q4 0 6 2q57 46 138 113
q9 8 28.5 24.5t29.5 24.5q2 1 35 29q4 2 8 2q14 0 17 -12q3 -18 3 -21q0 -21 -11 -47q-31 -88 -42 -122q-4 -14 -8 -42q-1 -10 3 -20.5t10 -12.5q16 -3 29 6q84 56 145 115q8 8 12 11q47 49 80 66q1 1 2.5 2t2.5 1q8 6 14 7q1 0 4.5 0.5t4.5 0.5q4 0 10 -2q8 -4 29 -18
q2 -1 6.5 -4t6.5 -4q2 -2 7 -2q6 0 8 5q20 35 68 44q70 9 99 11q29 0 41 26q10 20 35 49q6 8 20 26q26 36 91 79q20 14 22 16h2l2 1q1 1 3 1q5 3 13 3q20 0 29 -14l1 -1q6 -7 9 -17q14 -52 1 -90q-8 -24 -27 -27h-2q-3 0 -7 2v2q0 11 2 31q3 17 3 32q1 10 -5 22q-3 4 -11 6
q-1 1 -2 1h-3q-4 0 -5 -1q-34 -16 -75 -57.5t-59 -78.5q-2 -5 2 -10q4 -9 10 -10h2q2 -1 5 -1q25 0 73 -10q26 -6 39 -8q21 -3 59 -22q12 -5 19 -5q14 0 28 14q25 23 44 36q25 18 50 25q29 8 55 8q41 0 82 -19q8 -4 40 -16l27 -9q32 -14 72 -14q18 0 27 2h2q12 0 21 -11
q13 -11 8 -23q0 -1 -1 -3.5t-2 -3.5q-8 -16 -7 -24v-1q-3 0 -4 1q-10 0 -14 1h-4q-25 0 -50 -19q-20 -16 -45 -50l-2 -3q-3 -4 -3 -9q1 -3 5 -4q3 -1 8 -1q56 23 106 70q3 2 5 9v1h3v2q10 4 23 19l12 12q9 6 13 6q7 0 16 -8q8 -7 7 -16q-4 -25 -14 -38q-39 -54 -35 -143
q0 -30 34 -32q10 -1 26 -1q32 0 59 6q14 4 44 6h5z" />
    <glyph glyph-name="fra" unicode="fra" horiz-adv-x="1082" 
d="M1097 -5q5 0 10 -5q0 -2 -3.5 -7t-6.5 -6t-7 -2.5t-6 -1.5q-21 -8 -34 -10q-39 -9 -77 -15q-10 -2 -14 -2q-26 0 -52 17q-28 20 -29 52q-1 9 1 25q0 33 -2 42v1l1 1q-2 0 -6 2h-3h-3q-8 0 -12 -2t-29 -17q-8 -6 -26 -16q-41 -23 -64 -32q-14 -4 -21 -4q-11 0 -19 4
q-8 2 -14 15q-2 8 0 10l3 6q5 12 15 25q4 5 11 14t10 14q36 51 63 78q1 1 7 10q4 6 5 7q3 6 3 9q-2 3 -6 6q-45 23 -114 42q-21 7 -46 7q-58 0 -110 -41q-9 -7 -15 -16l-6 -9q-36 -51 -45 -85q-1 -4 -4 -11.5t-5 -10.5q-10 -20 -11 -31q-2 -12 -10 -20.5t-14 -11t-20 -7.5
h-2q-5 0 -9.5 4t-4.5 10v3q0 17 2 25q3 9 11 27q1 2 4.5 11.5t5.5 14.5q6 15 10 42q7 36 -27 47q-75 25 -155 26q-21 0 -31 -18q-6 -12 -9 -17q-18 -30 -26 -46q-9 -20 -20 -40q-38 -80 -54 -122q-46 -120 -60 -198q-5 -31 -15 -69q-11 -47 -6 -71q0 -2 -7 -8q-4 -2 -5 -2
q-4 0 -5 3l-3 3q-8 10 -8 13q-4 48 6 85q4 16 12 50q8 36 13 54q28 103 60 175l21 48q40 94 58 127q1 2 7 19v1q1 2 -1 8q-4 4 -8 4q-9 2 -26 2q-35 0 -66 -16q-3 -1 -9 -5q-14 -9 -26 -11q-1 0 -5 2q-10 5 -10 28q19 33 66 41q70 9 99 11q29 0 41 26q10 20 35 49q6 8 20 26
q26 36 91 79q20 14 22 16h2l2 1q1 1 3 1q4 3 13 3q20 0 29 -14l1 -1q6 -7 9 -17q14 -52 1 -90q-8 -24 -27 -27h-2q-3 0 -7 2v2q0 11 2 31q3 17 3 32q1 10 -5 22q-3 4 -11 6q-1 1 -2 1h-3q-4 0 -5 -1q-34 -16 -75 -57.5t-59 -78.5q-2 -5 2 -10q4 -9 10 -10h2q2 -1 5 -1
q25 0 73 -10q26 -6 39 -8q21 -3 59 -22q12 -5 19 -5q14 0 28 14q25 23 44 36q25 18 50 25q29 8 55 8q41 0 82 -19q8 -4 40 -16l27 -9q32 -14 72 -14q18 0 27 2h2q12 0 21 -11q13 -11 8 -23q0 -1 -1 -3.5t-2 -3.5q-8 -16 -7 -24v-1q-3 0 -4 1q-10 0 -14 1h-4q-25 0 -50 -19
q-20 -16 -45 -50l-2 -3q-3 -4 -3 -9q1 -3 5 -4q3 -1 8 -1q56 23 106 70q3 2 5 9v1h3v2q10 4 23 19l12 12q9 6 13 6q7 0 16 -8q8 -7 7 -16q-4 -25 -14 -38q-39 -54 -35 -143q0 -30 34 -32q10 -1 26 -1q32 0 59 6q14 4 44 6h5z" />
    <glyph glyph-name="ons" unicode="ons" horiz-adv-x="1118" 
d="M1110 115q-3 -42 -36 -63q-30 -18 -51 -24q-16 -3 -46 -13q-5 -2 -14.5 -5.5t-14.5 -4.5q-1 0 -4.5 -0.5t-5.5 -0.5q-7 0 -10 1q-4 1 -8 9q-4 6 2 10l1 1q1 1 1 2q1 1 6 4.5t8 4.5q5 2 15.5 5t15.5 4q6 2 18.5 6t18.5 6q12 4 31 17q17 12 20 31q6 34 -1 64q-2 9 -10 18
l-1 2q-7 12 -26 12q-4 0 -8 -2q-2 -1 -4 -3q-18 -10 -32 -21q-14 -13 -40 -41t-82 -74q-18 -15 -19 -16q-32 -26 -85 -52q-8 -4 -27 -6q-1 -1 -4 -1q-22 0 -34 23q-11 24 -7 47q2 9 6 29q15 79 30 115q2 6 2 20v6q0 1 -0.5 1t-0.5 1q-2 0 -6 2h-2q-9 0 -13 -3q-6 -3 -17 -14
q-3 -3 -5 -4l-45 -45q-44 -42 -67 -65q-41 -37 -72 -57q-11 -7 -27 -7h-6q-7 0 -14 10q-6 8 -5 14q2 4 5 14t4 14l9 33q10 38 1 55t-44 28q-22 9 -42 10q-44 4 -84 15q-3 1 -7 1q-18 0 -20 -20v-2q-1 -4 -1 -13q0 -56 -47 -106q-49 -50 -132 -81q-8 -3 -27 -3h-1
q-17 0 -31 13t-15 29q-4 48 12 97q24 72 95 130q13 10 27 10q22 0 39 -20q9 -11 2 -25q-6 -15 -19 -16h-1q-6 0 -11 3h-1q-16 5 -28 -7l-9 -9q-20 -20 -25 -27q-38 -49 -31 -108q1 -8 8 -14.5t16 -6.5q1 0 2 0.5t2 0.5q14 3 27 8q39 14 81 58q21 23 26 52q12 69 -16 112
q-3 5 -5 10l-1 2q-2 7 1.5 15.5t10.5 12.5q8 2 13 2q13 0 18 -6q1 -2 3 -5t3 -5q6 -10 10 -14q15 -15 22 -18q54 -23 83 -23h1q27 0 67 -11q5 -1 15 -3.5t15 -3.5q25 -4 45 -31q8 -11 11 -24q1 -11 1 -32q0 -3 0.5 -9t0.5 -9q0 -5 5 -7q0 -1 2 -1q4 0 6 2q57 46 138 113
q9 8 28.5 24.5t29.5 24.5q2 1 35 29q4 2 8 2q14 0 17 -12q3 -18 3 -21q0 -21 -11 -47q-31 -88 -42 -122q-4 -14 -8 -42q-1 -10 3 -20.5t10 -12.5q16 -3 29 6q84 56 145 115q8 8 12 11q47 49 80 66q1 1 2.5 2t2.5 1q8 6 14 7q1 0 4.5 0.5t4.5 0.5q4 0 10 -2q8 -4 29 -18
q1 0 3 -2q18 -16 26 -43q0 -2 2 -2q0 -4 1 -5q9 -26 8 -63z" />
    <glyph glyph-name="on" unicode="on" horiz-adv-x="873" 
d="M886 88l-2 -2q-8 -7 -31 -26q-18 -15 -19 -16q-32 -26 -85 -52q-8 -4 -27 -6q-1 -1 -4 -1q-22 0 -34 23q-11 24 -7 47q2 9 6 29q15 79 30 115q2 6 2 20v6q0 1 -0.5 1t-0.5 1q-2 0 -6 2h-2q-9 0 -13 -3q-6 -3 -17 -14q-3 -3 -5 -4l-45 -45q-44 -42 -67 -65
q-41 -37 -72 -57q-11 -7 -27 -7h-6q-7 0 -14 10q-6 8 -5 14q2 4 5 14t4 14l9 33q10 38 1 55t-44 28q-22 9 -42 10q-44 4 -84 15q-3 1 -7 1q-18 0 -20 -20v-2q-1 -4 -1 -13q0 -56 -47 -106q-49 -50 -132 -81q-8 -3 -27 -3h-1q-17 0 -31 13t-15 29q-4 48 12 97q24 72 95 130
q13 10 27 10q22 0 39 -20q9 -11 2 -25q-6 -15 -19 -16h-1q-6 0 -11 3h-1q-16 5 -28 -7l-9 -9q-20 -20 -25 -27q-38 -49 -31 -108q1 -8 8 -14.5t16 -6.5q1 0 2 0.5t2 0.5q14 3 27 8q39 14 81 58q21 23 26 52q12 69 -16 112q-3 5 -5 10l-1 2q-2 7 1.5 15.5t10.5 12.5q8 2 13 2
q13 0 18 -6q1 -2 3 -5t3 -5q6 -10 10 -14q15 -15 22 -18q54 -23 83 -23h1q27 0 67 -11q5 -1 15 -3.5t15 -3.5q25 -4 45 -31q8 -11 11 -24q1 -11 1 -32q0 -3 0.5 -9t0.5 -9q0 -5 5 -7q0 -1 2 -1q4 0 6 2q57 46 138 113q9 8 28.5 24.5t29.5 24.5q2 1 35 29q4 2 8 2
q14 0 17 -12q3 -18 3 -21q0 -21 -11 -47q-31 -88 -42 -122q-4 -14 -8 -42q-1 -10 3 -20.5t10 -12.5q16 -3 29 6q58 37 105 78q21 9 27 -3q6 -10 -12 -34z" />
    <glyph glyph-name="Di" unicode="Di" horiz-adv-x="667" 
d="M289 229q35 7 59 12q19 5 22 6q29 10 35 37q11 48 5 105q-3 24 -23 46q-25 28 -55 39q-62 25 -102 24q-70 -2 -90 -7q-22 -5 -52 -7q-54 -5 -87 -39q-17 -15 -34 0q-9 8 -9.5 20t7.5 21l10 10q8 7 20 12q73 28 153 33q7 0 28.5 0.5t32.5 1.5q53 4 111 -13q44 -12 80 -40
q38 -31 54 -81q19 -57 4 -119q-1 -8 3.5 -14t12.5 -6h45h91q24 -1 37.5 -21t6.5 -43q-3 -11 -17 -50q-16 -42 -25 -63q-14 -31 5 -56q5 -7 3 -14q-2 -9 -7 -13q-9 -8 -24 -9t-25 6q-22 14 -19 38q2 33 25 86q5 12 14 35.5t13 35.5q3 7 -2 13.5t-13 7.5q-46 9 -141 -14
q-13 -2 -24 -17q-4 -5 -11 -15.5t-10 -15.5q-59 -95 -190 -168q-61 -35 -131 -23q-19 4 -43 14q-25 12 -33 39t7 51q13 22 32 41q7 7 30 23q30 22 46 59q22 49 39 81q29 53 64 84q12 12 27 3q28 -17 21 -37q-7 -17 -11 -26t-15 -19.5t-26 -13.5q-11 -4 -16 -14
q-13 -21 -24 -47q-2 -2 2 -6q3 -3 6 -3q39 10 108 30zM355 187q-3 5 -4 5q-26 3 -29 2q-62 -11 -158 -47q-21 -9 -31 -31q-2 -4 -10 -24.5t-13 -31.5q-1 -3 -12 -7q-4 -1 -9.5 5t-5.5 10q0 5 2 15q2 9 -5 12q-1 1 -6 -2q-24 -16 -31 -41q-7 -27 14 -39q32 -18 65 -11
q44 11 61.5 19t52.5 35q34 25 74 63q30 27 44 61q1 2 1 7zM692 552q19 0 32 -15q10 -10 11 -19q7 -40 43 -59q5 -3 7 -12q1 -5 -3 -14q-3 -8 -13 -3q-33 13 -73 51q-9 7 -25 37q-5 8 2.5 20t18.5 14z" />
    <glyph glyph-name="sk" unicode="sk" horiz-adv-x="662" 
d="M155 75q2 -6 6 -28q4 -21 -11 -35t-35 -12q-7 0 -15 1.5t-17 4t-15 3.5q-37 8 -67 55q-1 2 -1 14l3 6q4 8 11 1q4 -4 11.5 -12.5t11.5 -12.5q20 -18 50 -20q6 0 13 5t8 10q0 2 1 6.5t1.5 8t0.5 6.5q2 48 33 175q9 36 43 70q5 5 23 14q12 6 26 0q12 -6 23.5 -15.5
t24.5 -22.5t21 -19q3 -3 9.5 -3t8.5 4q16 22 23 34q30 48 82 111q22 27 72 62q8 6 26 10q22 5 37 -12q14 -16 -1 -39q-6 -8 -10 -10q-14 -8 -18 -6q-24 15 -49 -10q-82 -86 -127 -179q-8 -15 -23 -57q-2 -5 2 -13q2 -5 11 0q59 50 74 61q66 52 205 128q4 2 8 3.5t9 4t8 3.5
q5 2 13 -1.5t10 -9.5q3 -5 1 -14t-6 -11l-24 -12q-16 -4 -34 -12.5t-28 -15t-30.5 -21t-27.5 -18.5q-6 -5 -9 -10q-21 -44 -22 -58q-2 -28 14 -55.5t43 -38.5q11 -5 46 -16q30 -10 45 -16q8 -2 4 -11q-5 -9 -9 -9q-22 -2 -41 1q-8 1 -24.5 5t-22.5 5q-50 9 -86 52
q-20 24 -24 70q-1 5 -6 6.5t-10 -1.5l-2 -1q-3 -2 -4 -3q-83 -75 -91 -83q-18 -20 -66 -34q-13 -4 -17 6q-2 12 -2 13q19 50 57 148q3 10 -4 12q-6 4 -20 15.5t-25 19t-23 12.5q-8 3 -12 -3q-24 -21 -32 -52q-15 -61 -27 -128q-1 -3 -1 -26z" />
    <glyph glyph-name="wei" unicode="wei" horiz-adv-x="849" 
d="M811 122v-25q-3 -28 20 -42q4 -2 4.5 -10t-2.5 -12q-18 -19 -45 -18q-7 0 -10 5q-14 17 -16 40q-1 23 8 87q0 6 -6 10q-5 2 -12 0q-6 -3 -10 -7q-6 -4 -18 -12.5t-18 -12.5q-61 -46 -148 -79q-58 -22 -88 -31q-8 -2 -25 -2q-15 -1 -28.5 10.5t-15.5 26.5q-3 25 2 43
q2 9 8 32t9 35q6 22 -19 24q-29 2 -39.5 -3.5t-23.5 -32.5q-4 -9 -10.5 -26t-10.5 -26q-19 -42 -46 -67q-7 -7 -14 -11q-12 -10 -27 -5t-18 19q-2 12 -7 37t-8 37q0 5 -4 11q-8 6 -11 3q-21 -14 -34 -27q-10 -10 -31.5 -30.5t-31.5 -30.5q-23 -21 -54 -29q-14 -4 -21 10
q-6 13 -9 23q-1 4 -1 13q0 3 0.5 11t1.5 13q2 7 10.5 50.5t17.5 64.5q6 12 5 18q-1 14 4 27t15 29.5t13 23.5q2 5 9 8t12 1q9 -2 14.5 -11t2.5 -18q-20 -53 -22 -58q-29 -54 -36 -112q-6 -35 -6 -37q-1 -1 3 -5q2 -1 6 -1l15 10q15 14 41.5 40t34.5 34q22 20 33 29
q12 10 26 6.5t22 -17.5q11 -20 15 -40q3 -19 9 -37q1 -3 8 -8q2 -2 5 3q14 16 19 25q4 10 11.5 28.5t11.5 28.5q8 18 22 52q15 33 50 28q20 -2 31 -4q8 -2 31 0q18 3 28 13l5.5 5.5t6.5 6t5 5.5q38 41 105 51q11 1 31 -3q9 -2 13.5 -12t1.5 -18q-11 -26 -26 -34
q-3 -2 -16.5 -10t-21.5 -11q-38 -17 -64 -25q-21 -5 -32 -27q-26 -53 -24 -96q0 -5 5 -10.5t10 -5.5h12q13 1 19 3q25 6 53 17q74 27 138 72q15 11 78 52q17 10 31.5 2.5t16.5 -28.5q2 -18 2 -25v-31h-1zM898 327q1 -5 -5.5 -10t-11.5 -3q-52 23 -56 25q-12 5 -15 18
q-3 14 5 22q11 11 23 5l2 -1q2 -1 3 -1q3 -3 52 -43q1 -1 1.5 -3t1 -5t0.5 -4z" />
    <glyph glyph-name="we" unicode="we" horiz-adv-x="638" 
d="M661 99q-4 -5 -6 -7q-45 -26 -97 -46q-58 -22 -88 -31q-8 -2 -25 -2q-15 -1 -28.5 10.5t-15.5 26.5q-3 25 2 43q2 9 8 32t9 35q6 22 -19 24q-29 2 -39.5 -3.5t-23.5 -32.5q-4 -9 -10.5 -26t-10.5 -26q-19 -42 -46 -67q-7 -7 -14 -11q-12 -10 -27 -5t-18 19q-2 12 -7 37
t-8 37q0 5 -4 11q-8 6 -11 3q-21 -14 -34 -27q-10 -10 -31.5 -30.5t-31.5 -30.5q-23 -21 -54 -29q-14 -4 -21 10q-6 13 -9 23q-1 4 -1 13q0 3 0.5 11t1.5 13q2 7 10.5 50.5t17.5 64.5q6 12 5 18q-1 14 4 27t15 29.5t13 23.5q2 5 9 8t12 1q9 -2 14.5 -11t2.5 -18
q-20 -53 -22 -58q-29 -54 -36 -112q-6 -35 -6 -37q-1 -1 3 -5q2 -1 6 -1l15 10q15 14 41.5 40t34.5 34q22 20 33 29q12 10 26 6.5t22 -17.5q11 -20 15 -40q3 -19 9 -37q1 -3 8 -8q2 -2 5 3q14 16 19 25q4 10 11.5 28.5t11.5 28.5q8 18 22 52q15 33 50 28q20 -2 31 -4
q8 -2 31 0q18 3 28 13l5.5 5.5t6.5 6t5 5.5q38 41 105 51q11 1 31 -3q9 -2 13.5 -12t1.5 -18q-11 -26 -26 -34q-3 -2 -16.5 -10t-21.5 -11q-38 -17 -64 -25q-21 -5 -32 -27q-26 -53 -24 -96q0 -5 5 -10.5t10 -5.5h12q13 1 19 3q25 6 53 17q54 21 96 45q5 1 11 -1
q8 -2 10 -10.5t-2 -14.5z" />
    <glyph glyph-name="se" unicode="se" horiz-adv-x="539" 
d="M574 54q6 -8 -4 -17v-1q-7 -2 -18.5 -5.5t-15.5 -4.5q-5 -2 -17 -5t-17 -5q-51 -17 -86 -24q-21 -5 -43 -6h-3q-32 0 -61 22q-7 3 -13 14q-20 41 -13 72q5 21 6 43q2 12 -4 16q-3 5 -11 5q-3 0 -11 -2q-36 -14 -90 -23q-10 -2 -30 -8q-2 -1 -6 -2.5t-6 -1.5
q-11 -3 -14 -17q-1 -2 -1 -5t-1 -4q-3 -11 -3 -21q1 -14 -5 -42q0 -2 -1.5 -9t-2.5 -11q-3 -19 -24 -28q-13 -5 -23 -8q-6 -2 -10 -2q-10 0 -21 7q-27 13 -39 47q-3 8 -3 19l3 15q0 1 0.5 4.5t0.5 4.5q8 46 50 69h1q10 6 16 8q17 8 21 28q2 16 2 24q3 52 35 119q2 3 6 7
q0 1 2 3q4 6 16 6q10 0 14 -4q18 -14 10 -34q0 -1 -1 -2t-1 -2q-1 -2 -3 -8q-22 -31 -32 -92q-1 -8 4 -15q5 -5 11 -5h1h3h4h5q5 1 17 3.5t18 4.5q58 12 91 23q34 10 47 37q11 22 43 54q4 4 20 13q3 2 8 2q19 0 23 -18q4 -16 -3 -31t-20 -31q-2 -3 -5 -5.5t-6 -5.5l-5 -5
l-15 -15q-12 -12 -17 -25q-21 -62 -18 -103q1 -19 14.5 -32t33.5 -14h5h4h9h1q7 0 11 1q11 3 32 7t31 7q55 11 93 22h1q7 -4 10 -8zM67 78v4q-1 3 -1 8q-2 9 -5 10h-2q-5 0 -9 -3q-22 -13 -28 -45q-3 -18 13 -32q3 -3 8 -3t7 3q13 15 17 56v2z" />
    <glyph glyph-name="Hin" unicode="Hin" horiz-adv-x="1122" 
d="M195 233q10 1 33 2.5t32 2.5q15 1 22 17q11 27 13 70q4 57 31 139q3 8 14 24q4 6 12.5 8t13.5 -2q14 -9 14 -23l-1 -9q-1 -8 -2 -12q-22 -58 -28 -125q-1 -6 -6 -25.5t-4 -30.5q1 -5 5 -9t9 -3q26 5 78 9t78 8q25 4 107 2q19 0 34.5 -16t16.5 -35q0 -29 -4 -50
q-3 -16 -13 -41q-10 -30 -2 -56q4 -12 -14 -23q-5 -4 -20 -6q-11 -1 -19.5 7.5t-7.5 18.5q3 14 8 42t8 42q6 28 8 42q5 31 -28 33q-80 2 -121 -7q-10 -2 -29.5 -4t-26.5 -3q-54 -8 -56 -9q-22 -4 -30 -28q-5 -13 -11 -41q-9 -47 -28 -125q-1 -3 -21 -61q-1 -2 -4.5 -6
t-4.5 -5q-3 -4 -10 -4.5t-9 3.5q-6 6 -6 12q1 4 2.5 8.5t3.5 10t3 8.5q16 64 18 84q1 12 6 35.5t6 34.5q2 14 0 42q0 5 -9 10q-1 2 -7 2q-82 -2 -121 -4q-14 -2 -27 -8q-16 -5 -19 -20q-17 -75 -18 -105q0 -9 -2 -29q-1 -6 -7.5 -13t-10.5 -6q-5 2 -10.5 8.5t-5.5 12.5
q-6 59 2 93q1 6 2.5 17.5t2.5 17.5q1 7 -4.5 13t-12.5 6t-21.5 1t-21.5 1t-21 2q-6 1 -12.5 7.5t-5.5 11.5q2 13 9 19q12 8 26 10q8 0 24.5 -1t24.5 -1q26 2 33 23q5 13 14.5 40t13.5 41q4 11 12 34t12 34q1 3 4.5 9.5t4.5 9.5q6 10 21 9.5t22 -10.5q5 -7 3 -13
q-12 -36 -19 -54q-2 -7 -8 -20t-9 -19q-20 -55 -13.5 -66t64.5 -9h20zM1109 170q0 -2 -1 -8.5t-2 -14.5t-3 -15q-11 -45 -6 -107q1 -5 5 -14t5 -12q1 -4 -1 -11t-5 -8q-17 0 -20 3q-18 14 -23 26q-17 45 -10 84q8 56 12 85q0 7 -6 11q-8 4 -14 1q-35 -12 -60 -37
q-16 -16 -49.5 -40t-46.5 -35q-15 -12 -52 -22q-5 -2 -12.5 4t-7.5 12q-2 14 -1 21q2 9 8 27q29 87 -35 151q-31 33 -96 95q-37 35 -53 67q-2 3 -7 20q-1 6 3.5 13t11.5 9q9 3 19 1t13 -9q21 -48 82 -106q16 -16 67 -74q6 -7 30 -40q29 -39 30 -78q0 -14 8 -17t21 5
q7 4 20.5 14t20.5 14q8 5 67 41q16 9 41 11q18 2 32 -10.5t15 -31.5v-25z" />
    <glyph glyph-name="Hi" unicode="Hi" horiz-adv-x="688" 
d="M195 233q10 1 33 2.5t32 2.5q15 1 22 17q11 27 13 70q4 57 31 139q3 8 14 24q4 6 12.5 8t13.5 -2q14 -9 14 -23l-1 -9q-1 -8 -2 -12q-22 -58 -28 -125q-1 -6 -6 -25.5t-4 -30.5q1 -5 5 -9t9 -3q26 5 78 9t78 8q25 4 107 2q19 0 34.5 -16t16.5 -35q0 -29 -4 -50
q-3 -16 -13 -41q-10 -30 -2 -56q4 -12 -14 -23q-5 -4 -20 -6q-11 -1 -19.5 7.5t-7.5 18.5q3 14 8 42t8 42q6 28 8 42q5 31 -28 33q-80 2 -121 -7q-10 -2 -29.5 -4t-26.5 -3q-54 -8 -56 -9q-22 -4 -30 -28q-5 -13 -11 -41q-9 -47 -28 -125q-1 -3 -21 -61q-1 -2 -4.5 -6
t-4.5 -5q-3 -4 -10 -4.5t-9 3.5q-6 6 -6 12q1 4 2.5 8.5t3.5 10t3 8.5q16 64 18 84q1 12 6 35.5t6 34.5q2 14 0 42q0 5 -9 10q-1 2 -7 2q-82 -2 -121 -4q-14 -2 -27 -8q-16 -5 -19 -20q-17 -75 -18 -105q0 -9 -2 -29q-1 -6 -7.5 -13t-10.5 -6q-5 2 -10.5 8.5t-5.5 12.5
q-6 59 2 93q1 6 2.5 17.5t2.5 17.5q1 7 -4.5 13t-12.5 6t-21.5 1t-21.5 1t-21 2q-6 1 -12.5 7.5t-5.5 11.5q2 13 9 19q12 8 26 10q8 0 24.5 -1t24.5 -1q26 2 33 23q5 13 14.5 40t13.5 41q4 11 12 34t12 34q1 3 4.5 9.5t4.5 9.5q6 10 21 9.5t22 -10.5q5 -7 3 -13
q-12 -36 -19 -54q-2 -7 -8 -20t-9 -19q-20 -55 -13.5 -66t64.5 -9h20zM712 327q0 -5 -6 -9.5t-11 -3.5q-38 16 -56 25q-11 4 -16 18q-3 14 5 22q4 4 11.5 5.5t11.5 -0.5q1 0 2.5 -0.5t2.5 -1.5q18 -15 52 -43q2 -2 2.5 -6t1.5 -6z" />
    <glyph glyph-name="hr" unicode="hr" horiz-adv-x="881" 
d="M708 134q0 2 -1 7.5t-1.5 11t-1.5 9.5q-1 6 -9 12t-15 5q-30 -5 -38 -9q-14 -6 -56 -32q-35 -23 -104 -68.5t-103 -68.5q-21 -13 -51 -23q-14 -4 -30 6t-20 24q-9 37 1 71q21 65 35 115q3 10 5 31q1 1 -1 3.5t-3 2.5q-10 -2 -14 -5q-128 -84 -148 -96q-26 -16 -58 -27
q-15 -5 -39 -5q-19 1 -35.5 16t-18.5 35q-5 45 3 80q17 92 78 218q19 39 52 60q23 15 46 3q8 -3 6 -13l-1 -3q-1 -3 -2 -4q-5 -7 -15 -19.5t-17.5 -23.5t-12.5 -23q-4 -10 -23 -50.5t-28.5 -66.5t-15.5 -54q-7 -30 -8 -55q-2 -28 12.5 -37t38.5 1q20 7 58 29q107 66 141 91
q10 8 34 20q11 6 23.5 -1.5t10.5 -19.5q-2 -27 -6 -40q-15 -61 -31 -107q-8 -28 -10 -72q0 -16 8.5 -20.5t22.5 4.5q88 55 163 103q84 52 104 61q36 15 59 22q14 5 31 -2t24 -21q4 -7 9 -20.5t6 -16.5q2 -5 8.5 -6t11.5 3q32 29 35 33q15 18 113 113q46 42 84 62q7 3 23 7
q8 2 19.5 -2.5t15.5 -11.5q10 -20 0 -38q-8 -8 -13 -6q-27 13 -69 -10q-20 -11 -32 -23q-10 -10 -38 -38.5t-42 -43.5t-34.5 -39t-35.5 -46l-7 -10q-7 -10 -8 -11.5l-7 -10.5t-7.5 -12l-5.5 -11t-5.5 -13t-4 -12t-4 -13.5t-1.5 -13.5q-2 -28 -35 -38q-11 -4 -20 0.5
t-10 14.5q-6 32 5 64q6 20 7 31q1 5 3 43z" />
    </font>
</defs>
</svg>
